%TF.GenerationSoftware,KiCad,Pcbnew,(5.1.8)-1*%
%TF.CreationDate,2021-01-29T20:36:51-06:00*%
%TF.ProjectId,ESPRelay,45535052-656c-4617-992e-6b696361645f,rev?*%
%TF.SameCoordinates,Original*%
%TF.FileFunction,Soldermask,Top*%
%TF.FilePolarity,Negative*%
%FSLAX46Y46*%
G04 Gerber Fmt 4.6, Leading zero omitted, Abs format (unit mm)*
G04 Created by KiCad (PCBNEW (5.1.8)-1) date 2021-01-29 20:36:51*
%MOMM*%
%LPD*%
G01*
G04 APERTURE LIST*
%ADD10C,1.524000*%
%ADD11C,1.800000*%
%ADD12R,1.800000X1.800000*%
%ADD13R,2.200000X2.200000*%
%ADD14O,2.200000X2.200000*%
%ADD15C,3.200000*%
%ADD16C,2.300000*%
%ADD17R,2.300000X2.300000*%
%ADD18O,1.050000X1.500000*%
%ADD19R,1.050000X1.500000*%
%ADD20C,1.400000*%
%ADD21O,1.400000X1.400000*%
%ADD22O,1.600000X1.600000*%
%ADD23R,1.600000X1.600000*%
%ADD24C,1.650000*%
%ADD25R,1.650000X1.650000*%
%ADD26C,2.100000*%
%ADD27R,2.100000X2.100000*%
G04 APERTURE END LIST*
D10*
%TO.C,U1*%
X124968000Y-110998000D03*
X122428000Y-110998000D03*
X119888000Y-110998000D03*
X117348000Y-110998000D03*
X114808000Y-110998000D03*
X112268000Y-110998000D03*
X109728000Y-110998000D03*
X107188000Y-110998000D03*
X104648000Y-110998000D03*
X102108000Y-110998000D03*
X99568000Y-110998000D03*
X97028000Y-110998000D03*
X94488000Y-110998000D03*
X91948000Y-110998000D03*
X89408000Y-110998000D03*
X89408000Y-134493000D03*
X91948000Y-134493000D03*
X94488000Y-134493000D03*
X97028000Y-134493000D03*
X99568000Y-134493000D03*
X102108000Y-134493000D03*
X104648000Y-134493000D03*
X107188000Y-134493000D03*
X109728000Y-134493000D03*
X112268000Y-134493000D03*
X114808000Y-134493000D03*
X117348000Y-134493000D03*
X119888000Y-134493000D03*
X122428000Y-134493000D03*
X124968000Y-134493000D03*
%TD*%
D11*
%TO.C,D1*%
X112740000Y-101531000D03*
D12*
X110200000Y-101531000D03*
%TD*%
%TO.C,D2*%
X119126000Y-101531000D03*
D11*
X121666000Y-101531000D03*
%TD*%
D13*
%TO.C,D3*%
X96647000Y-65405000D03*
D14*
X96647000Y-75565000D03*
%TD*%
%TO.C,D4*%
X96520000Y-89408000D03*
D13*
X96520000Y-79248000D03*
%TD*%
D15*
%TO.C,H1*%
X86000000Y-61000000D03*
%TD*%
%TO.C,H2*%
X86000000Y-138000000D03*
%TD*%
%TO.C,H3*%
X130000000Y-138000000D03*
%TD*%
%TO.C,H4*%
X130000000Y-61000000D03*
%TD*%
D16*
%TO.C,K1*%
X102997000Y-79375000D03*
X118237000Y-79375000D03*
X120777000Y-86995000D03*
X113157000Y-86995000D03*
D17*
X102997000Y-86995000D03*
%TD*%
%TO.C,K2*%
X102997000Y-74549000D03*
D16*
X113157000Y-74549000D03*
X120777000Y-74549000D03*
X118237000Y-66929000D03*
X102997000Y-66929000D03*
%TD*%
D18*
%TO.C,Q1*%
X99822000Y-94615000D03*
X98552000Y-94615000D03*
D19*
X101092000Y-94615000D03*
%TD*%
%TO.C,Q2*%
X94234000Y-94615000D03*
D18*
X91694000Y-94615000D03*
X92964000Y-94615000D03*
%TD*%
D20*
%TO.C,R1*%
X92329000Y-65405000D03*
D21*
X87249000Y-65405000D03*
%TD*%
%TO.C,R2*%
X86995000Y-78867000D03*
D20*
X92075000Y-78867000D03*
%TD*%
%TO.C,R3*%
X99949000Y-100330000D03*
D21*
X99949000Y-105410000D03*
%TD*%
%TO.C,R4*%
X92837000Y-105410000D03*
D20*
X92837000Y-100330000D03*
%TD*%
D22*
%TO.C,U2*%
X90678000Y-76073000D03*
X88138000Y-68453000D03*
X88138000Y-76073000D03*
D23*
X90678000Y-68453000D03*
%TD*%
%TO.C,U3*%
X90170000Y-81915000D03*
D22*
X87630000Y-89535000D03*
X87630000Y-81915000D03*
X90170000Y-89535000D03*
%TD*%
D24*
%TO.C,J1*%
X129032000Y-86629000D03*
X129032000Y-83129000D03*
D25*
X129032000Y-79629000D03*
%TD*%
%TO.C,J2*%
X129032000Y-67437000D03*
D24*
X129032000Y-70937000D03*
X129032000Y-74437000D03*
%TD*%
D26*
%TO.C,J3*%
X129159000Y-106680000D03*
X129159000Y-104140000D03*
D27*
X129159000Y-101600000D03*
%TD*%
%TO.C,J4*%
X129159000Y-92202000D03*
D26*
X129159000Y-94742000D03*
X129159000Y-97282000D03*
%TD*%
M02*
