%TF.GenerationSoftware,KiCad,Pcbnew,(5.1.8)-1*%
%TF.CreationDate,2021-01-29T20:36:51-06:00*%
%TF.ProjectId,ESPRelay,45535052-656c-4617-992e-6b696361645f,rev?*%
%TF.SameCoordinates,Original*%
%TF.FileFunction,Legend,Top*%
%TF.FilePolarity,Positive*%
%FSLAX46Y46*%
G04 Gerber Fmt 4.6, Leading zero omitted, Abs format (unit mm)*
G04 Created by KiCad (PCBNEW (5.1.8)-1) date 2021-01-29 20:36:51*
%MOMM*%
%LPD*%
G01*
G04 APERTURE LIST*
%ADD10C,0.250000*%
%ADD11C,0.300000*%
%ADD12C,0.150000*%
%ADD13C,0.120000*%
%ADD14C,0.100000*%
%ADD15C,0.254000*%
G04 APERTURE END LIST*
D10*
X108355285Y-93146571D02*
X108021952Y-93146571D01*
X108021952Y-93670380D02*
X108021952Y-92670380D01*
X108498142Y-92670380D01*
X109307666Y-93003714D02*
X109307666Y-93670380D01*
X108879095Y-93003714D02*
X108879095Y-93527523D01*
X108926714Y-93622761D01*
X109021952Y-93670380D01*
X109164809Y-93670380D01*
X109260047Y-93622761D01*
X109307666Y-93575142D01*
X110212428Y-93622761D02*
X110117190Y-93670380D01*
X109926714Y-93670380D01*
X109831476Y-93622761D01*
X109783857Y-93575142D01*
X109736238Y-93479904D01*
X109736238Y-93194190D01*
X109783857Y-93098952D01*
X109831476Y-93051333D01*
X109926714Y-93003714D01*
X110117190Y-93003714D01*
X110212428Y-93051333D01*
X110641000Y-93670380D02*
X110641000Y-92670380D01*
X110736238Y-93289428D02*
X111021952Y-93670380D01*
X111021952Y-93003714D02*
X110641000Y-93384666D01*
X112069571Y-92670380D02*
X112641000Y-92670380D01*
X112355285Y-93670380D02*
X112355285Y-92670380D01*
X112974333Y-93670380D02*
X112974333Y-93003714D01*
X112974333Y-93194190D02*
X113021952Y-93098952D01*
X113069571Y-93051333D01*
X113164809Y-93003714D01*
X113260047Y-93003714D01*
X114021952Y-93003714D02*
X114021952Y-93670380D01*
X113593380Y-93003714D02*
X113593380Y-93527523D01*
X113641000Y-93622761D01*
X113736238Y-93670380D01*
X113879095Y-93670380D01*
X113974333Y-93622761D01*
X114021952Y-93575142D01*
X114498142Y-93670380D02*
X114498142Y-93003714D01*
X114498142Y-93098952D02*
X114545761Y-93051333D01*
X114641000Y-93003714D01*
X114783857Y-93003714D01*
X114879095Y-93051333D01*
X114926714Y-93146571D01*
X114926714Y-93670380D01*
X114926714Y-93146571D02*
X114974333Y-93051333D01*
X115069571Y-93003714D01*
X115212428Y-93003714D01*
X115307666Y-93051333D01*
X115355285Y-93146571D01*
X115355285Y-93670380D01*
X115831476Y-93003714D02*
X115831476Y-94003714D01*
X115831476Y-93051333D02*
X115926714Y-93003714D01*
X116117190Y-93003714D01*
X116212428Y-93051333D01*
X116260047Y-93098952D01*
X116307666Y-93194190D01*
X116307666Y-93479904D01*
X116260047Y-93575142D01*
X116212428Y-93622761D01*
X116117190Y-93670380D01*
X115926714Y-93670380D01*
X115831476Y-93622761D01*
D11*
X125122714Y-97809714D02*
X125194142Y-97881142D01*
X125265571Y-98095428D01*
X125265571Y-98238285D01*
X125194142Y-98452571D01*
X125051285Y-98595428D01*
X124908428Y-98666857D01*
X124622714Y-98738285D01*
X124408428Y-98738285D01*
X124122714Y-98666857D01*
X123979857Y-98595428D01*
X123837000Y-98452571D01*
X123765571Y-98238285D01*
X123765571Y-98095428D01*
X123837000Y-97881142D01*
X123908428Y-97809714D01*
X125265571Y-97166857D02*
X123765571Y-97166857D01*
X124479857Y-97166857D02*
X124479857Y-96309714D01*
X125265571Y-96309714D02*
X123765571Y-96309714D01*
X123908428Y-95666857D02*
X123837000Y-95595428D01*
X123765571Y-95452571D01*
X123765571Y-95095428D01*
X123837000Y-94952571D01*
X123908428Y-94881142D01*
X124051285Y-94809714D01*
X124194142Y-94809714D01*
X124408428Y-94881142D01*
X125265571Y-95738285D01*
X125265571Y-94809714D01*
X124995714Y-107080714D02*
X125067142Y-107152142D01*
X125138571Y-107366428D01*
X125138571Y-107509285D01*
X125067142Y-107723571D01*
X124924285Y-107866428D01*
X124781428Y-107937857D01*
X124495714Y-108009285D01*
X124281428Y-108009285D01*
X123995714Y-107937857D01*
X123852857Y-107866428D01*
X123710000Y-107723571D01*
X123638571Y-107509285D01*
X123638571Y-107366428D01*
X123710000Y-107152142D01*
X123781428Y-107080714D01*
X125138571Y-106437857D02*
X123638571Y-106437857D01*
X124352857Y-106437857D02*
X124352857Y-105580714D01*
X125138571Y-105580714D02*
X123638571Y-105580714D01*
X125138571Y-104080714D02*
X125138571Y-104937857D01*
X125138571Y-104509285D02*
X123638571Y-104509285D01*
X123852857Y-104652142D01*
X123995714Y-104795000D01*
X124067142Y-104937857D01*
X124741714Y-75203714D02*
X124813142Y-75275142D01*
X124884571Y-75489428D01*
X124884571Y-75632285D01*
X124813142Y-75846571D01*
X124670285Y-75989428D01*
X124527428Y-76060857D01*
X124241714Y-76132285D01*
X124027428Y-76132285D01*
X123741714Y-76060857D01*
X123598857Y-75989428D01*
X123456000Y-75846571D01*
X123384571Y-75632285D01*
X123384571Y-75489428D01*
X123456000Y-75275142D01*
X123527428Y-75203714D01*
X124884571Y-74560857D02*
X123384571Y-74560857D01*
X124098857Y-74560857D02*
X124098857Y-73703714D01*
X124884571Y-73703714D02*
X123384571Y-73703714D01*
X123527428Y-73060857D02*
X123456000Y-72989428D01*
X123384571Y-72846571D01*
X123384571Y-72489428D01*
X123456000Y-72346571D01*
X123527428Y-72275142D01*
X123670285Y-72203714D01*
X123813142Y-72203714D01*
X124027428Y-72275142D01*
X124884571Y-73132285D01*
X124884571Y-72203714D01*
X124741714Y-87395714D02*
X124813142Y-87467142D01*
X124884571Y-87681428D01*
X124884571Y-87824285D01*
X124813142Y-88038571D01*
X124670285Y-88181428D01*
X124527428Y-88252857D01*
X124241714Y-88324285D01*
X124027428Y-88324285D01*
X123741714Y-88252857D01*
X123598857Y-88181428D01*
X123456000Y-88038571D01*
X123384571Y-87824285D01*
X123384571Y-87681428D01*
X123456000Y-87467142D01*
X123527428Y-87395714D01*
X124884571Y-86752857D02*
X123384571Y-86752857D01*
X124098857Y-86752857D02*
X124098857Y-85895714D01*
X124884571Y-85895714D02*
X123384571Y-85895714D01*
X124884571Y-84395714D02*
X124884571Y-85252857D01*
X124884571Y-84824285D02*
X123384571Y-84824285D01*
X123598857Y-84967142D01*
X123741714Y-85110000D01*
X123813142Y-85252857D01*
D12*
%TO.C,U1*%
X83058000Y-134493000D02*
X83058000Y-126873000D01*
X124188000Y-128563000D02*
X124188000Y-117563000D01*
X131318000Y-128563000D02*
X124188000Y-128563000D01*
X124188000Y-117563000D02*
X131318000Y-117563000D01*
X82058000Y-119263000D02*
X87788000Y-119263000D01*
X87788000Y-119263000D02*
X87788000Y-126863000D01*
X87788000Y-126863000D02*
X82058000Y-126863000D01*
X82058000Y-126863000D02*
X82058000Y-119263000D01*
X130048000Y-135763000D02*
X84328000Y-135763000D01*
X130048000Y-109728000D02*
X84328000Y-109728000D01*
X83058000Y-119253000D02*
X83058000Y-110998000D01*
X87394051Y-133223000D02*
G75*
G03*
X87394051Y-133223000I-1796051J0D01*
G01*
X87394051Y-112268000D02*
G75*
G03*
X87394051Y-112268000I-1796051J0D01*
G01*
X130574051Y-112268000D02*
G75*
G03*
X130574051Y-112268000I-1796051J0D01*
G01*
X130574051Y-133223000D02*
G75*
G03*
X130574051Y-133223000I-1796051J0D01*
G01*
X131318000Y-134493000D02*
X131318000Y-110363000D01*
X131318000Y-110998000D02*
G75*
G03*
X130048000Y-109728000I-1270000J0D01*
G01*
X130048000Y-135763000D02*
G75*
G03*
X131318000Y-134493000I0J1270000D01*
G01*
X83058000Y-134493000D02*
G75*
G03*
X84328000Y-135763000I1270000J0D01*
G01*
X84328000Y-109728000D02*
G75*
G03*
X83058000Y-110998000I0J-1270000D01*
G01*
D13*
%TO.C,D1*%
X108910000Y-99986000D02*
X108910000Y-103076000D01*
X113970000Y-101531000D02*
G75*
G03*
X113970000Y-101531000I-2500000J0D01*
G01*
X114460000Y-101530538D02*
G75*
G02*
X108910000Y-103075830I-2990000J-462D01*
G01*
X114460000Y-101531462D02*
G75*
G03*
X108910000Y-99986170I-2990000J462D01*
G01*
%TO.C,D2*%
X122896000Y-101531000D02*
G75*
G03*
X122896000Y-101531000I-2500000J0D01*
G01*
X117836000Y-99986000D02*
X117836000Y-103076000D01*
X123386000Y-101531462D02*
G75*
G03*
X117836000Y-99986170I-2990000J462D01*
G01*
X123386000Y-101530538D02*
G75*
G02*
X117836000Y-103075830I-2990000J-462D01*
G01*
%TO.C,D3*%
X98117000Y-67765000D02*
X95177000Y-67765000D01*
X95177000Y-67765000D02*
X95177000Y-73205000D01*
X95177000Y-73205000D02*
X98117000Y-73205000D01*
X98117000Y-73205000D02*
X98117000Y-67765000D01*
X96647000Y-66745000D02*
X96647000Y-67765000D01*
X96647000Y-74225000D02*
X96647000Y-73205000D01*
X98117000Y-68665000D02*
X95177000Y-68665000D01*
X98117000Y-68785000D02*
X95177000Y-68785000D01*
X98117000Y-68545000D02*
X95177000Y-68545000D01*
%TO.C,D4*%
X97990000Y-82388000D02*
X95050000Y-82388000D01*
X97990000Y-82628000D02*
X95050000Y-82628000D01*
X97990000Y-82508000D02*
X95050000Y-82508000D01*
X96520000Y-88068000D02*
X96520000Y-87048000D01*
X96520000Y-80588000D02*
X96520000Y-81608000D01*
X97990000Y-87048000D02*
X97990000Y-81608000D01*
X95050000Y-87048000D02*
X97990000Y-87048000D01*
X95050000Y-81608000D02*
X95050000Y-87048000D01*
X97990000Y-81608000D02*
X95050000Y-81608000D01*
%TO.C,K1*%
X116459000Y-83185000D02*
G75*
G03*
X116459000Y-83185000I-127000J0D01*
G01*
X101317000Y-77685000D02*
X122457000Y-77685000D01*
X101317000Y-88685000D02*
X101317000Y-77685000D01*
X122457000Y-88685000D02*
X122457000Y-77685000D01*
X101317000Y-88685000D02*
X122457000Y-88685000D01*
X106047000Y-84705000D02*
X105537000Y-84705000D01*
X106047000Y-82165000D02*
X106047000Y-84705000D01*
X105537000Y-82165000D02*
X106047000Y-82165000D01*
X105027000Y-82165000D02*
X105537000Y-82165000D01*
X105027000Y-84705000D02*
X105027000Y-82165000D01*
X105537000Y-84705000D02*
X105027000Y-84705000D01*
X104267000Y-86995000D02*
X105537000Y-86995000D01*
X105537000Y-86995000D02*
X105537000Y-84705000D01*
X105537000Y-82165000D02*
X105537000Y-79375000D01*
X105537000Y-79375000D02*
X104267000Y-79375000D01*
X105027000Y-83945000D02*
X106047000Y-82935000D01*
X113157000Y-83185000D02*
X116332000Y-83185000D01*
X113157000Y-85725000D02*
X113157000Y-83185000D01*
X118237000Y-80645000D02*
X118237000Y-81915000D01*
X116332000Y-83185000D02*
X120142000Y-80645000D01*
X120777000Y-85725000D02*
X120777000Y-83185000D01*
%TO.C,K2*%
X120777000Y-73279000D02*
X120777000Y-70739000D01*
X116332000Y-70739000D02*
X120142000Y-68199000D01*
X118237000Y-68199000D02*
X118237000Y-69469000D01*
X113157000Y-73279000D02*
X113157000Y-70739000D01*
X113157000Y-70739000D02*
X116332000Y-70739000D01*
X105027000Y-71499000D02*
X106047000Y-70489000D01*
X105537000Y-66929000D02*
X104267000Y-66929000D01*
X105537000Y-69719000D02*
X105537000Y-66929000D01*
X105537000Y-74549000D02*
X105537000Y-72259000D01*
X104267000Y-74549000D02*
X105537000Y-74549000D01*
X105537000Y-72259000D02*
X105027000Y-72259000D01*
X105027000Y-72259000D02*
X105027000Y-69719000D01*
X105027000Y-69719000D02*
X105537000Y-69719000D01*
X105537000Y-69719000D02*
X106047000Y-69719000D01*
X106047000Y-69719000D02*
X106047000Y-72259000D01*
X106047000Y-72259000D02*
X105537000Y-72259000D01*
X101317000Y-76239000D02*
X122457000Y-76239000D01*
X122457000Y-76239000D02*
X122457000Y-65239000D01*
X101317000Y-76239000D02*
X101317000Y-65239000D01*
X101317000Y-65239000D02*
X122457000Y-65239000D01*
X116459000Y-70739000D02*
G75*
G03*
X116459000Y-70739000I-127000J0D01*
G01*
%TO.C,Q1*%
X101622000Y-92765000D02*
X98022000Y-92765000D01*
X101660478Y-92776522D02*
G75*
G02*
X99822000Y-97215000I-1838478J-1838478D01*
G01*
X97983522Y-92776522D02*
G75*
G03*
X99822000Y-97215000I1838478J-1838478D01*
G01*
%TO.C,Q2*%
X94764000Y-92765000D02*
X91164000Y-92765000D01*
X91125522Y-92776522D02*
G75*
G03*
X92964000Y-97215000I1838478J-1838478D01*
G01*
X94802478Y-92776522D02*
G75*
G02*
X92964000Y-97215000I-1838478J-1838478D01*
G01*
%TO.C,R1*%
X91709000Y-66325000D02*
X87869000Y-66325000D01*
X91709000Y-64485000D02*
X87869000Y-64485000D01*
%TO.C,R2*%
X91455000Y-77947000D02*
X87615000Y-77947000D01*
X91455000Y-79787000D02*
X87615000Y-79787000D01*
%TO.C,R3*%
X100869000Y-100950000D02*
X100869000Y-104790000D01*
X99029000Y-100950000D02*
X99029000Y-104790000D01*
%TO.C,R4*%
X91917000Y-100950000D02*
X91917000Y-104790000D01*
X93757000Y-100950000D02*
X93757000Y-104790000D01*
%TO.C,U2*%
X92008000Y-74913000D02*
X92008000Y-73263000D01*
X86808000Y-74913000D02*
X92008000Y-74913000D01*
X86808000Y-69613000D02*
X86808000Y-74913000D01*
X92008000Y-69613000D02*
X86808000Y-69613000D01*
X92008000Y-71263000D02*
X92008000Y-69613000D01*
X92008000Y-73263000D02*
G75*
G02*
X92008000Y-71263000I0J1000000D01*
G01*
%TO.C,U3*%
X91500000Y-84725000D02*
X91500000Y-83075000D01*
X91500000Y-83075000D02*
X86300000Y-83075000D01*
X86300000Y-83075000D02*
X86300000Y-88375000D01*
X86300000Y-88375000D02*
X91500000Y-88375000D01*
X91500000Y-88375000D02*
X91500000Y-86725000D01*
X91500000Y-86725000D02*
G75*
G02*
X91500000Y-84725000I0J1000000D01*
G01*
D14*
%TO.C,J1*%
X132732000Y-77629000D02*
X125432000Y-77629000D01*
X132732000Y-88629000D02*
X132732000Y-77629000D01*
X125432000Y-88629000D02*
X132732000Y-88629000D01*
X125432000Y-77629000D02*
X125432000Y-88629000D01*
%TO.C,J2*%
X125432000Y-65437000D02*
X125432000Y-76437000D01*
X125432000Y-76437000D02*
X132732000Y-76437000D01*
X132732000Y-76437000D02*
X132732000Y-65437000D01*
X132732000Y-65437000D02*
X125432000Y-65437000D01*
D13*
%TO.C,J3*%
X125549000Y-99740000D02*
X125549000Y-100140000D01*
X126189000Y-99740000D02*
X125549000Y-99740000D01*
X132529000Y-108300000D02*
X125789000Y-108300000D01*
X132529000Y-99980000D02*
X125789000Y-99980000D01*
X125789000Y-99980000D02*
X125789000Y-108300000D01*
X132529000Y-99980000D02*
X132529000Y-108300000D01*
X131409000Y-99980000D02*
X131409000Y-108300000D01*
X126309000Y-99980000D02*
X126309000Y-108300000D01*
%TO.C,J4*%
X126309000Y-90582000D02*
X126309000Y-98902000D01*
X131409000Y-90582000D02*
X131409000Y-98902000D01*
X132529000Y-90582000D02*
X132529000Y-98902000D01*
X125789000Y-90582000D02*
X125789000Y-98902000D01*
X132529000Y-90582000D02*
X125789000Y-90582000D01*
X132529000Y-98902000D02*
X125789000Y-98902000D01*
X126189000Y-90342000D02*
X125549000Y-90342000D01*
X125549000Y-90342000D02*
X125549000Y-90742000D01*
%TO.C,U1*%
D12*
X106640380Y-124459904D02*
X107449904Y-124459904D01*
X107545142Y-124412285D01*
X107592761Y-124364666D01*
X107640380Y-124269428D01*
X107640380Y-124078952D01*
X107592761Y-123983714D01*
X107545142Y-123936095D01*
X107449904Y-123888476D01*
X106640380Y-123888476D01*
X107640380Y-122888476D02*
X107640380Y-123459904D01*
X107640380Y-123174190D02*
X106640380Y-123174190D01*
X106783238Y-123269428D01*
X106878476Y-123364666D01*
X106926095Y-123459904D01*
X83780380Y-124324904D02*
X84589904Y-124324904D01*
X84685142Y-124277285D01*
X84732761Y-124229666D01*
X84780380Y-124134428D01*
X84780380Y-123943952D01*
X84732761Y-123848714D01*
X84685142Y-123801095D01*
X84589904Y-123753476D01*
X83780380Y-123753476D01*
X84732761Y-123324904D02*
X84780380Y-123182047D01*
X84780380Y-122943952D01*
X84732761Y-122848714D01*
X84685142Y-122801095D01*
X84589904Y-122753476D01*
X84494666Y-122753476D01*
X84399428Y-122801095D01*
X84351809Y-122848714D01*
X84304190Y-122943952D01*
X84256571Y-123134428D01*
X84208952Y-123229666D01*
X84161333Y-123277285D01*
X84066095Y-123324904D01*
X83970857Y-123324904D01*
X83875619Y-123277285D01*
X83828000Y-123229666D01*
X83780380Y-123134428D01*
X83780380Y-122896333D01*
X83828000Y-122753476D01*
X84256571Y-121991571D02*
X84304190Y-121848714D01*
X84351809Y-121801095D01*
X84447047Y-121753476D01*
X84589904Y-121753476D01*
X84685142Y-121801095D01*
X84732761Y-121848714D01*
X84780380Y-121943952D01*
X84780380Y-122324904D01*
X83780380Y-122324904D01*
X83780380Y-121991571D01*
X83828000Y-121896333D01*
X83875619Y-121848714D01*
X83970857Y-121801095D01*
X84066095Y-121801095D01*
X84161333Y-121848714D01*
X84208952Y-121896333D01*
X84256571Y-121991571D01*
X84256571Y-122324904D01*
X127960380Y-126515380D02*
X127484190Y-126848714D01*
X127960380Y-127086809D02*
X126960380Y-127086809D01*
X126960380Y-126705857D01*
X127008000Y-126610619D01*
X127055619Y-126563000D01*
X127150857Y-126515380D01*
X127293714Y-126515380D01*
X127388952Y-126563000D01*
X127436571Y-126610619D01*
X127484190Y-126705857D01*
X127484190Y-127086809D01*
X127436571Y-125753476D02*
X127436571Y-126086809D01*
X127960380Y-126086809D02*
X126960380Y-126086809D01*
X126960380Y-125610619D01*
X127674666Y-124515380D02*
X127674666Y-124039190D01*
X127960380Y-124610619D02*
X126960380Y-124277285D01*
X127960380Y-123943952D01*
X127293714Y-123610619D02*
X127960380Y-123610619D01*
X127388952Y-123610619D02*
X127341333Y-123563000D01*
X127293714Y-123467761D01*
X127293714Y-123324904D01*
X127341333Y-123229666D01*
X127436571Y-123182047D01*
X127960380Y-123182047D01*
X127293714Y-122848714D02*
X127293714Y-122467761D01*
X126960380Y-122705857D02*
X127817523Y-122705857D01*
X127912761Y-122658238D01*
X127960380Y-122563000D01*
X127960380Y-122467761D01*
X127912761Y-121753476D02*
X127960380Y-121848714D01*
X127960380Y-122039190D01*
X127912761Y-122134428D01*
X127817523Y-122182047D01*
X127436571Y-122182047D01*
X127341333Y-122134428D01*
X127293714Y-122039190D01*
X127293714Y-121848714D01*
X127341333Y-121753476D01*
X127436571Y-121705857D01*
X127531809Y-121705857D01*
X127627047Y-122182047D01*
X127293714Y-121277285D02*
X127960380Y-121277285D01*
X127388952Y-121277285D02*
X127341333Y-121229666D01*
X127293714Y-121134428D01*
X127293714Y-120991571D01*
X127341333Y-120896333D01*
X127436571Y-120848714D01*
X127960380Y-120848714D01*
X127293714Y-120372523D02*
X127960380Y-120372523D01*
X127388952Y-120372523D02*
X127341333Y-120324904D01*
X127293714Y-120229666D01*
X127293714Y-120086809D01*
X127341333Y-119991571D01*
X127436571Y-119943952D01*
X127960380Y-119943952D01*
X127960380Y-119039190D02*
X127436571Y-119039190D01*
X127341333Y-119086809D01*
X127293714Y-119182047D01*
X127293714Y-119372523D01*
X127341333Y-119467761D01*
X127912761Y-119039190D02*
X127960380Y-119134428D01*
X127960380Y-119372523D01*
X127912761Y-119467761D01*
X127817523Y-119515380D01*
X127722285Y-119515380D01*
X127627047Y-119467761D01*
X127579428Y-119372523D01*
X127579428Y-119134428D01*
X127531809Y-119039190D01*
X88860380Y-114633238D02*
X89860380Y-114299904D01*
X88860380Y-113966571D01*
X89860380Y-113633238D02*
X88860380Y-113633238D01*
X89860380Y-113157047D02*
X88860380Y-113157047D01*
X89860380Y-112585619D01*
X88860380Y-112585619D01*
X91448000Y-113276095D02*
X91400380Y-113371333D01*
X91400380Y-113514190D01*
X91448000Y-113657047D01*
X91543238Y-113752285D01*
X91638476Y-113799904D01*
X91828952Y-113847523D01*
X91971809Y-113847523D01*
X92162285Y-113799904D01*
X92257523Y-113752285D01*
X92352761Y-113657047D01*
X92400380Y-113514190D01*
X92400380Y-113418952D01*
X92352761Y-113276095D01*
X92305142Y-113228476D01*
X91971809Y-113228476D01*
X91971809Y-113418952D01*
X94940380Y-114085619D02*
X94464190Y-114418952D01*
X94940380Y-114657047D02*
X93940380Y-114657047D01*
X93940380Y-114276095D01*
X93988000Y-114180857D01*
X94035619Y-114133238D01*
X94130857Y-114085619D01*
X94273714Y-114085619D01*
X94368952Y-114133238D01*
X94416571Y-114180857D01*
X94464190Y-114276095D01*
X94464190Y-114657047D01*
X94892761Y-113704666D02*
X94940380Y-113561809D01*
X94940380Y-113323714D01*
X94892761Y-113228476D01*
X94845142Y-113180857D01*
X94749904Y-113133238D01*
X94654666Y-113133238D01*
X94559428Y-113180857D01*
X94511809Y-113228476D01*
X94464190Y-113323714D01*
X94416571Y-113514190D01*
X94368952Y-113609428D01*
X94321333Y-113657047D01*
X94226095Y-113704666D01*
X94130857Y-113704666D01*
X94035619Y-113657047D01*
X93988000Y-113609428D01*
X93940380Y-113514190D01*
X93940380Y-113276095D01*
X93988000Y-113133238D01*
X93940380Y-112847523D02*
X93940380Y-112276095D01*
X94940380Y-112561809D02*
X93940380Y-112561809D01*
X96956571Y-114276095D02*
X96956571Y-113942761D01*
X97480380Y-113799904D02*
X97480380Y-114276095D01*
X96480380Y-114276095D01*
X96480380Y-113799904D01*
X97480380Y-113371333D02*
X96480380Y-113371333D01*
X97480380Y-112799904D01*
X96480380Y-112799904D01*
X99020380Y-114299904D02*
X99020380Y-113680857D01*
X99401333Y-114014190D01*
X99401333Y-113871333D01*
X99448952Y-113776095D01*
X99496571Y-113728476D01*
X99591809Y-113680857D01*
X99829904Y-113680857D01*
X99925142Y-113728476D01*
X99972761Y-113776095D01*
X100020380Y-113871333D01*
X100020380Y-114157047D01*
X99972761Y-114252285D01*
X99925142Y-114299904D01*
X99020380Y-113395142D02*
X100020380Y-113061809D01*
X99020380Y-112728476D01*
X101608000Y-113276095D02*
X101560380Y-113371333D01*
X101560380Y-113514190D01*
X101608000Y-113657047D01*
X101703238Y-113752285D01*
X101798476Y-113799904D01*
X101988952Y-113847523D01*
X102131809Y-113847523D01*
X102322285Y-113799904D01*
X102417523Y-113752285D01*
X102512761Y-113657047D01*
X102560380Y-113514190D01*
X102560380Y-113418952D01*
X102512761Y-113276095D01*
X102465142Y-113228476D01*
X102131809Y-113228476D01*
X102131809Y-113418952D01*
X105052761Y-114323714D02*
X105100380Y-114180857D01*
X105100380Y-113942761D01*
X105052761Y-113847523D01*
X105005142Y-113799904D01*
X104909904Y-113752285D01*
X104814666Y-113752285D01*
X104719428Y-113799904D01*
X104671809Y-113847523D01*
X104624190Y-113942761D01*
X104576571Y-114133238D01*
X104528952Y-114228476D01*
X104481333Y-114276095D01*
X104386095Y-114323714D01*
X104290857Y-114323714D01*
X104195619Y-114276095D01*
X104148000Y-114228476D01*
X104100380Y-114133238D01*
X104100380Y-113895142D01*
X104148000Y-113752285D01*
X105100380Y-113323714D02*
X104100380Y-113323714D01*
X105100380Y-112752285D02*
X104528952Y-113180857D01*
X104100380Y-112752285D02*
X104671809Y-113323714D01*
X107592761Y-114347523D02*
X107640380Y-114204666D01*
X107640380Y-113966571D01*
X107592761Y-113871333D01*
X107545142Y-113823714D01*
X107449904Y-113776095D01*
X107354666Y-113776095D01*
X107259428Y-113823714D01*
X107211809Y-113871333D01*
X107164190Y-113966571D01*
X107116571Y-114157047D01*
X107068952Y-114252285D01*
X107021333Y-114299904D01*
X106926095Y-114347523D01*
X106830857Y-114347523D01*
X106735619Y-114299904D01*
X106688000Y-114252285D01*
X106640380Y-114157047D01*
X106640380Y-113918952D01*
X106688000Y-113776095D01*
X106640380Y-113157047D02*
X106640380Y-112966571D01*
X106688000Y-112871333D01*
X106783238Y-112776095D01*
X106973714Y-112728476D01*
X107307047Y-112728476D01*
X107497523Y-112776095D01*
X107592761Y-112871333D01*
X107640380Y-112966571D01*
X107640380Y-113157047D01*
X107592761Y-113252285D01*
X107497523Y-113347523D01*
X107307047Y-113395142D01*
X106973714Y-113395142D01*
X106783238Y-113347523D01*
X106688000Y-113252285D01*
X106640380Y-113157047D01*
X110132761Y-114323714D02*
X110180380Y-114180857D01*
X110180380Y-113942761D01*
X110132761Y-113847523D01*
X110085142Y-113799904D01*
X109989904Y-113752285D01*
X109894666Y-113752285D01*
X109799428Y-113799904D01*
X109751809Y-113847523D01*
X109704190Y-113942761D01*
X109656571Y-114133238D01*
X109608952Y-114228476D01*
X109561333Y-114276095D01*
X109466095Y-114323714D01*
X109370857Y-114323714D01*
X109275619Y-114276095D01*
X109228000Y-114228476D01*
X109180380Y-114133238D01*
X109180380Y-113895142D01*
X109228000Y-113752285D01*
X110085142Y-112752285D02*
X110132761Y-112799904D01*
X110180380Y-112942761D01*
X110180380Y-113038000D01*
X110132761Y-113180857D01*
X110037523Y-113276095D01*
X109942285Y-113323714D01*
X109751809Y-113371333D01*
X109608952Y-113371333D01*
X109418476Y-113323714D01*
X109323238Y-113276095D01*
X109228000Y-113180857D01*
X109180380Y-113038000D01*
X109180380Y-112942761D01*
X109228000Y-112799904D01*
X109275619Y-112752285D01*
X112672761Y-114299904D02*
X112720380Y-114157047D01*
X112720380Y-113918952D01*
X112672761Y-113823714D01*
X112625142Y-113776095D01*
X112529904Y-113728476D01*
X112434666Y-113728476D01*
X112339428Y-113776095D01*
X112291809Y-113823714D01*
X112244190Y-113918952D01*
X112196571Y-114109428D01*
X112148952Y-114204666D01*
X112101333Y-114252285D01*
X112006095Y-114299904D01*
X111910857Y-114299904D01*
X111815619Y-114252285D01*
X111768000Y-114204666D01*
X111720380Y-114109428D01*
X111720380Y-113871333D01*
X111768000Y-113728476D01*
X112720380Y-112776095D02*
X112720380Y-113347523D01*
X112720380Y-113061809D02*
X111720380Y-113061809D01*
X111863238Y-113157047D01*
X111958476Y-113252285D01*
X112006095Y-113347523D01*
X115212761Y-114299904D02*
X115260380Y-114157047D01*
X115260380Y-113918952D01*
X115212761Y-113823714D01*
X115165142Y-113776095D01*
X115069904Y-113728476D01*
X114974666Y-113728476D01*
X114879428Y-113776095D01*
X114831809Y-113823714D01*
X114784190Y-113918952D01*
X114736571Y-114109428D01*
X114688952Y-114204666D01*
X114641333Y-114252285D01*
X114546095Y-114299904D01*
X114450857Y-114299904D01*
X114355619Y-114252285D01*
X114308000Y-114204666D01*
X114260380Y-114109428D01*
X114260380Y-113871333D01*
X114308000Y-113728476D01*
X114355619Y-113347523D02*
X114308000Y-113299904D01*
X114260380Y-113204666D01*
X114260380Y-112966571D01*
X114308000Y-112871333D01*
X114355619Y-112823714D01*
X114450857Y-112776095D01*
X114546095Y-112776095D01*
X114688952Y-112823714D01*
X115260380Y-113395142D01*
X115260380Y-112776095D01*
X117752761Y-114299904D02*
X117800380Y-114157047D01*
X117800380Y-113918952D01*
X117752761Y-113823714D01*
X117705142Y-113776095D01*
X117609904Y-113728476D01*
X117514666Y-113728476D01*
X117419428Y-113776095D01*
X117371809Y-113823714D01*
X117324190Y-113918952D01*
X117276571Y-114109428D01*
X117228952Y-114204666D01*
X117181333Y-114252285D01*
X117086095Y-114299904D01*
X116990857Y-114299904D01*
X116895619Y-114252285D01*
X116848000Y-114204666D01*
X116800380Y-114109428D01*
X116800380Y-113871333D01*
X116848000Y-113728476D01*
X116800380Y-113395142D02*
X116800380Y-112776095D01*
X117181333Y-113109428D01*
X117181333Y-112966571D01*
X117228952Y-112871333D01*
X117276571Y-112823714D01*
X117371809Y-112776095D01*
X117609904Y-112776095D01*
X117705142Y-112823714D01*
X117752761Y-112871333D01*
X117800380Y-112966571D01*
X117800380Y-113252285D01*
X117752761Y-113347523D01*
X117705142Y-113395142D01*
X119340380Y-114395142D02*
X120340380Y-114061809D01*
X119340380Y-113728476D01*
X119340380Y-113395142D02*
X120149904Y-113395142D01*
X120245142Y-113347523D01*
X120292761Y-113299904D01*
X120340380Y-113204666D01*
X120340380Y-113014190D01*
X120292761Y-112918952D01*
X120245142Y-112871333D01*
X120149904Y-112823714D01*
X119340380Y-112823714D01*
X121928000Y-113276095D02*
X121880380Y-113371333D01*
X121880380Y-113514190D01*
X121928000Y-113657047D01*
X122023238Y-113752285D01*
X122118476Y-113799904D01*
X122308952Y-113847523D01*
X122451809Y-113847523D01*
X122642285Y-113799904D01*
X122737523Y-113752285D01*
X122832761Y-113657047D01*
X122880380Y-113514190D01*
X122880380Y-113418952D01*
X122832761Y-113276095D01*
X122785142Y-113228476D01*
X122451809Y-113228476D01*
X122451809Y-113418952D01*
X125134666Y-114252285D02*
X125134666Y-113776095D01*
X125420380Y-114347523D02*
X124420380Y-114014190D01*
X125420380Y-113680857D01*
X124420380Y-113157047D02*
X124420380Y-113061809D01*
X124468000Y-112966571D01*
X124515619Y-112918952D01*
X124610857Y-112871333D01*
X124801333Y-112823714D01*
X125039428Y-112823714D01*
X125229904Y-112871333D01*
X125325142Y-112918952D01*
X125372761Y-112966571D01*
X125420380Y-113061809D01*
X125420380Y-113157047D01*
X125372761Y-113252285D01*
X125325142Y-113299904D01*
X125229904Y-113347523D01*
X125039428Y-113395142D01*
X124801333Y-113395142D01*
X124610857Y-113347523D01*
X124515619Y-113299904D01*
X124468000Y-113252285D01*
X124420380Y-113157047D01*
X88860380Y-132714904D02*
X88860380Y-132095857D01*
X89241333Y-132429190D01*
X89241333Y-132286333D01*
X89288952Y-132191095D01*
X89336571Y-132143476D01*
X89431809Y-132095857D01*
X89669904Y-132095857D01*
X89765142Y-132143476D01*
X89812761Y-132191095D01*
X89860380Y-132286333D01*
X89860380Y-132572047D01*
X89812761Y-132667285D01*
X89765142Y-132714904D01*
X88860380Y-131810142D02*
X89860380Y-131476809D01*
X88860380Y-131143476D01*
X91448000Y-131691095D02*
X91400380Y-131786333D01*
X91400380Y-131929190D01*
X91448000Y-132072047D01*
X91543238Y-132167285D01*
X91638476Y-132214904D01*
X91828952Y-132262523D01*
X91971809Y-132262523D01*
X92162285Y-132214904D01*
X92257523Y-132167285D01*
X92352761Y-132072047D01*
X92400380Y-131929190D01*
X92400380Y-131833952D01*
X92352761Y-131691095D01*
X92305142Y-131643476D01*
X91971809Y-131643476D01*
X91971809Y-131833952D01*
X93940380Y-132714904D02*
X93940380Y-132143476D01*
X94940380Y-132429190D02*
X93940380Y-132429190D01*
X93940380Y-131905380D02*
X94940380Y-131238714D01*
X93940380Y-131238714D02*
X94940380Y-131905380D01*
X97480380Y-132119666D02*
X97004190Y-132453000D01*
X97480380Y-132691095D02*
X96480380Y-132691095D01*
X96480380Y-132310142D01*
X96528000Y-132214904D01*
X96575619Y-132167285D01*
X96670857Y-132119666D01*
X96813714Y-132119666D01*
X96908952Y-132167285D01*
X96956571Y-132214904D01*
X97004190Y-132310142D01*
X97004190Y-132691095D01*
X96480380Y-131786333D02*
X97480380Y-131119666D01*
X96480380Y-131119666D02*
X97480380Y-131786333D01*
X100020380Y-132691095D02*
X99020380Y-132691095D01*
X99020380Y-132453000D01*
X99068000Y-132310142D01*
X99163238Y-132214904D01*
X99258476Y-132167285D01*
X99448952Y-132119666D01*
X99591809Y-132119666D01*
X99782285Y-132167285D01*
X99877523Y-132214904D01*
X99972761Y-132310142D01*
X100020380Y-132453000D01*
X100020380Y-132691095D01*
X99448952Y-131548238D02*
X99401333Y-131643476D01*
X99353714Y-131691095D01*
X99258476Y-131738714D01*
X99210857Y-131738714D01*
X99115619Y-131691095D01*
X99068000Y-131643476D01*
X99020380Y-131548238D01*
X99020380Y-131357761D01*
X99068000Y-131262523D01*
X99115619Y-131214904D01*
X99210857Y-131167285D01*
X99258476Y-131167285D01*
X99353714Y-131214904D01*
X99401333Y-131262523D01*
X99448952Y-131357761D01*
X99448952Y-131548238D01*
X99496571Y-131643476D01*
X99544190Y-131691095D01*
X99639428Y-131738714D01*
X99829904Y-131738714D01*
X99925142Y-131691095D01*
X99972761Y-131643476D01*
X100020380Y-131548238D01*
X100020380Y-131357761D01*
X99972761Y-131262523D01*
X99925142Y-131214904D01*
X99829904Y-131167285D01*
X99639428Y-131167285D01*
X99544190Y-131214904D01*
X99496571Y-131262523D01*
X99448952Y-131357761D01*
X102560380Y-132691095D02*
X101560380Y-132691095D01*
X101560380Y-132453000D01*
X101608000Y-132310142D01*
X101703238Y-132214904D01*
X101798476Y-132167285D01*
X101988952Y-132119666D01*
X102131809Y-132119666D01*
X102322285Y-132167285D01*
X102417523Y-132214904D01*
X102512761Y-132310142D01*
X102560380Y-132453000D01*
X102560380Y-132691095D01*
X101560380Y-131786333D02*
X101560380Y-131119666D01*
X102560380Y-131548238D01*
X105100380Y-132691095D02*
X104100380Y-132691095D01*
X104100380Y-132453000D01*
X104148000Y-132310142D01*
X104243238Y-132214904D01*
X104338476Y-132167285D01*
X104528952Y-132119666D01*
X104671809Y-132119666D01*
X104862285Y-132167285D01*
X104957523Y-132214904D01*
X105052761Y-132310142D01*
X105100380Y-132453000D01*
X105100380Y-132691095D01*
X104100380Y-131262523D02*
X104100380Y-131453000D01*
X104148000Y-131548238D01*
X104195619Y-131595857D01*
X104338476Y-131691095D01*
X104528952Y-131738714D01*
X104909904Y-131738714D01*
X105005142Y-131691095D01*
X105052761Y-131643476D01*
X105100380Y-131548238D01*
X105100380Y-131357761D01*
X105052761Y-131262523D01*
X105005142Y-131214904D01*
X104909904Y-131167285D01*
X104671809Y-131167285D01*
X104576571Y-131214904D01*
X104528952Y-131262523D01*
X104481333Y-131357761D01*
X104481333Y-131548238D01*
X104528952Y-131643476D01*
X104576571Y-131691095D01*
X104671809Y-131738714D01*
X107640380Y-132691095D02*
X106640380Y-132691095D01*
X106640380Y-132453000D01*
X106688000Y-132310142D01*
X106783238Y-132214904D01*
X106878476Y-132167285D01*
X107068952Y-132119666D01*
X107211809Y-132119666D01*
X107402285Y-132167285D01*
X107497523Y-132214904D01*
X107592761Y-132310142D01*
X107640380Y-132453000D01*
X107640380Y-132691095D01*
X106640380Y-131214904D02*
X106640380Y-131691095D01*
X107116571Y-131738714D01*
X107068952Y-131691095D01*
X107021333Y-131595857D01*
X107021333Y-131357761D01*
X107068952Y-131262523D01*
X107116571Y-131214904D01*
X107211809Y-131167285D01*
X107449904Y-131167285D01*
X107545142Y-131214904D01*
X107592761Y-131262523D01*
X107640380Y-131357761D01*
X107640380Y-131595857D01*
X107592761Y-131691095D01*
X107545142Y-131738714D01*
X109228000Y-131691095D02*
X109180380Y-131786333D01*
X109180380Y-131929190D01*
X109228000Y-132072047D01*
X109323238Y-132167285D01*
X109418476Y-132214904D01*
X109608952Y-132262523D01*
X109751809Y-132262523D01*
X109942285Y-132214904D01*
X110037523Y-132167285D01*
X110132761Y-132072047D01*
X110180380Y-131929190D01*
X110180380Y-131833952D01*
X110132761Y-131691095D01*
X110085142Y-131643476D01*
X109751809Y-131643476D01*
X109751809Y-131833952D01*
X111720380Y-132714904D02*
X111720380Y-132095857D01*
X112101333Y-132429190D01*
X112101333Y-132286333D01*
X112148952Y-132191095D01*
X112196571Y-132143476D01*
X112291809Y-132095857D01*
X112529904Y-132095857D01*
X112625142Y-132143476D01*
X112672761Y-132191095D01*
X112720380Y-132286333D01*
X112720380Y-132572047D01*
X112672761Y-132667285D01*
X112625142Y-132714904D01*
X111720380Y-131810142D02*
X112720380Y-131476809D01*
X111720380Y-131143476D01*
X115260380Y-132691095D02*
X114260380Y-132691095D01*
X114260380Y-132453000D01*
X114308000Y-132310142D01*
X114403238Y-132214904D01*
X114498476Y-132167285D01*
X114688952Y-132119666D01*
X114831809Y-132119666D01*
X115022285Y-132167285D01*
X115117523Y-132214904D01*
X115212761Y-132310142D01*
X115260380Y-132453000D01*
X115260380Y-132691095D01*
X114593714Y-131262523D02*
X115260380Y-131262523D01*
X114212761Y-131500619D02*
X114927047Y-131738714D01*
X114927047Y-131119666D01*
X117800380Y-132691095D02*
X116800380Y-132691095D01*
X116800380Y-132453000D01*
X116848000Y-132310142D01*
X116943238Y-132214904D01*
X117038476Y-132167285D01*
X117228952Y-132119666D01*
X117371809Y-132119666D01*
X117562285Y-132167285D01*
X117657523Y-132214904D01*
X117752761Y-132310142D01*
X117800380Y-132453000D01*
X117800380Y-132691095D01*
X116800380Y-131786333D02*
X116800380Y-131167285D01*
X117181333Y-131500619D01*
X117181333Y-131357761D01*
X117228952Y-131262523D01*
X117276571Y-131214904D01*
X117371809Y-131167285D01*
X117609904Y-131167285D01*
X117705142Y-131214904D01*
X117752761Y-131262523D01*
X117800380Y-131357761D01*
X117800380Y-131643476D01*
X117752761Y-131738714D01*
X117705142Y-131786333D01*
X120340380Y-132691095D02*
X119340380Y-132691095D01*
X119340380Y-132453000D01*
X119388000Y-132310142D01*
X119483238Y-132214904D01*
X119578476Y-132167285D01*
X119768952Y-132119666D01*
X119911809Y-132119666D01*
X120102285Y-132167285D01*
X120197523Y-132214904D01*
X120292761Y-132310142D01*
X120340380Y-132453000D01*
X120340380Y-132691095D01*
X119435619Y-131738714D02*
X119388000Y-131691095D01*
X119340380Y-131595857D01*
X119340380Y-131357761D01*
X119388000Y-131262523D01*
X119435619Y-131214904D01*
X119530857Y-131167285D01*
X119626095Y-131167285D01*
X119768952Y-131214904D01*
X120340380Y-131786333D01*
X120340380Y-131167285D01*
X122880380Y-132691095D02*
X121880380Y-132691095D01*
X121880380Y-132453000D01*
X121928000Y-132310142D01*
X122023238Y-132214904D01*
X122118476Y-132167285D01*
X122308952Y-132119666D01*
X122451809Y-132119666D01*
X122642285Y-132167285D01*
X122737523Y-132214904D01*
X122832761Y-132310142D01*
X122880380Y-132453000D01*
X122880380Y-132691095D01*
X122880380Y-131167285D02*
X122880380Y-131738714D01*
X122880380Y-131453000D02*
X121880380Y-131453000D01*
X122023238Y-131548238D01*
X122118476Y-131643476D01*
X122166095Y-131738714D01*
X125420380Y-132691095D02*
X124420380Y-132691095D01*
X124420380Y-132453000D01*
X124468000Y-132310142D01*
X124563238Y-132214904D01*
X124658476Y-132167285D01*
X124848952Y-132119666D01*
X124991809Y-132119666D01*
X125182285Y-132167285D01*
X125277523Y-132214904D01*
X125372761Y-132310142D01*
X125420380Y-132453000D01*
X125420380Y-132691095D01*
X124420380Y-131500619D02*
X124420380Y-131405380D01*
X124468000Y-131310142D01*
X124515619Y-131262523D01*
X124610857Y-131214904D01*
X124801333Y-131167285D01*
X125039428Y-131167285D01*
X125229904Y-131214904D01*
X125325142Y-131262523D01*
X125372761Y-131310142D01*
X125420380Y-131405380D01*
X125420380Y-131500619D01*
X125372761Y-131595857D01*
X125325142Y-131643476D01*
X125229904Y-131691095D01*
X125039428Y-131738714D01*
X124801333Y-131738714D01*
X124610857Y-131691095D01*
X124515619Y-131643476D01*
X124468000Y-131595857D01*
X124420380Y-131500619D01*
%TO.C,D1*%
X110731904Y-98023380D02*
X110731904Y-97023380D01*
X110970000Y-97023380D01*
X111112857Y-97071000D01*
X111208095Y-97166238D01*
X111255714Y-97261476D01*
X111303333Y-97451952D01*
X111303333Y-97594809D01*
X111255714Y-97785285D01*
X111208095Y-97880523D01*
X111112857Y-97975761D01*
X110970000Y-98023380D01*
X110731904Y-98023380D01*
X112255714Y-98023380D02*
X111684285Y-98023380D01*
X111970000Y-98023380D02*
X111970000Y-97023380D01*
X111874761Y-97166238D01*
X111779523Y-97261476D01*
X111684285Y-97309095D01*
%TO.C,D2*%
X119657904Y-98023380D02*
X119657904Y-97023380D01*
X119896000Y-97023380D01*
X120038857Y-97071000D01*
X120134095Y-97166238D01*
X120181714Y-97261476D01*
X120229333Y-97451952D01*
X120229333Y-97594809D01*
X120181714Y-97785285D01*
X120134095Y-97880523D01*
X120038857Y-97975761D01*
X119896000Y-98023380D01*
X119657904Y-98023380D01*
X120610285Y-97118619D02*
X120657904Y-97071000D01*
X120753142Y-97023380D01*
X120991238Y-97023380D01*
X121086476Y-97071000D01*
X121134095Y-97118619D01*
X121181714Y-97213857D01*
X121181714Y-97309095D01*
X121134095Y-97451952D01*
X120562666Y-98023380D01*
X121181714Y-98023380D01*
%TO.C,D3*%
X99569380Y-71223095D02*
X98569380Y-71223095D01*
X98569380Y-70985000D01*
X98617000Y-70842142D01*
X98712238Y-70746904D01*
X98807476Y-70699285D01*
X98997952Y-70651666D01*
X99140809Y-70651666D01*
X99331285Y-70699285D01*
X99426523Y-70746904D01*
X99521761Y-70842142D01*
X99569380Y-70985000D01*
X99569380Y-71223095D01*
X98569380Y-70318333D02*
X98569380Y-69699285D01*
X98950333Y-70032619D01*
X98950333Y-69889761D01*
X98997952Y-69794523D01*
X99045571Y-69746904D01*
X99140809Y-69699285D01*
X99378904Y-69699285D01*
X99474142Y-69746904D01*
X99521761Y-69794523D01*
X99569380Y-69889761D01*
X99569380Y-70175476D01*
X99521761Y-70270714D01*
X99474142Y-70318333D01*
X99199380Y-65666904D02*
X98199380Y-65666904D01*
X99199380Y-65095476D02*
X98627952Y-65524047D01*
X98199380Y-65095476D02*
X98770809Y-65666904D01*
%TO.C,D4*%
X99442380Y-85066095D02*
X98442380Y-85066095D01*
X98442380Y-84828000D01*
X98490000Y-84685142D01*
X98585238Y-84589904D01*
X98680476Y-84542285D01*
X98870952Y-84494666D01*
X99013809Y-84494666D01*
X99204285Y-84542285D01*
X99299523Y-84589904D01*
X99394761Y-84685142D01*
X99442380Y-84828000D01*
X99442380Y-85066095D01*
X98775714Y-83637523D02*
X99442380Y-83637523D01*
X98394761Y-83875619D02*
X99109047Y-84113714D01*
X99109047Y-83494666D01*
X99072380Y-79509904D02*
X98072380Y-79509904D01*
X99072380Y-78938476D02*
X98500952Y-79367047D01*
X98072380Y-78938476D02*
X98643809Y-79509904D01*
%TO.C,K1*%
X111758904Y-76947380D02*
X111758904Y-75947380D01*
X112330333Y-76947380D02*
X111901761Y-76375952D01*
X112330333Y-75947380D02*
X111758904Y-76518809D01*
X113282714Y-76947380D02*
X112711285Y-76947380D01*
X112997000Y-76947380D02*
X112997000Y-75947380D01*
X112901761Y-76090238D01*
X112806523Y-76185476D01*
X112711285Y-76233095D01*
%TO.C,K2*%
X111758904Y-64501380D02*
X111758904Y-63501380D01*
X112330333Y-64501380D02*
X111901761Y-63929952D01*
X112330333Y-63501380D02*
X111758904Y-64072809D01*
X112711285Y-63596619D02*
X112758904Y-63549000D01*
X112854142Y-63501380D01*
X113092238Y-63501380D01*
X113187476Y-63549000D01*
X113235095Y-63596619D01*
X113282714Y-63691857D01*
X113282714Y-63787095D01*
X113235095Y-63929952D01*
X112663666Y-64501380D01*
X113282714Y-64501380D01*
%TO.C,Q1*%
X99726761Y-98722619D02*
X99631523Y-98675000D01*
X99536285Y-98579761D01*
X99393428Y-98436904D01*
X99298190Y-98389285D01*
X99202952Y-98389285D01*
X99250571Y-98627380D02*
X99155333Y-98579761D01*
X99060095Y-98484523D01*
X99012476Y-98294047D01*
X99012476Y-97960714D01*
X99060095Y-97770238D01*
X99155333Y-97675000D01*
X99250571Y-97627380D01*
X99441047Y-97627380D01*
X99536285Y-97675000D01*
X99631523Y-97770238D01*
X99679142Y-97960714D01*
X99679142Y-98294047D01*
X99631523Y-98484523D01*
X99536285Y-98579761D01*
X99441047Y-98627380D01*
X99250571Y-98627380D01*
X100631523Y-98627380D02*
X100060095Y-98627380D01*
X100345809Y-98627380D02*
X100345809Y-97627380D01*
X100250571Y-97770238D01*
X100155333Y-97865476D01*
X100060095Y-97913095D01*
%TO.C,Q2*%
X92868761Y-98722619D02*
X92773523Y-98675000D01*
X92678285Y-98579761D01*
X92535428Y-98436904D01*
X92440190Y-98389285D01*
X92344952Y-98389285D01*
X92392571Y-98627380D02*
X92297333Y-98579761D01*
X92202095Y-98484523D01*
X92154476Y-98294047D01*
X92154476Y-97960714D01*
X92202095Y-97770238D01*
X92297333Y-97675000D01*
X92392571Y-97627380D01*
X92583047Y-97627380D01*
X92678285Y-97675000D01*
X92773523Y-97770238D01*
X92821142Y-97960714D01*
X92821142Y-98294047D01*
X92773523Y-98484523D01*
X92678285Y-98579761D01*
X92583047Y-98627380D01*
X92392571Y-98627380D01*
X93202095Y-97722619D02*
X93249714Y-97675000D01*
X93344952Y-97627380D01*
X93583047Y-97627380D01*
X93678285Y-97675000D01*
X93725904Y-97722619D01*
X93773523Y-97817857D01*
X93773523Y-97913095D01*
X93725904Y-98055952D01*
X93154476Y-98627380D01*
X93773523Y-98627380D01*
%TO.C,R1*%
X89749333Y-64079380D02*
X89416000Y-63603190D01*
X89177904Y-64079380D02*
X89177904Y-63079380D01*
X89558857Y-63079380D01*
X89654095Y-63127000D01*
X89701714Y-63174619D01*
X89749333Y-63269857D01*
X89749333Y-63412714D01*
X89701714Y-63507952D01*
X89654095Y-63555571D01*
X89558857Y-63603190D01*
X89177904Y-63603190D01*
X90701714Y-64079380D02*
X90130285Y-64079380D01*
X90416000Y-64079380D02*
X90416000Y-63079380D01*
X90320761Y-63222238D01*
X90225523Y-63317476D01*
X90130285Y-63365095D01*
%TO.C,R2*%
X89368333Y-81239380D02*
X89035000Y-80763190D01*
X88796904Y-81239380D02*
X88796904Y-80239380D01*
X89177857Y-80239380D01*
X89273095Y-80287000D01*
X89320714Y-80334619D01*
X89368333Y-80429857D01*
X89368333Y-80572714D01*
X89320714Y-80667952D01*
X89273095Y-80715571D01*
X89177857Y-80763190D01*
X88796904Y-80763190D01*
X89749285Y-80334619D02*
X89796904Y-80287000D01*
X89892142Y-80239380D01*
X90130238Y-80239380D01*
X90225476Y-80287000D01*
X90273095Y-80334619D01*
X90320714Y-80429857D01*
X90320714Y-80525095D01*
X90273095Y-80667952D01*
X89701666Y-81239380D01*
X90320714Y-81239380D01*
%TO.C,R3*%
X102321380Y-103036666D02*
X101845190Y-103370000D01*
X102321380Y-103608095D02*
X101321380Y-103608095D01*
X101321380Y-103227142D01*
X101369000Y-103131904D01*
X101416619Y-103084285D01*
X101511857Y-103036666D01*
X101654714Y-103036666D01*
X101749952Y-103084285D01*
X101797571Y-103131904D01*
X101845190Y-103227142D01*
X101845190Y-103608095D01*
X101321380Y-102703333D02*
X101321380Y-102084285D01*
X101702333Y-102417619D01*
X101702333Y-102274761D01*
X101749952Y-102179523D01*
X101797571Y-102131904D01*
X101892809Y-102084285D01*
X102130904Y-102084285D01*
X102226142Y-102131904D01*
X102273761Y-102179523D01*
X102321380Y-102274761D01*
X102321380Y-102560476D01*
X102273761Y-102655714D01*
X102226142Y-102703333D01*
%TO.C,R4*%
X95209380Y-103036666D02*
X94733190Y-103370000D01*
X95209380Y-103608095D02*
X94209380Y-103608095D01*
X94209380Y-103227142D01*
X94257000Y-103131904D01*
X94304619Y-103084285D01*
X94399857Y-103036666D01*
X94542714Y-103036666D01*
X94637952Y-103084285D01*
X94685571Y-103131904D01*
X94733190Y-103227142D01*
X94733190Y-103608095D01*
X94542714Y-102179523D02*
X95209380Y-102179523D01*
X94161761Y-102417619D02*
X94876047Y-102655714D01*
X94876047Y-102036666D01*
%TO.C,U2*%
X92460380Y-73024904D02*
X93269904Y-73024904D01*
X93365142Y-72977285D01*
X93412761Y-72929666D01*
X93460380Y-72834428D01*
X93460380Y-72643952D01*
X93412761Y-72548714D01*
X93365142Y-72501095D01*
X93269904Y-72453476D01*
X92460380Y-72453476D01*
X92555619Y-72024904D02*
X92508000Y-71977285D01*
X92460380Y-71882047D01*
X92460380Y-71643952D01*
X92508000Y-71548714D01*
X92555619Y-71501095D01*
X92650857Y-71453476D01*
X92746095Y-71453476D01*
X92888952Y-71501095D01*
X93460380Y-72072523D01*
X93460380Y-71453476D01*
%TO.C,U3*%
X91952380Y-86486904D02*
X92761904Y-86486904D01*
X92857142Y-86439285D01*
X92904761Y-86391666D01*
X92952380Y-86296428D01*
X92952380Y-86105952D01*
X92904761Y-86010714D01*
X92857142Y-85963095D01*
X92761904Y-85915476D01*
X91952380Y-85915476D01*
X91952380Y-85534523D02*
X91952380Y-84915476D01*
X92333333Y-85248809D01*
X92333333Y-85105952D01*
X92380952Y-85010714D01*
X92428571Y-84963095D01*
X92523809Y-84915476D01*
X92761904Y-84915476D01*
X92857142Y-84963095D01*
X92904761Y-85010714D01*
X92952380Y-85105952D01*
X92952380Y-85391666D01*
X92904761Y-85486904D01*
X92857142Y-85534523D01*
%TO.C,J1*%
D15*
X123510523Y-79544333D02*
X124417666Y-79544333D01*
X124599095Y-79604809D01*
X124720047Y-79725761D01*
X124780523Y-79907190D01*
X124780523Y-80028142D01*
X124780523Y-78274333D02*
X124780523Y-79000047D01*
X124780523Y-78637190D02*
X123510523Y-78637190D01*
X123691952Y-78758142D01*
X123812904Y-78879095D01*
X123873380Y-79000047D01*
%TO.C,J2*%
X123637523Y-67098333D02*
X124544666Y-67098333D01*
X124726095Y-67158809D01*
X124847047Y-67279761D01*
X124907523Y-67461190D01*
X124907523Y-67582142D01*
X123758476Y-66554047D02*
X123698000Y-66493571D01*
X123637523Y-66372619D01*
X123637523Y-66070238D01*
X123698000Y-65949285D01*
X123758476Y-65888809D01*
X123879428Y-65828333D01*
X124000380Y-65828333D01*
X124181809Y-65888809D01*
X124907523Y-66614523D01*
X124907523Y-65828333D01*
%TO.C,J3*%
D12*
X124293380Y-101298333D02*
X125007666Y-101298333D01*
X125150523Y-101345952D01*
X125245761Y-101441190D01*
X125293380Y-101584047D01*
X125293380Y-101679285D01*
X124293380Y-100917380D02*
X124293380Y-100298333D01*
X124674333Y-100631666D01*
X124674333Y-100488809D01*
X124721952Y-100393571D01*
X124769571Y-100345952D01*
X124864809Y-100298333D01*
X125102904Y-100298333D01*
X125198142Y-100345952D01*
X125245761Y-100393571D01*
X125293380Y-100488809D01*
X125293380Y-100774523D01*
X125245761Y-100869761D01*
X125198142Y-100917380D01*
%TO.C,J4*%
X124420380Y-91900333D02*
X125134666Y-91900333D01*
X125277523Y-91947952D01*
X125372761Y-92043190D01*
X125420380Y-92186047D01*
X125420380Y-92281285D01*
X124753714Y-90995571D02*
X125420380Y-90995571D01*
X124372761Y-91233666D02*
X125087047Y-91471761D01*
X125087047Y-90852714D01*
%TD*%
M02*
