M48
; DRILL file {KiCad (5.1.10)-1} date 06/25/21 14:15:53
; FORMAT={-:-/ absolute / inch / decimal}
; #@! TF.CreationDate,2021-06-25T14:15:53-05:00
; #@! TF.GenerationSoftware,Kicad,Pcbnew,(5.1.10)-1
; #@! TF.FileFunction,Plated,1,2,PTH
FMAT,2
INCH
T1C0.0276
T2C0.0295
T3C0.0300
T4C0.0315
T5C0.0354
T6C0.0433
T7C0.0512
%
G90
G05
T1
X3.425Y-3.105
X3.435Y-2.575
X3.625Y-3.105
X3.635Y-2.575
X3.655Y-3.95
X3.655Y-4.15
X3.935Y-3.95
X3.935Y-4.15
T2
X3.61Y-3.725
X3.66Y-3.725
X3.71Y-3.725
X3.88Y-3.725
X3.93Y-3.725
X3.98Y-3.725
T3
X3.52Y-4.37
X3.52Y-5.295
X3.62Y-4.37
X3.62Y-5.295
X3.72Y-4.37
X3.72Y-5.295
X3.82Y-4.37
X3.82Y-5.295
X3.92Y-4.37
X3.92Y-5.295
X4.02Y-4.37
X4.02Y-5.295
X4.12Y-4.37
X4.12Y-5.295
X4.22Y-4.37
X4.22Y-5.295
X4.32Y-4.37
X4.32Y-5.295
X4.42Y-4.37
X4.42Y-5.295
X4.52Y-4.37
X4.52Y-5.295
X4.62Y-4.37
X4.62Y-5.295
X4.72Y-4.37
X4.72Y-5.295
X4.82Y-4.37
X4.82Y-5.295
X4.92Y-4.37
X4.92Y-5.295
T4
X3.45Y-3.225
X3.45Y-3.525
X3.47Y-2.695
X3.47Y-2.995
X3.55Y-3.225
X3.55Y-3.525
X3.57Y-2.695
X3.57Y-2.995
T5
X4.3386Y-3.9973
X4.4386Y-3.9973
X4.69Y-3.9973
X4.79Y-3.9973
T6
X3.8Y-3.12
X3.8Y-3.52
X3.805Y-2.575
X3.805Y-2.975
X5.08Y-2.655
X5.08Y-2.7928
X5.08Y-2.9306
X5.08Y-3.135
X5.08Y-3.2728
X5.08Y-3.4106
X5.085Y-3.63
X5.085Y-3.73
X5.085Y-3.83
X5.085Y-4.0
X5.085Y-4.1
X5.085Y-4.2
T7
X4.055Y-2.635
X4.055Y-2.935
X4.055Y-3.125
X4.055Y-3.425
X4.455Y-2.935
X4.455Y-3.425
X4.655Y-2.635
X4.655Y-3.125
X4.755Y-2.935
X4.755Y-3.425
T0
M30
