%TF.GenerationSoftware,KiCad,Pcbnew,(5.1.10)-1*%
%TF.CreationDate,2021-06-25T14:15:48-05:00*%
%TF.ProjectId,ESPRelay,45535052-656c-4617-992e-6b696361645f,rev?*%
%TF.SameCoordinates,Original*%
%TF.FileFunction,Legend,Bot*%
%TF.FilePolarity,Positive*%
%FSLAX46Y46*%
G04 Gerber Fmt 4.6, Leading zero omitted, Abs format (unit mm)*
G04 Created by KiCad (PCBNEW (5.1.10)-1) date 2021-06-25 14:15:48*
%MOMM*%
%LPD*%
G01*
G04 APERTURE LIST*
%ADD10C,0.250000*%
%ADD11C,0.300000*%
G04 APERTURE END LIST*
D10*
X129457857Y-129833666D02*
X128981666Y-129833666D01*
X129553095Y-130119380D02*
X129219761Y-129119380D01*
X128886428Y-130119380D01*
X128553095Y-129452714D02*
X128553095Y-130119380D01*
X128553095Y-129547952D02*
X128505476Y-129500333D01*
X128410238Y-129452714D01*
X128267380Y-129452714D01*
X128172142Y-129500333D01*
X128124523Y-129595571D01*
X128124523Y-130119380D01*
X127505476Y-130119380D02*
X127600714Y-130071761D01*
X127648333Y-130024142D01*
X127695952Y-129928904D01*
X127695952Y-129643190D01*
X127648333Y-129547952D01*
X127600714Y-129500333D01*
X127505476Y-129452714D01*
X127362619Y-129452714D01*
X127267380Y-129500333D01*
X127219761Y-129547952D01*
X127172142Y-129643190D01*
X127172142Y-129928904D01*
X127219761Y-130024142D01*
X127267380Y-130071761D01*
X127362619Y-130119380D01*
X127505476Y-130119380D01*
X126886428Y-129452714D02*
X126505476Y-129452714D01*
X126743571Y-129119380D02*
X126743571Y-129976523D01*
X126695952Y-130071761D01*
X126600714Y-130119380D01*
X126505476Y-130119380D01*
X126172142Y-130119380D02*
X126172142Y-129119380D01*
X125743571Y-130119380D02*
X125743571Y-129595571D01*
X125791190Y-129500333D01*
X125886428Y-129452714D01*
X126029285Y-129452714D01*
X126124523Y-129500333D01*
X126172142Y-129547952D01*
X124886428Y-130071761D02*
X124981666Y-130119380D01*
X125172142Y-130119380D01*
X125267380Y-130071761D01*
X125314999Y-129976523D01*
X125314999Y-129595571D01*
X125267380Y-129500333D01*
X125172142Y-129452714D01*
X124981666Y-129452714D01*
X124886428Y-129500333D01*
X124838809Y-129595571D01*
X124838809Y-129690809D01*
X125314999Y-129786047D01*
X124410238Y-130119380D02*
X124410238Y-129452714D01*
X124410238Y-129643190D02*
X124362619Y-129547952D01*
X124314999Y-129500333D01*
X124219761Y-129452714D01*
X124124523Y-129452714D01*
X123172142Y-129452714D02*
X122791190Y-129452714D01*
X123029285Y-129119380D02*
X123029285Y-129976523D01*
X122981666Y-130071761D01*
X122886428Y-130119380D01*
X122791190Y-130119380D01*
X122076904Y-130071761D02*
X122172142Y-130119380D01*
X122362619Y-130119380D01*
X122457857Y-130071761D01*
X122505476Y-129976523D01*
X122505476Y-129595571D01*
X122457857Y-129500333D01*
X122362619Y-129452714D01*
X122172142Y-129452714D01*
X122076904Y-129500333D01*
X122029285Y-129595571D01*
X122029285Y-129690809D01*
X122505476Y-129786047D01*
X121600714Y-130119380D02*
X121600714Y-129452714D01*
X121600714Y-129643190D02*
X121553095Y-129547952D01*
X121505476Y-129500333D01*
X121410238Y-129452714D01*
X121314999Y-129452714D01*
X120981666Y-130119380D02*
X120981666Y-129452714D01*
X120981666Y-129643190D02*
X120934047Y-129547952D01*
X120886428Y-129500333D01*
X120791190Y-129452714D01*
X120695952Y-129452714D01*
X120362619Y-130119380D02*
X120362619Y-129452714D01*
X120362619Y-129119380D02*
X120410238Y-129167000D01*
X120362619Y-129214619D01*
X120314999Y-129167000D01*
X120362619Y-129119380D01*
X120362619Y-129214619D01*
X119886428Y-130119380D02*
X119886428Y-129119380D01*
X119886428Y-129500333D02*
X119791190Y-129452714D01*
X119600714Y-129452714D01*
X119505476Y-129500333D01*
X119457857Y-129547952D01*
X119410238Y-129643190D01*
X119410238Y-129928904D01*
X119457857Y-130024142D01*
X119505476Y-130071761D01*
X119600714Y-130119380D01*
X119791190Y-130119380D01*
X119886428Y-130071761D01*
X118838809Y-130119380D02*
X118934047Y-130071761D01*
X118981666Y-129976523D01*
X118981666Y-129119380D01*
X118076904Y-130071761D02*
X118172142Y-130119380D01*
X118362619Y-130119380D01*
X118457857Y-130071761D01*
X118505476Y-129976523D01*
X118505476Y-129595571D01*
X118457857Y-129500333D01*
X118362619Y-129452714D01*
X118172142Y-129452714D01*
X118076904Y-129500333D01*
X118029285Y-129595571D01*
X118029285Y-129690809D01*
X118505476Y-129786047D01*
X116838809Y-130119380D02*
X116838809Y-129452714D01*
X116838809Y-129119380D02*
X116886428Y-129167000D01*
X116838809Y-129214619D01*
X116791190Y-129167000D01*
X116838809Y-129119380D01*
X116838809Y-129214619D01*
X115934047Y-130119380D02*
X115934047Y-129119380D01*
X115934047Y-130071761D02*
X116029285Y-130119380D01*
X116219761Y-130119380D01*
X116314999Y-130071761D01*
X116362619Y-130024142D01*
X116410238Y-129928904D01*
X116410238Y-129643190D01*
X116362619Y-129547952D01*
X116314999Y-129500333D01*
X116219761Y-129452714D01*
X116029285Y-129452714D01*
X115934047Y-129500333D01*
X115076904Y-130071761D02*
X115172142Y-130119380D01*
X115362619Y-130119380D01*
X115457857Y-130071761D01*
X115505476Y-129976523D01*
X115505476Y-129595571D01*
X115457857Y-129500333D01*
X115362619Y-129452714D01*
X115172142Y-129452714D01*
X115076904Y-129500333D01*
X115029285Y-129595571D01*
X115029285Y-129690809D01*
X115505476Y-129786047D01*
X114172142Y-130119380D02*
X114172142Y-129595571D01*
X114219761Y-129500333D01*
X114314999Y-129452714D01*
X114505476Y-129452714D01*
X114600714Y-129500333D01*
X114172142Y-130071761D02*
X114267380Y-130119380D01*
X114505476Y-130119380D01*
X114600714Y-130071761D01*
X114648333Y-129976523D01*
X114648333Y-129881285D01*
X114600714Y-129786047D01*
X114505476Y-129738428D01*
X114267380Y-129738428D01*
X114172142Y-129690809D01*
X112934047Y-130119380D02*
X112934047Y-129119380D01*
X112934047Y-129500333D02*
X112838809Y-129452714D01*
X112648333Y-129452714D01*
X112553095Y-129500333D01*
X112505476Y-129547952D01*
X112457857Y-129643190D01*
X112457857Y-129928904D01*
X112505476Y-130024142D01*
X112553095Y-130071761D01*
X112648333Y-130119380D01*
X112838809Y-130119380D01*
X112934047Y-130071761D01*
X112029285Y-130119380D02*
X112029285Y-129452714D01*
X112029285Y-129643190D02*
X111981666Y-129547952D01*
X111934047Y-129500333D01*
X111838809Y-129452714D01*
X111743571Y-129452714D01*
X111267380Y-130119380D02*
X111362619Y-130071761D01*
X111410238Y-130024142D01*
X111457857Y-129928904D01*
X111457857Y-129643190D01*
X111410238Y-129547952D01*
X111362619Y-129500333D01*
X111267380Y-129452714D01*
X111124523Y-129452714D01*
X111029285Y-129500333D01*
X110981666Y-129547952D01*
X110934047Y-129643190D01*
X110934047Y-129928904D01*
X110981666Y-130024142D01*
X111029285Y-130071761D01*
X111124523Y-130119380D01*
X111267380Y-130119380D01*
X110076904Y-129452714D02*
X110076904Y-130119380D01*
X110505476Y-129452714D02*
X110505476Y-129976523D01*
X110457857Y-130071761D01*
X110362619Y-130119380D01*
X110219761Y-130119380D01*
X110124523Y-130071761D01*
X110076904Y-130024142D01*
X109172142Y-129452714D02*
X109172142Y-130262238D01*
X109219761Y-130357476D01*
X109267380Y-130405095D01*
X109362619Y-130452714D01*
X109505476Y-130452714D01*
X109600714Y-130405095D01*
X109172142Y-130071761D02*
X109267380Y-130119380D01*
X109457857Y-130119380D01*
X109553095Y-130071761D01*
X109600714Y-130024142D01*
X109648333Y-129928904D01*
X109648333Y-129643190D01*
X109600714Y-129547952D01*
X109553095Y-129500333D01*
X109457857Y-129452714D01*
X109267380Y-129452714D01*
X109172142Y-129500333D01*
X108695952Y-130119380D02*
X108695952Y-129119380D01*
X108267380Y-130119380D02*
X108267380Y-129595571D01*
X108315000Y-129500333D01*
X108410238Y-129452714D01*
X108553095Y-129452714D01*
X108648333Y-129500333D01*
X108695952Y-129547952D01*
X107934047Y-129452714D02*
X107553095Y-129452714D01*
X107791190Y-129119380D02*
X107791190Y-129976523D01*
X107743571Y-130071761D01*
X107648333Y-130119380D01*
X107553095Y-130119380D01*
X106600714Y-129452714D02*
X106219761Y-129452714D01*
X106457857Y-129119380D02*
X106457857Y-129976523D01*
X106410238Y-130071761D01*
X106315000Y-130119380D01*
X106219761Y-130119380D01*
X105743571Y-130119380D02*
X105838809Y-130071761D01*
X105886428Y-130024142D01*
X105934047Y-129928904D01*
X105934047Y-129643190D01*
X105886428Y-129547952D01*
X105838809Y-129500333D01*
X105743571Y-129452714D01*
X105600714Y-129452714D01*
X105505476Y-129500333D01*
X105457857Y-129547952D01*
X105410238Y-129643190D01*
X105410238Y-129928904D01*
X105457857Y-130024142D01*
X105505476Y-130071761D01*
X105600714Y-130119380D01*
X105743571Y-130119380D01*
X104315000Y-129452714D02*
X104076904Y-130119380D01*
X103838809Y-129452714D02*
X104076904Y-130119380D01*
X104172142Y-130357476D01*
X104219761Y-130405095D01*
X104315000Y-130452714D01*
X103315000Y-130119380D02*
X103410238Y-130071761D01*
X103457857Y-130024142D01*
X103505476Y-129928904D01*
X103505476Y-129643190D01*
X103457857Y-129547952D01*
X103410238Y-129500333D01*
X103315000Y-129452714D01*
X103172142Y-129452714D01*
X103076904Y-129500333D01*
X103029285Y-129547952D01*
X102981666Y-129643190D01*
X102981666Y-129928904D01*
X103029285Y-130024142D01*
X103076904Y-130071761D01*
X103172142Y-130119380D01*
X103315000Y-130119380D01*
X102124523Y-129452714D02*
X102124523Y-130119380D01*
X102553095Y-129452714D02*
X102553095Y-129976523D01*
X102505476Y-130071761D01*
X102410238Y-130119380D01*
X102267380Y-130119380D01*
X102172142Y-130071761D01*
X102124523Y-130024142D01*
X100886428Y-130119380D02*
X100886428Y-129119380D01*
X100886428Y-129500333D02*
X100791190Y-129452714D01*
X100600714Y-129452714D01*
X100505476Y-129500333D01*
X100457857Y-129547952D01*
X100410238Y-129643190D01*
X100410238Y-129928904D01*
X100457857Y-130024142D01*
X100505476Y-130071761D01*
X100600714Y-130119380D01*
X100791190Y-130119380D01*
X100886428Y-130071761D01*
X100076904Y-129452714D02*
X99838809Y-130119380D01*
X99600714Y-129452714D02*
X99838809Y-130119380D01*
X99934047Y-130357476D01*
X99981666Y-130405095D01*
X100076904Y-130452714D01*
X98172142Y-129119380D02*
X98172142Y-129833666D01*
X98219761Y-129976523D01*
X98315000Y-130071761D01*
X98457857Y-130119380D01*
X98553095Y-130119380D01*
X97695952Y-130119380D02*
X97695952Y-129119380D01*
X97457857Y-129119380D01*
X97315000Y-129167000D01*
X97219761Y-129262238D01*
X97172142Y-129357476D01*
X97124523Y-129547952D01*
X97124523Y-129690809D01*
X97172142Y-129881285D01*
X97219761Y-129976523D01*
X97315000Y-130071761D01*
X97457857Y-130119380D01*
X97695952Y-130119380D01*
X95981666Y-130071761D02*
X95838809Y-130119380D01*
X95600714Y-130119380D01*
X95505476Y-130071761D01*
X95457857Y-130024142D01*
X95410238Y-129928904D01*
X95410238Y-129833666D01*
X95457857Y-129738428D01*
X95505476Y-129690809D01*
X95600714Y-129643190D01*
X95791190Y-129595571D01*
X95886428Y-129547952D01*
X95934047Y-129500333D01*
X95981666Y-129405095D01*
X95981666Y-129309857D01*
X95934047Y-129214619D01*
X95886428Y-129167000D01*
X95791190Y-129119380D01*
X95553095Y-129119380D01*
X95410238Y-129167000D01*
X95124523Y-129452714D02*
X94743571Y-129452714D01*
X94981666Y-129119380D02*
X94981666Y-129976523D01*
X94934047Y-130071761D01*
X94838809Y-130119380D01*
X94743571Y-130119380D01*
X94029285Y-130071761D02*
X94124523Y-130119380D01*
X94315000Y-130119380D01*
X94410238Y-130071761D01*
X94457857Y-129976523D01*
X94457857Y-129595571D01*
X94410238Y-129500333D01*
X94315000Y-129452714D01*
X94124523Y-129452714D01*
X94029285Y-129500333D01*
X93981666Y-129595571D01*
X93981666Y-129690809D01*
X94457857Y-129786047D01*
X93695952Y-129452714D02*
X93315000Y-129452714D01*
X93553095Y-130119380D02*
X93553095Y-129262238D01*
X93505476Y-129167000D01*
X93410238Y-129119380D01*
X93315000Y-129119380D01*
X93124523Y-129452714D02*
X92743571Y-129452714D01*
X92981666Y-130119380D02*
X92981666Y-129262238D01*
X92934047Y-129167000D01*
X92838809Y-129119380D01*
X92743571Y-129119380D01*
X92029285Y-130071761D02*
X92124523Y-130119380D01*
X92315000Y-130119380D01*
X92410238Y-130071761D01*
X92457857Y-129976523D01*
X92457857Y-129595571D01*
X92410238Y-129500333D01*
X92315000Y-129452714D01*
X92124523Y-129452714D01*
X92029285Y-129500333D01*
X91981666Y-129595571D01*
X91981666Y-129690809D01*
X92457857Y-129786047D01*
X91553095Y-129452714D02*
X91553095Y-130119380D01*
X91553095Y-129547952D02*
X91505476Y-129500333D01*
X91410238Y-129452714D01*
X91267380Y-129452714D01*
X91172142Y-129500333D01*
X91124523Y-129595571D01*
X91124523Y-130119380D01*
X89600714Y-130500333D02*
X89648333Y-130452714D01*
X89743571Y-130309857D01*
X89791190Y-130214619D01*
X89838809Y-130071761D01*
X89886428Y-129833666D01*
X89886428Y-129643190D01*
X89838809Y-129405095D01*
X89791190Y-129262238D01*
X89743571Y-129167000D01*
X89648333Y-129024142D01*
X89600714Y-128976523D01*
X89267380Y-129214619D02*
X89219761Y-129167000D01*
X89124523Y-129119380D01*
X88886428Y-129119380D01*
X88791190Y-129167000D01*
X88743571Y-129214619D01*
X88695952Y-129309857D01*
X88695952Y-129405095D01*
X88743571Y-129547952D01*
X89315000Y-130119380D01*
X88695952Y-130119380D01*
X88076904Y-129119380D02*
X87981666Y-129119380D01*
X87886428Y-129167000D01*
X87838809Y-129214619D01*
X87791190Y-129309857D01*
X87743571Y-129500333D01*
X87743571Y-129738428D01*
X87791190Y-129928904D01*
X87838809Y-130024142D01*
X87886428Y-130071761D01*
X87981666Y-130119380D01*
X88076904Y-130119380D01*
X88172142Y-130071761D01*
X88219761Y-130024142D01*
X88267380Y-129928904D01*
X88315000Y-129738428D01*
X88315000Y-129500333D01*
X88267380Y-129309857D01*
X88219761Y-129214619D01*
X88172142Y-129167000D01*
X88076904Y-129119380D01*
X87362619Y-129214619D02*
X87315000Y-129167000D01*
X87219761Y-129119380D01*
X86981666Y-129119380D01*
X86886428Y-129167000D01*
X86838809Y-129214619D01*
X86791190Y-129309857D01*
X86791190Y-129405095D01*
X86838809Y-129547952D01*
X87410238Y-130119380D01*
X86791190Y-130119380D01*
X85838809Y-130119380D02*
X86410238Y-130119380D01*
X86124523Y-130119380D02*
X86124523Y-129119380D01*
X86219761Y-129262238D01*
X86315000Y-129357476D01*
X86410238Y-129405095D01*
X85505476Y-130500333D02*
X85457857Y-130452714D01*
X85362619Y-130309857D01*
X85315000Y-130214619D01*
X85267380Y-130071761D01*
X85219761Y-129833666D01*
X85219761Y-129643190D01*
X85267380Y-129405095D01*
X85315000Y-129262238D01*
X85362619Y-129167000D01*
X85457857Y-129024142D01*
X85505476Y-128976523D01*
D11*
X85109857Y-85723000D02*
X85109857Y-86223000D01*
X85895571Y-86437285D02*
X85895571Y-85723000D01*
X84395571Y-85723000D01*
X84395571Y-86437285D01*
X85824142Y-87008714D02*
X85895571Y-87223000D01*
X85895571Y-87580142D01*
X85824142Y-87723000D01*
X85752714Y-87794428D01*
X85609857Y-87865857D01*
X85467000Y-87865857D01*
X85324142Y-87794428D01*
X85252714Y-87723000D01*
X85181285Y-87580142D01*
X85109857Y-87294428D01*
X85038428Y-87151571D01*
X84967000Y-87080142D01*
X84824142Y-87008714D01*
X84681285Y-87008714D01*
X84538428Y-87080142D01*
X84467000Y-87151571D01*
X84395571Y-87294428D01*
X84395571Y-87651571D01*
X84467000Y-87865857D01*
X85895571Y-88508714D02*
X84395571Y-88508714D01*
X84395571Y-89080142D01*
X84467000Y-89223000D01*
X84538428Y-89294428D01*
X84681285Y-89365857D01*
X84895571Y-89365857D01*
X85038428Y-89294428D01*
X85109857Y-89223000D01*
X85181285Y-89080142D01*
X85181285Y-88508714D01*
X85038428Y-90223000D02*
X84967000Y-90080142D01*
X84895571Y-90008714D01*
X84752714Y-89937285D01*
X84681285Y-89937285D01*
X84538428Y-90008714D01*
X84467000Y-90080142D01*
X84395571Y-90223000D01*
X84395571Y-90508714D01*
X84467000Y-90651571D01*
X84538428Y-90723000D01*
X84681285Y-90794428D01*
X84752714Y-90794428D01*
X84895571Y-90723000D01*
X84967000Y-90651571D01*
X85038428Y-90508714D01*
X85038428Y-90223000D01*
X85109857Y-90080142D01*
X85181285Y-90008714D01*
X85324142Y-89937285D01*
X85609857Y-89937285D01*
X85752714Y-90008714D01*
X85824142Y-90080142D01*
X85895571Y-90223000D01*
X85895571Y-90508714D01*
X85824142Y-90651571D01*
X85752714Y-90723000D01*
X85609857Y-90794428D01*
X85324142Y-90794428D01*
X85181285Y-90723000D01*
X85109857Y-90651571D01*
X85038428Y-90508714D01*
X84395571Y-92080142D02*
X84395571Y-91794428D01*
X84467000Y-91651571D01*
X84538428Y-91580142D01*
X84752714Y-91437285D01*
X85038428Y-91365857D01*
X85609857Y-91365857D01*
X85752714Y-91437285D01*
X85824142Y-91508714D01*
X85895571Y-91651571D01*
X85895571Y-91937285D01*
X85824142Y-92080142D01*
X85752714Y-92151571D01*
X85609857Y-92223000D01*
X85252714Y-92223000D01*
X85109857Y-92151571D01*
X85038428Y-92080142D01*
X84967000Y-91937285D01*
X84967000Y-91651571D01*
X85038428Y-91508714D01*
X85109857Y-91437285D01*
X85252714Y-91365857D01*
X84538428Y-92794428D02*
X84467000Y-92865857D01*
X84395571Y-93008714D01*
X84395571Y-93365857D01*
X84467000Y-93508714D01*
X84538428Y-93580142D01*
X84681285Y-93651571D01*
X84824142Y-93651571D01*
X85038428Y-93580142D01*
X85895571Y-92723000D01*
X85895571Y-93651571D01*
X84538428Y-94223000D02*
X84467000Y-94294428D01*
X84395571Y-94437285D01*
X84395571Y-94794428D01*
X84467000Y-94937285D01*
X84538428Y-95008714D01*
X84681285Y-95080142D01*
X84824142Y-95080142D01*
X85038428Y-95008714D01*
X85895571Y-94151571D01*
X85895571Y-95080142D01*
X85895571Y-97723000D02*
X85181285Y-97223000D01*
X85895571Y-96865857D02*
X84395571Y-96865857D01*
X84395571Y-97437285D01*
X84467000Y-97580142D01*
X84538428Y-97651571D01*
X84681285Y-97723000D01*
X84895571Y-97723000D01*
X85038428Y-97651571D01*
X85109857Y-97580142D01*
X85181285Y-97437285D01*
X85181285Y-96865857D01*
X85824142Y-98937285D02*
X85895571Y-98794428D01*
X85895571Y-98508714D01*
X85824142Y-98365857D01*
X85681285Y-98294428D01*
X85109857Y-98294428D01*
X84967000Y-98365857D01*
X84895571Y-98508714D01*
X84895571Y-98794428D01*
X84967000Y-98937285D01*
X85109857Y-99008714D01*
X85252714Y-99008714D01*
X85395571Y-98294428D01*
X85895571Y-99865857D02*
X85824142Y-99723000D01*
X85681285Y-99651571D01*
X84395571Y-99651571D01*
X85895571Y-101080142D02*
X85109857Y-101080142D01*
X84967000Y-101008714D01*
X84895571Y-100865857D01*
X84895571Y-100580142D01*
X84967000Y-100437285D01*
X85824142Y-101080142D02*
X85895571Y-100937285D01*
X85895571Y-100580142D01*
X85824142Y-100437285D01*
X85681285Y-100365857D01*
X85538428Y-100365857D01*
X85395571Y-100437285D01*
X85324142Y-100580142D01*
X85324142Y-100937285D01*
X85252714Y-101080142D01*
X84895571Y-101651571D02*
X85895571Y-102008714D01*
X84895571Y-102365857D02*
X85895571Y-102008714D01*
X86252714Y-101865857D01*
X86324142Y-101794428D01*
X86395571Y-101651571D01*
X85895571Y-104080142D02*
X84395571Y-104080142D01*
X85467000Y-104580142D01*
X84395571Y-105080142D01*
X85895571Y-105080142D01*
X85895571Y-106008714D02*
X85824142Y-105865857D01*
X85752714Y-105794428D01*
X85609857Y-105723000D01*
X85181285Y-105723000D01*
X85038428Y-105794428D01*
X84967000Y-105865857D01*
X84895571Y-106008714D01*
X84895571Y-106223000D01*
X84967000Y-106365857D01*
X85038428Y-106437285D01*
X85181285Y-106508714D01*
X85609857Y-106508714D01*
X85752714Y-106437285D01*
X85824142Y-106365857D01*
X85895571Y-106223000D01*
X85895571Y-106008714D01*
X85895571Y-107794428D02*
X84395571Y-107794428D01*
X85824142Y-107794428D02*
X85895571Y-107651571D01*
X85895571Y-107365857D01*
X85824142Y-107223000D01*
X85752714Y-107151571D01*
X85609857Y-107080142D01*
X85181285Y-107080142D01*
X85038428Y-107151571D01*
X84967000Y-107223000D01*
X84895571Y-107365857D01*
X84895571Y-107651571D01*
X84967000Y-107794428D01*
X84895571Y-109151571D02*
X85895571Y-109151571D01*
X84895571Y-108508714D02*
X85681285Y-108508714D01*
X85824142Y-108580142D01*
X85895571Y-108723000D01*
X85895571Y-108937285D01*
X85824142Y-109080142D01*
X85752714Y-109151571D01*
X85895571Y-110080142D02*
X85824142Y-109937285D01*
X85681285Y-109865857D01*
X84395571Y-109865857D01*
X85824142Y-111223000D02*
X85895571Y-111080142D01*
X85895571Y-110794428D01*
X85824142Y-110651571D01*
X85681285Y-110580142D01*
X85109857Y-110580142D01*
X84967000Y-110651571D01*
X84895571Y-110794428D01*
X84895571Y-111080142D01*
X84967000Y-111223000D01*
X85109857Y-111294428D01*
X85252714Y-111294428D01*
X85395571Y-110580142D01*
X84395571Y-112865857D02*
X85895571Y-113365857D01*
X84395571Y-113865857D01*
X85895571Y-115151571D02*
X85895571Y-114294428D01*
X85895571Y-114723000D02*
X84395571Y-114723000D01*
X84609857Y-114580142D01*
X84752714Y-114437285D01*
X84824142Y-114294428D01*
X85752714Y-115794428D02*
X85824142Y-115865857D01*
X85895571Y-115794428D01*
X85824142Y-115723000D01*
X85752714Y-115794428D01*
X85895571Y-115794428D01*
X84538428Y-116437285D02*
X84467000Y-116508714D01*
X84395571Y-116651571D01*
X84395571Y-117008714D01*
X84467000Y-117151571D01*
X84538428Y-117223000D01*
X84681285Y-117294428D01*
X84824142Y-117294428D01*
X85038428Y-117223000D01*
X85895571Y-116365857D01*
X85895571Y-117294428D01*
M02*
