%TF.GenerationSoftware,KiCad,Pcbnew,(5.1.8)-1*%
%TF.CreationDate,2021-01-29T20:36:51-06:00*%
%TF.ProjectId,ESPRelay,45535052-656c-4617-992e-6b696361645f,rev?*%
%TF.SameCoordinates,Original*%
%TF.FileFunction,Copper,L2,Bot*%
%TF.FilePolarity,Positive*%
%FSLAX46Y46*%
G04 Gerber Fmt 4.6, Leading zero omitted, Abs format (unit mm)*
G04 Created by KiCad (PCBNEW (5.1.8)-1) date 2021-01-29 20:36:51*
%MOMM*%
%LPD*%
G01*
G04 APERTURE LIST*
%TA.AperFunction,ComponentPad*%
%ADD10C,1.524000*%
%TD*%
%TA.AperFunction,ComponentPad*%
%ADD11C,1.800000*%
%TD*%
%TA.AperFunction,ComponentPad*%
%ADD12R,1.800000X1.800000*%
%TD*%
%TA.AperFunction,ComponentPad*%
%ADD13R,2.200000X2.200000*%
%TD*%
%TA.AperFunction,ComponentPad*%
%ADD14O,2.200000X2.200000*%
%TD*%
%TA.AperFunction,ComponentPad*%
%ADD15C,2.300000*%
%TD*%
%TA.AperFunction,ComponentPad*%
%ADD16R,2.300000X2.300000*%
%TD*%
%TA.AperFunction,ComponentPad*%
%ADD17O,1.050000X1.500000*%
%TD*%
%TA.AperFunction,ComponentPad*%
%ADD18R,1.050000X1.500000*%
%TD*%
%TA.AperFunction,ComponentPad*%
%ADD19C,1.400000*%
%TD*%
%TA.AperFunction,ComponentPad*%
%ADD20O,1.400000X1.400000*%
%TD*%
%TA.AperFunction,ComponentPad*%
%ADD21O,1.600000X1.600000*%
%TD*%
%TA.AperFunction,ComponentPad*%
%ADD22R,1.600000X1.600000*%
%TD*%
%TA.AperFunction,ComponentPad*%
%ADD23C,1.650000*%
%TD*%
%TA.AperFunction,ComponentPad*%
%ADD24R,1.650000X1.650000*%
%TD*%
%TA.AperFunction,ComponentPad*%
%ADD25C,2.100000*%
%TD*%
%TA.AperFunction,ComponentPad*%
%ADD26R,2.100000X2.100000*%
%TD*%
%TA.AperFunction,Conductor*%
%ADD27C,0.250000*%
%TD*%
%TA.AperFunction,Conductor*%
%ADD28C,2.400000*%
%TD*%
%TA.AperFunction,Conductor*%
%ADD29C,0.254000*%
%TD*%
%TA.AperFunction,Conductor*%
%ADD30C,0.100000*%
%TD*%
G04 APERTURE END LIST*
D10*
%TO.P,U1,1*%
%TO.N,N/C*%
X124968000Y-110998000D03*
%TO.P,U1,2*%
X122428000Y-110998000D03*
%TO.P,U1,3*%
X119888000Y-110998000D03*
%TO.P,U1,4*%
X117348000Y-110998000D03*
%TO.P,U1,5*%
X114808000Y-110998000D03*
%TO.P,U1,6*%
X112268000Y-110998000D03*
%TO.P,U1,7*%
X109728000Y-110998000D03*
%TO.P,U1,8*%
X107188000Y-110998000D03*
%TO.P,U1,9*%
X104648000Y-110998000D03*
%TO.P,U1,10*%
%TO.N,GND*%
X102108000Y-110998000D03*
%TO.P,U1,11*%
%TO.N,N/C*%
X99568000Y-110998000D03*
%TO.P,U1,12*%
X97028000Y-110998000D03*
%TO.P,U1,13*%
X94488000Y-110998000D03*
%TO.P,U1,14*%
%TO.N,GND*%
X91948000Y-110998000D03*
%TO.P,U1,15*%
%TO.N,+5V*%
X89408000Y-110998000D03*
%TO.P,U1,16*%
%TO.N,VCC*%
X89408000Y-134493000D03*
%TO.P,U1,17*%
%TO.N,GND*%
X91948000Y-134493000D03*
%TO.P,U1,18*%
%TO.N,N/C*%
X94488000Y-134493000D03*
%TO.P,U1,19*%
X97028000Y-134493000D03*
%TO.P,U1,20*%
X99568000Y-134493000D03*
%TO.P,U1,21*%
X102108000Y-134493000D03*
%TO.P,U1,22*%
X104648000Y-134493000D03*
%TO.P,U1,23*%
X107188000Y-134493000D03*
%TO.P,U1,24*%
%TO.N,GND*%
X109728000Y-134493000D03*
%TO.P,U1,25*%
%TO.N,N/C*%
X112268000Y-134493000D03*
%TO.P,U1,26*%
%TO.N,Net-(J4-Pad2)*%
X114808000Y-134493000D03*
%TO.P,U1,27*%
%TO.N,Net-(J3-Pad2)*%
X117348000Y-134493000D03*
%TO.P,U1,28*%
%TO.N,N/C*%
X119888000Y-134493000D03*
%TO.P,U1,29*%
%TO.N,Net-(D2-Pad1)*%
X122428000Y-134493000D03*
%TO.P,U1,30*%
%TO.N,Net-(D1-Pad1)*%
X124968000Y-134493000D03*
%TD*%
D11*
%TO.P,D1,2*%
%TO.N,Net-(D1-Pad2)*%
X112740000Y-101531000D03*
D12*
%TO.P,D1,1*%
%TO.N,Net-(D1-Pad1)*%
X110200000Y-101531000D03*
%TD*%
%TO.P,D2,1*%
%TO.N,Net-(D2-Pad1)*%
X119126000Y-101531000D03*
D11*
%TO.P,D2,2*%
%TO.N,Net-(D2-Pad2)*%
X121666000Y-101531000D03*
%TD*%
D13*
%TO.P,D3,1*%
%TO.N,+5V*%
X96647000Y-65405000D03*
D14*
%TO.P,D3,2*%
%TO.N,Net-(D3-Pad2)*%
X96647000Y-75565000D03*
%TD*%
%TO.P,D4,2*%
%TO.N,Net-(D4-Pad2)*%
X96520000Y-89408000D03*
D13*
%TO.P,D4,1*%
%TO.N,+5V*%
X96520000Y-79248000D03*
%TD*%
D15*
%TO.P,K1,5*%
%TO.N,+5V*%
X102997000Y-79375000D03*
%TO.P,K1,4*%
%TO.N,Net-(J1-Pad1)*%
X118237000Y-79375000D03*
%TO.P,K1,3*%
%TO.N,Net-(J1-Pad3)*%
X120777000Y-86995000D03*
%TO.P,K1,2*%
%TO.N,Net-(J1-Pad2)*%
X113157000Y-86995000D03*
D16*
%TO.P,K1,1*%
%TO.N,Net-(D3-Pad2)*%
X102997000Y-86995000D03*
%TD*%
%TO.P,K2,1*%
%TO.N,Net-(D4-Pad2)*%
X102997000Y-74549000D03*
D15*
%TO.P,K2,2*%
%TO.N,Net-(J2-Pad2)*%
X113157000Y-74549000D03*
%TO.P,K2,3*%
%TO.N,Net-(J2-Pad3)*%
X120777000Y-74549000D03*
%TO.P,K2,4*%
%TO.N,Net-(J2-Pad1)*%
X118237000Y-66929000D03*
%TO.P,K2,5*%
%TO.N,+5V*%
X102997000Y-66929000D03*
%TD*%
D17*
%TO.P,Q1,2*%
%TO.N,Net-(Q1-Pad2)*%
X99822000Y-94615000D03*
%TO.P,Q1,3*%
%TO.N,Net-(D3-Pad2)*%
X98552000Y-94615000D03*
D18*
%TO.P,Q1,1*%
%TO.N,GND*%
X101092000Y-94615000D03*
%TD*%
%TO.P,Q2,1*%
%TO.N,GND*%
X94234000Y-94615000D03*
D17*
%TO.P,Q2,3*%
%TO.N,Net-(D4-Pad2)*%
X91694000Y-94615000D03*
%TO.P,Q2,2*%
%TO.N,Net-(Q2-Pad2)*%
X92964000Y-94615000D03*
%TD*%
D19*
%TO.P,R1,1*%
%TO.N,VCC*%
X92329000Y-65405000D03*
D20*
%TO.P,R1,2*%
%TO.N,Net-(R1-Pad2)*%
X87249000Y-65405000D03*
%TD*%
%TO.P,R2,2*%
%TO.N,Net-(R2-Pad2)*%
X86995000Y-78867000D03*
D19*
%TO.P,R2,1*%
%TO.N,VCC*%
X92075000Y-78867000D03*
%TD*%
%TO.P,R3,1*%
%TO.N,Net-(Q1-Pad2)*%
X99949000Y-100330000D03*
D20*
%TO.P,R3,2*%
%TO.N,Net-(R3-Pad2)*%
X99949000Y-105410000D03*
%TD*%
%TO.P,R4,2*%
%TO.N,Net-(R4-Pad2)*%
X92837000Y-105410000D03*
D19*
%TO.P,R4,1*%
%TO.N,Net-(Q2-Pad2)*%
X92837000Y-100330000D03*
%TD*%
D21*
%TO.P,U2,4*%
%TO.N,+5V*%
X90678000Y-76073000D03*
%TO.P,U2,2*%
%TO.N,Net-(D1-Pad2)*%
X88138000Y-68453000D03*
%TO.P,U2,3*%
%TO.N,Net-(R3-Pad2)*%
X88138000Y-76073000D03*
D22*
%TO.P,U2,1*%
%TO.N,Net-(R1-Pad2)*%
X90678000Y-68453000D03*
%TD*%
%TO.P,U3,1*%
%TO.N,Net-(R2-Pad2)*%
X90170000Y-81915000D03*
D21*
%TO.P,U3,3*%
%TO.N,Net-(R4-Pad2)*%
X87630000Y-89535000D03*
%TO.P,U3,2*%
%TO.N,Net-(D2-Pad2)*%
X87630000Y-81915000D03*
%TO.P,U3,4*%
%TO.N,+5V*%
X90170000Y-89535000D03*
%TD*%
D23*
%TO.P,J1,3*%
%TO.N,Net-(J1-Pad3)*%
X129032000Y-86629000D03*
%TO.P,J1,2*%
%TO.N,Net-(J1-Pad2)*%
X129032000Y-83129000D03*
D24*
%TO.P,J1,1*%
%TO.N,Net-(J1-Pad1)*%
X129032000Y-79629000D03*
%TD*%
%TO.P,J2,1*%
%TO.N,Net-(J2-Pad1)*%
X129032000Y-67437000D03*
D23*
%TO.P,J2,2*%
%TO.N,Net-(J2-Pad2)*%
X129032000Y-70937000D03*
%TO.P,J2,3*%
%TO.N,Net-(J2-Pad3)*%
X129032000Y-74437000D03*
%TD*%
D25*
%TO.P,J3,3*%
%TO.N,VCC*%
X129159000Y-106680000D03*
%TO.P,J3,2*%
%TO.N,Net-(J3-Pad2)*%
X129159000Y-104140000D03*
D26*
%TO.P,J3,1*%
%TO.N,VCC*%
X129159000Y-101600000D03*
%TD*%
%TO.P,J4,1*%
%TO.N,VCC*%
X129159000Y-92202000D03*
D25*
%TO.P,J4,2*%
%TO.N,Net-(J4-Pad2)*%
X129159000Y-94742000D03*
%TO.P,J4,3*%
%TO.N,VCC*%
X129159000Y-97282000D03*
%TD*%
D27*
%TO.N,Net-(D1-Pad2)*%
X92158598Y-106885010D02*
X85344000Y-100070412D01*
X101269399Y-106885011D02*
X92158598Y-106885010D01*
X107848411Y-100305999D02*
X101269399Y-106885011D01*
X111514999Y-100305999D02*
X107848411Y-100305999D01*
X112740000Y-101531000D02*
X111514999Y-100305999D01*
X85344000Y-71247000D02*
X88138000Y-68453000D01*
X85344000Y-100070412D02*
X85344000Y-71247000D01*
%TO.N,Net-(D1-Pad1)*%
X124968000Y-134493000D02*
X123063000Y-136398000D01*
X118435001Y-131136411D02*
X118435001Y-108529001D01*
X120975001Y-133676411D02*
X118435001Y-131136411D01*
X120975001Y-134945001D02*
X120975001Y-133676411D01*
X122428000Y-136398000D02*
X120975001Y-134945001D01*
X123063000Y-136398000D02*
X122428000Y-136398000D01*
X118435001Y-108529001D02*
X115443000Y-105537000D01*
X114206000Y-105537000D02*
X110200000Y-101531000D01*
X115443000Y-105537000D02*
X114206000Y-105537000D01*
%TO.N,Net-(D2-Pad1)*%
X122428000Y-134493000D02*
X119761000Y-131826000D01*
X119761000Y-131826000D02*
X119761000Y-114046000D01*
X120975001Y-112831999D02*
X120975001Y-107132001D01*
X119761000Y-114046000D02*
X120975001Y-112831999D01*
X119126000Y-105283000D02*
X119126000Y-101531000D01*
X120975001Y-107132001D02*
X119126000Y-105283000D01*
%TO.N,Net-(D2-Pad2)*%
X92344999Y-106435001D02*
X101082999Y-106435001D01*
X86504999Y-100595001D02*
X92344999Y-106435001D01*
X86504999Y-83040001D02*
X86504999Y-100595001D01*
X87630000Y-81915000D02*
X86504999Y-83040001D01*
X101082999Y-106435001D02*
X109220000Y-98298000D01*
X118433000Y-98298000D02*
X121666000Y-101531000D01*
X109220000Y-98298000D02*
X118433000Y-98298000D01*
%TO.N,+5V*%
X90170000Y-85598000D02*
X96520000Y-79248000D01*
X90170000Y-89535000D02*
X90170000Y-85598000D01*
X102870000Y-79248000D02*
X102997000Y-79375000D01*
X96520000Y-79248000D02*
X102870000Y-79248000D01*
X93345000Y-76073000D02*
X96520000Y-79248000D01*
X90678000Y-76073000D02*
X93345000Y-76073000D01*
X93345000Y-68707000D02*
X96647000Y-65405000D01*
X93345000Y-76073000D02*
X93345000Y-68707000D01*
X101473000Y-65405000D02*
X102997000Y-66929000D01*
X96647000Y-65405000D02*
X101473000Y-65405000D01*
%TO.N,Net-(D3-Pad2)*%
X98552000Y-91440000D02*
X102997000Y-86995000D01*
X98552000Y-94615000D02*
X98552000Y-91440000D01*
X97746999Y-76664999D02*
X96647000Y-75565000D01*
X102470001Y-76664999D02*
X97746999Y-76664999D01*
X104472001Y-78666999D02*
X102470001Y-76664999D01*
X104472001Y-85519999D02*
X104472001Y-78666999D01*
X102997000Y-86995000D02*
X104472001Y-85519999D01*
%TO.N,Net-(D4-Pad2)*%
X95901000Y-89408000D02*
X96520000Y-89408000D01*
X91694000Y-93615000D02*
X95901000Y-89408000D01*
X91694000Y-94615000D02*
X91694000Y-93615000D01*
X91694000Y-94615000D02*
X91694000Y-92837000D01*
D28*
%TO.N,Net-(J1-Pad3)*%
X128666000Y-86995000D02*
X129032000Y-86629000D01*
X120777000Y-86995000D02*
X128666000Y-86995000D01*
%TO.N,Net-(J1-Pad2)*%
X117023000Y-83129000D02*
X129032000Y-83129000D01*
X113157000Y-86995000D02*
X117023000Y-83129000D01*
%TO.N,Net-(J1-Pad1)*%
X128778000Y-79375000D02*
X129032000Y-79629000D01*
X118237000Y-79375000D02*
X128778000Y-79375000D01*
%TO.N,Net-(J2-Pad1)*%
X128524000Y-66929000D02*
X129032000Y-67437000D01*
X118237000Y-66929000D02*
X128524000Y-66929000D01*
%TO.N,Net-(J2-Pad2)*%
X116769000Y-70937000D02*
X129032000Y-70937000D01*
X113157000Y-74549000D02*
X116769000Y-70937000D01*
%TO.N,Net-(J2-Pad3)*%
X128920000Y-74549000D02*
X129032000Y-74437000D01*
X120777000Y-74549000D02*
X128920000Y-74549000D01*
D27*
%TO.N,Net-(Q1-Pad2)*%
X99949000Y-94742000D02*
X99822000Y-94615000D01*
X99949000Y-100330000D02*
X99949000Y-94742000D01*
%TO.N,Net-(Q2-Pad2)*%
X92837000Y-94742000D02*
X92964000Y-94615000D01*
X92837000Y-100330000D02*
X92837000Y-94742000D01*
%TO.N,Net-(R1-Pad2)*%
X90297000Y-68453000D02*
X90678000Y-68453000D01*
X87249000Y-65405000D02*
X90297000Y-68453000D01*
%TO.N,Net-(R2-Pad2)*%
X86995000Y-75550998D02*
X87996998Y-74549000D01*
X86995000Y-78867000D02*
X86995000Y-75550998D01*
X89552999Y-75532999D02*
X89552999Y-81297999D01*
X88569000Y-74549000D02*
X89552999Y-75532999D01*
X89552999Y-81297999D02*
X90170000Y-81915000D01*
X87996998Y-74549000D02*
X88569000Y-74549000D01*
%TO.N,Net-(R3-Pad2)*%
X99949000Y-105410000D02*
X99949000Y-103759000D01*
X89044999Y-78604997D02*
X89044999Y-100474999D01*
X88138000Y-77697998D02*
X89044999Y-78604997D01*
X88138000Y-76073000D02*
X88138000Y-77697998D01*
X89044999Y-100474999D02*
X90170000Y-101600000D01*
X90170000Y-101600000D02*
X99441000Y-101600000D01*
X99949000Y-102108000D02*
X99949000Y-105410000D01*
X99441000Y-101600000D02*
X99949000Y-102108000D01*
%TO.N,Net-(R4-Pad2)*%
X87630000Y-100203000D02*
X87630000Y-89535000D01*
X92837000Y-105410000D02*
X87630000Y-100203000D01*
%TD*%
D29*
%TO.N,GND*%
X84019369Y-59941331D02*
X83850890Y-60348075D01*
X83765000Y-60779872D01*
X83765000Y-61220128D01*
X83850890Y-61651925D01*
X84019369Y-62058669D01*
X84263962Y-62424729D01*
X84575271Y-62736038D01*
X84941331Y-62980631D01*
X85348075Y-63149110D01*
X85779872Y-63235000D01*
X86220128Y-63235000D01*
X86651925Y-63149110D01*
X87058669Y-62980631D01*
X87424729Y-62736038D01*
X87736038Y-62424729D01*
X87980631Y-62058669D01*
X88149110Y-61651925D01*
X88235000Y-61220128D01*
X88235000Y-60779872D01*
X88149110Y-60348075D01*
X87980631Y-59941331D01*
X87792652Y-59660000D01*
X128207348Y-59660000D01*
X128019369Y-59941331D01*
X127850890Y-60348075D01*
X127765000Y-60779872D01*
X127765000Y-61220128D01*
X127850890Y-61651925D01*
X128019369Y-62058669D01*
X128263962Y-62424729D01*
X128575271Y-62736038D01*
X128941331Y-62980631D01*
X129348075Y-63149110D01*
X129779872Y-63235000D01*
X130220128Y-63235000D01*
X130651925Y-63149110D01*
X131058669Y-62980631D01*
X131340000Y-62792652D01*
X131340001Y-115443000D01*
X121920000Y-115443000D01*
X121895224Y-115445440D01*
X121871399Y-115452667D01*
X121849443Y-115464403D01*
X121830197Y-115480197D01*
X121814403Y-115499443D01*
X121802667Y-115521399D01*
X121795440Y-115545224D01*
X121793000Y-115570000D01*
X121793000Y-130175000D01*
X121795440Y-130199776D01*
X121802667Y-130223601D01*
X121814403Y-130245557D01*
X121830197Y-130264803D01*
X121849443Y-130280597D01*
X121871399Y-130292333D01*
X121895224Y-130299560D01*
X121920000Y-130302000D01*
X131340001Y-130302000D01*
X131340001Y-136207349D01*
X131058669Y-136019369D01*
X130651925Y-135850890D01*
X130220128Y-135765000D01*
X129779872Y-135765000D01*
X129348075Y-135850890D01*
X128941331Y-136019369D01*
X128575271Y-136263962D01*
X128263962Y-136575271D01*
X128019369Y-136941331D01*
X127850890Y-137348075D01*
X127765000Y-137779872D01*
X127765000Y-138220128D01*
X127850890Y-138651925D01*
X128019369Y-139058669D01*
X128207348Y-139340000D01*
X87792652Y-139340000D01*
X87980631Y-139058669D01*
X88149110Y-138651925D01*
X88235000Y-138220128D01*
X88235000Y-137779872D01*
X88149110Y-137348075D01*
X87980631Y-136941331D01*
X87736038Y-136575271D01*
X87424729Y-136263962D01*
X87058669Y-136019369D01*
X86651925Y-135850890D01*
X86220128Y-135765000D01*
X85779872Y-135765000D01*
X85348075Y-135850890D01*
X84941331Y-136019369D01*
X84575271Y-136263962D01*
X84263962Y-136575271D01*
X84019369Y-136941331D01*
X83850890Y-137348075D01*
X83765000Y-137779872D01*
X83765000Y-138220128D01*
X83850890Y-138651925D01*
X84019369Y-139058669D01*
X84207348Y-139340000D01*
X83660000Y-139340000D01*
X83660000Y-134355408D01*
X88011000Y-134355408D01*
X88011000Y-134630592D01*
X88064686Y-134900490D01*
X88169995Y-135154727D01*
X88322880Y-135383535D01*
X88517465Y-135578120D01*
X88746273Y-135731005D01*
X89000510Y-135836314D01*
X89270408Y-135890000D01*
X89545592Y-135890000D01*
X89815490Y-135836314D01*
X90069727Y-135731005D01*
X90298535Y-135578120D01*
X90418090Y-135458565D01*
X91162040Y-135458565D01*
X91229020Y-135698656D01*
X91478048Y-135815756D01*
X91745135Y-135882023D01*
X92020017Y-135894910D01*
X92292133Y-135853922D01*
X92551023Y-135760636D01*
X92666980Y-135698656D01*
X92733960Y-135458565D01*
X91948000Y-134672605D01*
X91162040Y-135458565D01*
X90418090Y-135458565D01*
X90493120Y-135383535D01*
X90646005Y-135154727D01*
X90675692Y-135083057D01*
X90680364Y-135096023D01*
X90742344Y-135211980D01*
X90982435Y-135278960D01*
X91768395Y-134493000D01*
X92127605Y-134493000D01*
X92913565Y-135278960D01*
X93153656Y-135211980D01*
X93217485Y-135076240D01*
X93249995Y-135154727D01*
X93402880Y-135383535D01*
X93597465Y-135578120D01*
X93826273Y-135731005D01*
X94080510Y-135836314D01*
X94350408Y-135890000D01*
X94625592Y-135890000D01*
X94895490Y-135836314D01*
X95149727Y-135731005D01*
X95378535Y-135578120D01*
X95573120Y-135383535D01*
X95726005Y-135154727D01*
X95758000Y-135077485D01*
X95789995Y-135154727D01*
X95942880Y-135383535D01*
X96137465Y-135578120D01*
X96366273Y-135731005D01*
X96620510Y-135836314D01*
X96890408Y-135890000D01*
X97165592Y-135890000D01*
X97435490Y-135836314D01*
X97689727Y-135731005D01*
X97918535Y-135578120D01*
X98113120Y-135383535D01*
X98266005Y-135154727D01*
X98298000Y-135077485D01*
X98329995Y-135154727D01*
X98482880Y-135383535D01*
X98677465Y-135578120D01*
X98906273Y-135731005D01*
X99160510Y-135836314D01*
X99430408Y-135890000D01*
X99705592Y-135890000D01*
X99975490Y-135836314D01*
X100229727Y-135731005D01*
X100458535Y-135578120D01*
X100653120Y-135383535D01*
X100806005Y-135154727D01*
X100838000Y-135077485D01*
X100869995Y-135154727D01*
X101022880Y-135383535D01*
X101217465Y-135578120D01*
X101446273Y-135731005D01*
X101700510Y-135836314D01*
X101970408Y-135890000D01*
X102245592Y-135890000D01*
X102515490Y-135836314D01*
X102769727Y-135731005D01*
X102998535Y-135578120D01*
X103193120Y-135383535D01*
X103346005Y-135154727D01*
X103378000Y-135077485D01*
X103409995Y-135154727D01*
X103562880Y-135383535D01*
X103757465Y-135578120D01*
X103986273Y-135731005D01*
X104240510Y-135836314D01*
X104510408Y-135890000D01*
X104785592Y-135890000D01*
X105055490Y-135836314D01*
X105309727Y-135731005D01*
X105538535Y-135578120D01*
X105733120Y-135383535D01*
X105886005Y-135154727D01*
X105918000Y-135077485D01*
X105949995Y-135154727D01*
X106102880Y-135383535D01*
X106297465Y-135578120D01*
X106526273Y-135731005D01*
X106780510Y-135836314D01*
X107050408Y-135890000D01*
X107325592Y-135890000D01*
X107595490Y-135836314D01*
X107849727Y-135731005D01*
X108078535Y-135578120D01*
X108198090Y-135458565D01*
X108942040Y-135458565D01*
X109009020Y-135698656D01*
X109258048Y-135815756D01*
X109525135Y-135882023D01*
X109800017Y-135894910D01*
X110072133Y-135853922D01*
X110331023Y-135760636D01*
X110446980Y-135698656D01*
X110513960Y-135458565D01*
X109728000Y-134672605D01*
X108942040Y-135458565D01*
X108198090Y-135458565D01*
X108273120Y-135383535D01*
X108426005Y-135154727D01*
X108455692Y-135083057D01*
X108460364Y-135096023D01*
X108522344Y-135211980D01*
X108762435Y-135278960D01*
X109548395Y-134493000D01*
X108762435Y-133707040D01*
X108522344Y-133774020D01*
X108458515Y-133909760D01*
X108426005Y-133831273D01*
X108273120Y-133602465D01*
X108198090Y-133527435D01*
X108942040Y-133527435D01*
X109728000Y-134313395D01*
X110513960Y-133527435D01*
X110446980Y-133287344D01*
X110197952Y-133170244D01*
X109930865Y-133103977D01*
X109655983Y-133091090D01*
X109383867Y-133132078D01*
X109124977Y-133225364D01*
X109009020Y-133287344D01*
X108942040Y-133527435D01*
X108198090Y-133527435D01*
X108078535Y-133407880D01*
X107849727Y-133254995D01*
X107595490Y-133149686D01*
X107325592Y-133096000D01*
X107050408Y-133096000D01*
X106780510Y-133149686D01*
X106526273Y-133254995D01*
X106297465Y-133407880D01*
X106102880Y-133602465D01*
X105949995Y-133831273D01*
X105918000Y-133908515D01*
X105886005Y-133831273D01*
X105733120Y-133602465D01*
X105538535Y-133407880D01*
X105309727Y-133254995D01*
X105055490Y-133149686D01*
X104785592Y-133096000D01*
X104510408Y-133096000D01*
X104240510Y-133149686D01*
X103986273Y-133254995D01*
X103757465Y-133407880D01*
X103562880Y-133602465D01*
X103409995Y-133831273D01*
X103378000Y-133908515D01*
X103346005Y-133831273D01*
X103193120Y-133602465D01*
X102998535Y-133407880D01*
X102769727Y-133254995D01*
X102515490Y-133149686D01*
X102245592Y-133096000D01*
X101970408Y-133096000D01*
X101700510Y-133149686D01*
X101446273Y-133254995D01*
X101217465Y-133407880D01*
X101022880Y-133602465D01*
X100869995Y-133831273D01*
X100838000Y-133908515D01*
X100806005Y-133831273D01*
X100653120Y-133602465D01*
X100458535Y-133407880D01*
X100229727Y-133254995D01*
X99975490Y-133149686D01*
X99705592Y-133096000D01*
X99430408Y-133096000D01*
X99160510Y-133149686D01*
X98906273Y-133254995D01*
X98677465Y-133407880D01*
X98482880Y-133602465D01*
X98329995Y-133831273D01*
X98298000Y-133908515D01*
X98266005Y-133831273D01*
X98113120Y-133602465D01*
X97918535Y-133407880D01*
X97689727Y-133254995D01*
X97435490Y-133149686D01*
X97165592Y-133096000D01*
X96890408Y-133096000D01*
X96620510Y-133149686D01*
X96366273Y-133254995D01*
X96137465Y-133407880D01*
X95942880Y-133602465D01*
X95789995Y-133831273D01*
X95758000Y-133908515D01*
X95726005Y-133831273D01*
X95573120Y-133602465D01*
X95378535Y-133407880D01*
X95149727Y-133254995D01*
X94895490Y-133149686D01*
X94625592Y-133096000D01*
X94350408Y-133096000D01*
X94080510Y-133149686D01*
X93826273Y-133254995D01*
X93597465Y-133407880D01*
X93402880Y-133602465D01*
X93249995Y-133831273D01*
X93220308Y-133902943D01*
X93215636Y-133889977D01*
X93153656Y-133774020D01*
X92913565Y-133707040D01*
X92127605Y-134493000D01*
X91768395Y-134493000D01*
X90982435Y-133707040D01*
X90742344Y-133774020D01*
X90678515Y-133909760D01*
X90646005Y-133831273D01*
X90493120Y-133602465D01*
X90418090Y-133527435D01*
X91162040Y-133527435D01*
X91948000Y-134313395D01*
X92733960Y-133527435D01*
X92666980Y-133287344D01*
X92417952Y-133170244D01*
X92150865Y-133103977D01*
X91875983Y-133091090D01*
X91603867Y-133132078D01*
X91344977Y-133225364D01*
X91229020Y-133287344D01*
X91162040Y-133527435D01*
X90418090Y-133527435D01*
X90298535Y-133407880D01*
X90069727Y-133254995D01*
X89815490Y-133149686D01*
X89545592Y-133096000D01*
X89270408Y-133096000D01*
X89000510Y-133149686D01*
X88746273Y-133254995D01*
X88517465Y-133407880D01*
X88322880Y-133602465D01*
X88169995Y-133831273D01*
X88064686Y-134085510D01*
X88011000Y-134355408D01*
X83660000Y-134355408D01*
X83660000Y-110860408D01*
X88011000Y-110860408D01*
X88011000Y-111135592D01*
X88064686Y-111405490D01*
X88169995Y-111659727D01*
X88322880Y-111888535D01*
X88517465Y-112083120D01*
X88746273Y-112236005D01*
X89000510Y-112341314D01*
X89270408Y-112395000D01*
X89545592Y-112395000D01*
X89815490Y-112341314D01*
X90069727Y-112236005D01*
X90298535Y-112083120D01*
X90418090Y-111963565D01*
X91162040Y-111963565D01*
X91229020Y-112203656D01*
X91478048Y-112320756D01*
X91745135Y-112387023D01*
X92020017Y-112399910D01*
X92292133Y-112358922D01*
X92551023Y-112265636D01*
X92666980Y-112203656D01*
X92733960Y-111963565D01*
X91948000Y-111177605D01*
X91162040Y-111963565D01*
X90418090Y-111963565D01*
X90493120Y-111888535D01*
X90646005Y-111659727D01*
X90675692Y-111588057D01*
X90680364Y-111601023D01*
X90742344Y-111716980D01*
X90982435Y-111783960D01*
X91768395Y-110998000D01*
X92127605Y-110998000D01*
X92913565Y-111783960D01*
X93153656Y-111716980D01*
X93217485Y-111581240D01*
X93249995Y-111659727D01*
X93402880Y-111888535D01*
X93597465Y-112083120D01*
X93826273Y-112236005D01*
X94080510Y-112341314D01*
X94350408Y-112395000D01*
X94625592Y-112395000D01*
X94895490Y-112341314D01*
X95149727Y-112236005D01*
X95378535Y-112083120D01*
X95573120Y-111888535D01*
X95726005Y-111659727D01*
X95758000Y-111582485D01*
X95789995Y-111659727D01*
X95942880Y-111888535D01*
X96137465Y-112083120D01*
X96366273Y-112236005D01*
X96620510Y-112341314D01*
X96890408Y-112395000D01*
X97165592Y-112395000D01*
X97435490Y-112341314D01*
X97689727Y-112236005D01*
X97918535Y-112083120D01*
X98113120Y-111888535D01*
X98266005Y-111659727D01*
X98298000Y-111582485D01*
X98329995Y-111659727D01*
X98482880Y-111888535D01*
X98677465Y-112083120D01*
X98906273Y-112236005D01*
X99160510Y-112341314D01*
X99430408Y-112395000D01*
X99705592Y-112395000D01*
X99975490Y-112341314D01*
X100229727Y-112236005D01*
X100458535Y-112083120D01*
X100578090Y-111963565D01*
X101322040Y-111963565D01*
X101389020Y-112203656D01*
X101638048Y-112320756D01*
X101905135Y-112387023D01*
X102180017Y-112399910D01*
X102452133Y-112358922D01*
X102711023Y-112265636D01*
X102826980Y-112203656D01*
X102893960Y-111963565D01*
X102108000Y-111177605D01*
X101322040Y-111963565D01*
X100578090Y-111963565D01*
X100653120Y-111888535D01*
X100806005Y-111659727D01*
X100835692Y-111588057D01*
X100840364Y-111601023D01*
X100902344Y-111716980D01*
X101142435Y-111783960D01*
X101928395Y-110998000D01*
X101142435Y-110212040D01*
X100902344Y-110279020D01*
X100838515Y-110414760D01*
X100806005Y-110336273D01*
X100653120Y-110107465D01*
X100578090Y-110032435D01*
X101322040Y-110032435D01*
X102108000Y-110818395D01*
X102893960Y-110032435D01*
X102826980Y-109792344D01*
X102577952Y-109675244D01*
X102310865Y-109608977D01*
X102035983Y-109596090D01*
X101763867Y-109637078D01*
X101504977Y-109730364D01*
X101389020Y-109792344D01*
X101322040Y-110032435D01*
X100578090Y-110032435D01*
X100458535Y-109912880D01*
X100229727Y-109759995D01*
X99975490Y-109654686D01*
X99705592Y-109601000D01*
X99430408Y-109601000D01*
X99160510Y-109654686D01*
X98906273Y-109759995D01*
X98677465Y-109912880D01*
X98482880Y-110107465D01*
X98329995Y-110336273D01*
X98298000Y-110413515D01*
X98266005Y-110336273D01*
X98113120Y-110107465D01*
X97918535Y-109912880D01*
X97689727Y-109759995D01*
X97435490Y-109654686D01*
X97165592Y-109601000D01*
X96890408Y-109601000D01*
X96620510Y-109654686D01*
X96366273Y-109759995D01*
X96137465Y-109912880D01*
X95942880Y-110107465D01*
X95789995Y-110336273D01*
X95758000Y-110413515D01*
X95726005Y-110336273D01*
X95573120Y-110107465D01*
X95378535Y-109912880D01*
X95149727Y-109759995D01*
X94895490Y-109654686D01*
X94625592Y-109601000D01*
X94350408Y-109601000D01*
X94080510Y-109654686D01*
X93826273Y-109759995D01*
X93597465Y-109912880D01*
X93402880Y-110107465D01*
X93249995Y-110336273D01*
X93220308Y-110407943D01*
X93215636Y-110394977D01*
X93153656Y-110279020D01*
X92913565Y-110212040D01*
X92127605Y-110998000D01*
X91768395Y-110998000D01*
X90982435Y-110212040D01*
X90742344Y-110279020D01*
X90678515Y-110414760D01*
X90646005Y-110336273D01*
X90493120Y-110107465D01*
X90418090Y-110032435D01*
X91162040Y-110032435D01*
X91948000Y-110818395D01*
X92733960Y-110032435D01*
X92666980Y-109792344D01*
X92417952Y-109675244D01*
X92150865Y-109608977D01*
X91875983Y-109596090D01*
X91603867Y-109637078D01*
X91344977Y-109730364D01*
X91229020Y-109792344D01*
X91162040Y-110032435D01*
X90418090Y-110032435D01*
X90298535Y-109912880D01*
X90069727Y-109759995D01*
X89815490Y-109654686D01*
X89545592Y-109601000D01*
X89270408Y-109601000D01*
X89000510Y-109654686D01*
X88746273Y-109759995D01*
X88517465Y-109912880D01*
X88322880Y-110107465D01*
X88169995Y-110336273D01*
X88064686Y-110590510D01*
X88011000Y-110860408D01*
X83660000Y-110860408D01*
X83660000Y-71247000D01*
X84580324Y-71247000D01*
X84584001Y-71284333D01*
X84584000Y-100033090D01*
X84580324Y-100070412D01*
X84584000Y-100107734D01*
X84584000Y-100107744D01*
X84594997Y-100219397D01*
X84635217Y-100351986D01*
X84638454Y-100362658D01*
X84709026Y-100494688D01*
X84748871Y-100543238D01*
X84803999Y-100610413D01*
X84833003Y-100634216D01*
X91594803Y-107396017D01*
X91618597Y-107425010D01*
X91647590Y-107448804D01*
X91647595Y-107448809D01*
X91734321Y-107519984D01*
X91866351Y-107590556D01*
X92009612Y-107634012D01*
X92158598Y-107648686D01*
X92195931Y-107645009D01*
X101232076Y-107645011D01*
X101269399Y-107648687D01*
X101306721Y-107645011D01*
X101306731Y-107645011D01*
X101418384Y-107634014D01*
X101561645Y-107590557D01*
X101561649Y-107590555D01*
X101693675Y-107519985D01*
X101780401Y-107448810D01*
X101780402Y-107448809D01*
X101809399Y-107425012D01*
X101833197Y-107396014D01*
X108163213Y-101065999D01*
X108661928Y-101065999D01*
X108661928Y-102431000D01*
X108674188Y-102555482D01*
X108710498Y-102675180D01*
X108769463Y-102785494D01*
X108848815Y-102882185D01*
X108945506Y-102961537D01*
X109055820Y-103020502D01*
X109175518Y-103056812D01*
X109300000Y-103069072D01*
X110663271Y-103069072D01*
X113642200Y-106048002D01*
X113665999Y-106077001D01*
X113746119Y-106142754D01*
X113781724Y-106171974D01*
X113913753Y-106242546D01*
X114057014Y-106286003D01*
X114206000Y-106300677D01*
X114243333Y-106297000D01*
X115128199Y-106297000D01*
X117675002Y-108843805D01*
X117675002Y-109638676D01*
X117485592Y-109601000D01*
X117210408Y-109601000D01*
X116940510Y-109654686D01*
X116686273Y-109759995D01*
X116457465Y-109912880D01*
X116262880Y-110107465D01*
X116109995Y-110336273D01*
X116078000Y-110413515D01*
X116046005Y-110336273D01*
X115893120Y-110107465D01*
X115698535Y-109912880D01*
X115469727Y-109759995D01*
X115215490Y-109654686D01*
X114945592Y-109601000D01*
X114670408Y-109601000D01*
X114400510Y-109654686D01*
X114146273Y-109759995D01*
X113917465Y-109912880D01*
X113722880Y-110107465D01*
X113569995Y-110336273D01*
X113538000Y-110413515D01*
X113506005Y-110336273D01*
X113353120Y-110107465D01*
X113158535Y-109912880D01*
X112929727Y-109759995D01*
X112675490Y-109654686D01*
X112405592Y-109601000D01*
X112130408Y-109601000D01*
X111860510Y-109654686D01*
X111606273Y-109759995D01*
X111377465Y-109912880D01*
X111182880Y-110107465D01*
X111029995Y-110336273D01*
X110998000Y-110413515D01*
X110966005Y-110336273D01*
X110813120Y-110107465D01*
X110618535Y-109912880D01*
X110389727Y-109759995D01*
X110135490Y-109654686D01*
X109865592Y-109601000D01*
X109590408Y-109601000D01*
X109320510Y-109654686D01*
X109066273Y-109759995D01*
X108837465Y-109912880D01*
X108642880Y-110107465D01*
X108489995Y-110336273D01*
X108458000Y-110413515D01*
X108426005Y-110336273D01*
X108273120Y-110107465D01*
X108078535Y-109912880D01*
X107849727Y-109759995D01*
X107595490Y-109654686D01*
X107325592Y-109601000D01*
X107050408Y-109601000D01*
X106780510Y-109654686D01*
X106526273Y-109759995D01*
X106297465Y-109912880D01*
X106102880Y-110107465D01*
X105949995Y-110336273D01*
X105918000Y-110413515D01*
X105886005Y-110336273D01*
X105733120Y-110107465D01*
X105538535Y-109912880D01*
X105309727Y-109759995D01*
X105055490Y-109654686D01*
X104785592Y-109601000D01*
X104510408Y-109601000D01*
X104240510Y-109654686D01*
X103986273Y-109759995D01*
X103757465Y-109912880D01*
X103562880Y-110107465D01*
X103409995Y-110336273D01*
X103380308Y-110407943D01*
X103375636Y-110394977D01*
X103313656Y-110279020D01*
X103073565Y-110212040D01*
X102287605Y-110998000D01*
X103073565Y-111783960D01*
X103313656Y-111716980D01*
X103377485Y-111581240D01*
X103409995Y-111659727D01*
X103562880Y-111888535D01*
X103757465Y-112083120D01*
X103986273Y-112236005D01*
X104240510Y-112341314D01*
X104510408Y-112395000D01*
X104785592Y-112395000D01*
X105055490Y-112341314D01*
X105309727Y-112236005D01*
X105538535Y-112083120D01*
X105733120Y-111888535D01*
X105886005Y-111659727D01*
X105918000Y-111582485D01*
X105949995Y-111659727D01*
X106102880Y-111888535D01*
X106297465Y-112083120D01*
X106526273Y-112236005D01*
X106780510Y-112341314D01*
X107050408Y-112395000D01*
X107325592Y-112395000D01*
X107595490Y-112341314D01*
X107849727Y-112236005D01*
X108078535Y-112083120D01*
X108273120Y-111888535D01*
X108426005Y-111659727D01*
X108458000Y-111582485D01*
X108489995Y-111659727D01*
X108642880Y-111888535D01*
X108837465Y-112083120D01*
X109066273Y-112236005D01*
X109320510Y-112341314D01*
X109590408Y-112395000D01*
X109865592Y-112395000D01*
X110135490Y-112341314D01*
X110389727Y-112236005D01*
X110618535Y-112083120D01*
X110813120Y-111888535D01*
X110966005Y-111659727D01*
X110998000Y-111582485D01*
X111029995Y-111659727D01*
X111182880Y-111888535D01*
X111377465Y-112083120D01*
X111606273Y-112236005D01*
X111860510Y-112341314D01*
X112130408Y-112395000D01*
X112405592Y-112395000D01*
X112675490Y-112341314D01*
X112929727Y-112236005D01*
X113158535Y-112083120D01*
X113353120Y-111888535D01*
X113506005Y-111659727D01*
X113538000Y-111582485D01*
X113569995Y-111659727D01*
X113722880Y-111888535D01*
X113917465Y-112083120D01*
X114146273Y-112236005D01*
X114400510Y-112341314D01*
X114670408Y-112395000D01*
X114945592Y-112395000D01*
X115215490Y-112341314D01*
X115469727Y-112236005D01*
X115698535Y-112083120D01*
X115893120Y-111888535D01*
X116046005Y-111659727D01*
X116078000Y-111582485D01*
X116109995Y-111659727D01*
X116262880Y-111888535D01*
X116457465Y-112083120D01*
X116686273Y-112236005D01*
X116940510Y-112341314D01*
X117210408Y-112395000D01*
X117485592Y-112395000D01*
X117675002Y-112357324D01*
X117675001Y-131099089D01*
X117671325Y-131136411D01*
X117675001Y-131173733D01*
X117675001Y-131173743D01*
X117685998Y-131285396D01*
X117721285Y-131401724D01*
X117729455Y-131428657D01*
X117800027Y-131560687D01*
X117839872Y-131609237D01*
X117895000Y-131676412D01*
X117924004Y-131700215D01*
X119404824Y-133181036D01*
X119226273Y-133254995D01*
X118997465Y-133407880D01*
X118802880Y-133602465D01*
X118649995Y-133831273D01*
X118618000Y-133908515D01*
X118586005Y-133831273D01*
X118433120Y-133602465D01*
X118238535Y-133407880D01*
X118009727Y-133254995D01*
X117755490Y-133149686D01*
X117485592Y-133096000D01*
X117210408Y-133096000D01*
X116940510Y-133149686D01*
X116686273Y-133254995D01*
X116457465Y-133407880D01*
X116262880Y-133602465D01*
X116109995Y-133831273D01*
X116078000Y-133908515D01*
X116046005Y-133831273D01*
X115893120Y-133602465D01*
X115698535Y-133407880D01*
X115469727Y-133254995D01*
X115215490Y-133149686D01*
X114945592Y-133096000D01*
X114670408Y-133096000D01*
X114400510Y-133149686D01*
X114146273Y-133254995D01*
X113917465Y-133407880D01*
X113722880Y-133602465D01*
X113569995Y-133831273D01*
X113538000Y-133908515D01*
X113506005Y-133831273D01*
X113353120Y-133602465D01*
X113158535Y-133407880D01*
X112929727Y-133254995D01*
X112675490Y-133149686D01*
X112405592Y-133096000D01*
X112130408Y-133096000D01*
X111860510Y-133149686D01*
X111606273Y-133254995D01*
X111377465Y-133407880D01*
X111182880Y-133602465D01*
X111029995Y-133831273D01*
X111000308Y-133902943D01*
X110995636Y-133889977D01*
X110933656Y-133774020D01*
X110693565Y-133707040D01*
X109907605Y-134493000D01*
X110693565Y-135278960D01*
X110933656Y-135211980D01*
X110997485Y-135076240D01*
X111029995Y-135154727D01*
X111182880Y-135383535D01*
X111377465Y-135578120D01*
X111606273Y-135731005D01*
X111860510Y-135836314D01*
X112130408Y-135890000D01*
X112405592Y-135890000D01*
X112675490Y-135836314D01*
X112929727Y-135731005D01*
X113158535Y-135578120D01*
X113353120Y-135383535D01*
X113506005Y-135154727D01*
X113538000Y-135077485D01*
X113569995Y-135154727D01*
X113722880Y-135383535D01*
X113917465Y-135578120D01*
X114146273Y-135731005D01*
X114400510Y-135836314D01*
X114670408Y-135890000D01*
X114945592Y-135890000D01*
X115215490Y-135836314D01*
X115469727Y-135731005D01*
X115698535Y-135578120D01*
X115893120Y-135383535D01*
X116046005Y-135154727D01*
X116078000Y-135077485D01*
X116109995Y-135154727D01*
X116262880Y-135383535D01*
X116457465Y-135578120D01*
X116686273Y-135731005D01*
X116940510Y-135836314D01*
X117210408Y-135890000D01*
X117485592Y-135890000D01*
X117755490Y-135836314D01*
X118009727Y-135731005D01*
X118238535Y-135578120D01*
X118433120Y-135383535D01*
X118586005Y-135154727D01*
X118618000Y-135077485D01*
X118649995Y-135154727D01*
X118802880Y-135383535D01*
X118997465Y-135578120D01*
X119226273Y-135731005D01*
X119480510Y-135836314D01*
X119750408Y-135890000D01*
X120025592Y-135890000D01*
X120295490Y-135836314D01*
X120549727Y-135731005D01*
X120631539Y-135676340D01*
X121864201Y-136909003D01*
X121887999Y-136938001D01*
X121916997Y-136961799D01*
X122003723Y-137032974D01*
X122135753Y-137103546D01*
X122279014Y-137147003D01*
X122390667Y-137158000D01*
X122390677Y-137158000D01*
X122428000Y-137161676D01*
X122465323Y-137158000D01*
X123025678Y-137158000D01*
X123063000Y-137161676D01*
X123100322Y-137158000D01*
X123100333Y-137158000D01*
X123211986Y-137147003D01*
X123355247Y-137103546D01*
X123487276Y-137032974D01*
X123603001Y-136938001D01*
X123626804Y-136908997D01*
X124676430Y-135859372D01*
X124830408Y-135890000D01*
X125105592Y-135890000D01*
X125375490Y-135836314D01*
X125629727Y-135731005D01*
X125858535Y-135578120D01*
X126053120Y-135383535D01*
X126206005Y-135154727D01*
X126311314Y-134900490D01*
X126365000Y-134630592D01*
X126365000Y-134355408D01*
X126311314Y-134085510D01*
X126206005Y-133831273D01*
X126053120Y-133602465D01*
X125858535Y-133407880D01*
X125629727Y-133254995D01*
X125375490Y-133149686D01*
X125105592Y-133096000D01*
X124830408Y-133096000D01*
X124560510Y-133149686D01*
X124306273Y-133254995D01*
X124077465Y-133407880D01*
X123882880Y-133602465D01*
X123729995Y-133831273D01*
X123698000Y-133908515D01*
X123666005Y-133831273D01*
X123513120Y-133602465D01*
X123318535Y-133407880D01*
X123089727Y-133254995D01*
X122835490Y-133149686D01*
X122565592Y-133096000D01*
X122290408Y-133096000D01*
X122136430Y-133126628D01*
X120521000Y-131511199D01*
X120521000Y-114360801D01*
X121486005Y-113395797D01*
X121515002Y-113372000D01*
X121609975Y-113256275D01*
X121680547Y-113124246D01*
X121724004Y-112980985D01*
X121735001Y-112869332D01*
X121735001Y-112869324D01*
X121738677Y-112831999D01*
X121735001Y-112794674D01*
X121735001Y-112215110D01*
X121766273Y-112236005D01*
X122020510Y-112341314D01*
X122290408Y-112395000D01*
X122565592Y-112395000D01*
X122835490Y-112341314D01*
X123089727Y-112236005D01*
X123318535Y-112083120D01*
X123513120Y-111888535D01*
X123666005Y-111659727D01*
X123698000Y-111582485D01*
X123729995Y-111659727D01*
X123882880Y-111888535D01*
X124077465Y-112083120D01*
X124306273Y-112236005D01*
X124560510Y-112341314D01*
X124830408Y-112395000D01*
X125105592Y-112395000D01*
X125375490Y-112341314D01*
X125629727Y-112236005D01*
X125858535Y-112083120D01*
X126053120Y-111888535D01*
X126206005Y-111659727D01*
X126311314Y-111405490D01*
X126365000Y-111135592D01*
X126365000Y-110860408D01*
X126311314Y-110590510D01*
X126206005Y-110336273D01*
X126053120Y-110107465D01*
X125858535Y-109912880D01*
X125629727Y-109759995D01*
X125375490Y-109654686D01*
X125105592Y-109601000D01*
X124830408Y-109601000D01*
X124560510Y-109654686D01*
X124306273Y-109759995D01*
X124077465Y-109912880D01*
X123882880Y-110107465D01*
X123729995Y-110336273D01*
X123698000Y-110413515D01*
X123666005Y-110336273D01*
X123513120Y-110107465D01*
X123318535Y-109912880D01*
X123089727Y-109759995D01*
X122835490Y-109654686D01*
X122565592Y-109601000D01*
X122290408Y-109601000D01*
X122020510Y-109654686D01*
X121766273Y-109759995D01*
X121735001Y-109780890D01*
X121735001Y-107169323D01*
X121738677Y-107132000D01*
X121735001Y-107094677D01*
X121735001Y-107094668D01*
X121724004Y-106983015D01*
X121680547Y-106839754D01*
X121609975Y-106707725D01*
X121515002Y-106592000D01*
X121486004Y-106568202D01*
X119886000Y-104968199D01*
X119886000Y-103069072D01*
X120026000Y-103069072D01*
X120150482Y-103056812D01*
X120270180Y-103020502D01*
X120380494Y-102961537D01*
X120477185Y-102882185D01*
X120556537Y-102785494D01*
X120615502Y-102675180D01*
X120621056Y-102656873D01*
X120687495Y-102723312D01*
X120938905Y-102891299D01*
X121218257Y-103007011D01*
X121514816Y-103066000D01*
X121817184Y-103066000D01*
X122113743Y-103007011D01*
X122393095Y-102891299D01*
X122644505Y-102723312D01*
X122858312Y-102509505D01*
X123026299Y-102258095D01*
X123142011Y-101978743D01*
X123201000Y-101682184D01*
X123201000Y-101379816D01*
X123142011Y-101083257D01*
X123026299Y-100803905D01*
X122858312Y-100552495D01*
X122855817Y-100550000D01*
X127470928Y-100550000D01*
X127470928Y-102650000D01*
X127483188Y-102774482D01*
X127519498Y-102894180D01*
X127578463Y-103004494D01*
X127657815Y-103101185D01*
X127754506Y-103180537D01*
X127768546Y-103188042D01*
X127665772Y-103341853D01*
X127538754Y-103648504D01*
X127474000Y-103974042D01*
X127474000Y-104305958D01*
X127538754Y-104631496D01*
X127665772Y-104938147D01*
X127850175Y-105214125D01*
X128046050Y-105410000D01*
X127850175Y-105605875D01*
X127665772Y-105881853D01*
X127538754Y-106188504D01*
X127474000Y-106514042D01*
X127474000Y-106845958D01*
X127538754Y-107171496D01*
X127665772Y-107478147D01*
X127850175Y-107754125D01*
X128084875Y-107988825D01*
X128360853Y-108173228D01*
X128667504Y-108300246D01*
X128993042Y-108365000D01*
X129324958Y-108365000D01*
X129650496Y-108300246D01*
X129957147Y-108173228D01*
X130233125Y-107988825D01*
X130467825Y-107754125D01*
X130652228Y-107478147D01*
X130779246Y-107171496D01*
X130844000Y-106845958D01*
X130844000Y-106514042D01*
X130779246Y-106188504D01*
X130652228Y-105881853D01*
X130467825Y-105605875D01*
X130271950Y-105410000D01*
X130467825Y-105214125D01*
X130652228Y-104938147D01*
X130779246Y-104631496D01*
X130844000Y-104305958D01*
X130844000Y-103974042D01*
X130779246Y-103648504D01*
X130652228Y-103341853D01*
X130549454Y-103188042D01*
X130563494Y-103180537D01*
X130660185Y-103101185D01*
X130739537Y-103004494D01*
X130798502Y-102894180D01*
X130834812Y-102774482D01*
X130847072Y-102650000D01*
X130847072Y-100550000D01*
X130834812Y-100425518D01*
X130798502Y-100305820D01*
X130739537Y-100195506D01*
X130660185Y-100098815D01*
X130563494Y-100019463D01*
X130453180Y-99960498D01*
X130333482Y-99924188D01*
X130209000Y-99911928D01*
X128109000Y-99911928D01*
X127984518Y-99924188D01*
X127864820Y-99960498D01*
X127754506Y-100019463D01*
X127657815Y-100098815D01*
X127578463Y-100195506D01*
X127519498Y-100305820D01*
X127483188Y-100425518D01*
X127470928Y-100550000D01*
X122855817Y-100550000D01*
X122644505Y-100338688D01*
X122393095Y-100170701D01*
X122113743Y-100054989D01*
X121817184Y-99996000D01*
X121514816Y-99996000D01*
X121257071Y-100047268D01*
X118996804Y-97787003D01*
X118973001Y-97757999D01*
X118857276Y-97663026D01*
X118725247Y-97592454D01*
X118581986Y-97548997D01*
X118470333Y-97538000D01*
X118470322Y-97538000D01*
X118433000Y-97534324D01*
X118395678Y-97538000D01*
X109257322Y-97538000D01*
X109219999Y-97534324D01*
X109182676Y-97538000D01*
X109182667Y-97538000D01*
X109071014Y-97548997D01*
X108927753Y-97592454D01*
X108795724Y-97663026D01*
X108679999Y-97757999D01*
X108656201Y-97786997D01*
X101264204Y-105178995D01*
X101232696Y-105020595D01*
X101132061Y-104777641D01*
X100985962Y-104558987D01*
X100800013Y-104373038D01*
X100709000Y-104312225D01*
X100709000Y-102145322D01*
X100712676Y-102107999D01*
X100709000Y-102070676D01*
X100709000Y-102070667D01*
X100698003Y-101959014D01*
X100654546Y-101815753D01*
X100583974Y-101683724D01*
X100489001Y-101567999D01*
X100475492Y-101556913D01*
X100581359Y-101513061D01*
X100800013Y-101366962D01*
X100985962Y-101181013D01*
X101132061Y-100962359D01*
X101232696Y-100719405D01*
X101284000Y-100461486D01*
X101284000Y-100198514D01*
X101232696Y-99940595D01*
X101132061Y-99697641D01*
X100985962Y-99478987D01*
X100800013Y-99293038D01*
X100709000Y-99232225D01*
X100709000Y-96001249D01*
X100806250Y-96000000D01*
X100965000Y-95841250D01*
X100965000Y-95068109D01*
X100965215Y-95067400D01*
X100982000Y-94896979D01*
X100982000Y-94742000D01*
X101219000Y-94742000D01*
X101219000Y-95841250D01*
X101377750Y-96000000D01*
X101617000Y-96003072D01*
X101741482Y-95990812D01*
X101861180Y-95954502D01*
X101971494Y-95895537D01*
X102068185Y-95816185D01*
X102147537Y-95719494D01*
X102206502Y-95609180D01*
X102242812Y-95489482D01*
X102255072Y-95365000D01*
X102252000Y-94900750D01*
X102093250Y-94742000D01*
X101219000Y-94742000D01*
X100982000Y-94742000D01*
X100982000Y-94333022D01*
X100965215Y-94162601D01*
X100965000Y-94161892D01*
X100965000Y-93388750D01*
X101219000Y-93388750D01*
X101219000Y-94488000D01*
X102093250Y-94488000D01*
X102252000Y-94329250D01*
X102255072Y-93865000D01*
X102242812Y-93740518D01*
X102206502Y-93620820D01*
X102147537Y-93510506D01*
X102068185Y-93413815D01*
X101971494Y-93334463D01*
X101861180Y-93275498D01*
X101741482Y-93239188D01*
X101617000Y-93226928D01*
X101377750Y-93230000D01*
X101219000Y-93388750D01*
X100965000Y-93388750D01*
X100806250Y-93230000D01*
X100567000Y-93226928D01*
X100442518Y-93239188D01*
X100322820Y-93275498D01*
X100258098Y-93310093D01*
X100049400Y-93246785D01*
X99822000Y-93224388D01*
X99594601Y-93246785D01*
X99375941Y-93313115D01*
X99312000Y-93347292D01*
X99312000Y-91754801D01*
X99914801Y-91152000D01*
X127470928Y-91152000D01*
X127470928Y-93252000D01*
X127483188Y-93376482D01*
X127519498Y-93496180D01*
X127578463Y-93606494D01*
X127657815Y-93703185D01*
X127754506Y-93782537D01*
X127768546Y-93790042D01*
X127665772Y-93943853D01*
X127538754Y-94250504D01*
X127474000Y-94576042D01*
X127474000Y-94907958D01*
X127538754Y-95233496D01*
X127665772Y-95540147D01*
X127850175Y-95816125D01*
X128046050Y-96012000D01*
X127850175Y-96207875D01*
X127665772Y-96483853D01*
X127538754Y-96790504D01*
X127474000Y-97116042D01*
X127474000Y-97447958D01*
X127538754Y-97773496D01*
X127665772Y-98080147D01*
X127850175Y-98356125D01*
X128084875Y-98590825D01*
X128360853Y-98775228D01*
X128667504Y-98902246D01*
X128993042Y-98967000D01*
X129324958Y-98967000D01*
X129650496Y-98902246D01*
X129957147Y-98775228D01*
X130233125Y-98590825D01*
X130467825Y-98356125D01*
X130652228Y-98080147D01*
X130779246Y-97773496D01*
X130844000Y-97447958D01*
X130844000Y-97116042D01*
X130779246Y-96790504D01*
X130652228Y-96483853D01*
X130467825Y-96207875D01*
X130271950Y-96012000D01*
X130467825Y-95816125D01*
X130652228Y-95540147D01*
X130779246Y-95233496D01*
X130844000Y-94907958D01*
X130844000Y-94576042D01*
X130779246Y-94250504D01*
X130652228Y-93943853D01*
X130549454Y-93790042D01*
X130563494Y-93782537D01*
X130660185Y-93703185D01*
X130739537Y-93606494D01*
X130798502Y-93496180D01*
X130834812Y-93376482D01*
X130847072Y-93252000D01*
X130847072Y-91152000D01*
X130834812Y-91027518D01*
X130798502Y-90907820D01*
X130739537Y-90797506D01*
X130660185Y-90700815D01*
X130563494Y-90621463D01*
X130453180Y-90562498D01*
X130333482Y-90526188D01*
X130209000Y-90513928D01*
X128109000Y-90513928D01*
X127984518Y-90526188D01*
X127864820Y-90562498D01*
X127754506Y-90621463D01*
X127657815Y-90700815D01*
X127578463Y-90797506D01*
X127519498Y-90907820D01*
X127483188Y-91027518D01*
X127470928Y-91152000D01*
X99914801Y-91152000D01*
X102283730Y-88783072D01*
X104147000Y-88783072D01*
X104271482Y-88770812D01*
X104391180Y-88734502D01*
X104501494Y-88675537D01*
X104598185Y-88596185D01*
X104677537Y-88499494D01*
X104736502Y-88389180D01*
X104772812Y-88269482D01*
X104785072Y-88145000D01*
X104785072Y-86995000D01*
X111313122Y-86995000D01*
X111348552Y-87354722D01*
X111453479Y-87700621D01*
X111623872Y-88019403D01*
X111853182Y-88298818D01*
X112132597Y-88528128D01*
X112451379Y-88698521D01*
X112797278Y-88803448D01*
X113157000Y-88838878D01*
X113516722Y-88803448D01*
X113862621Y-88698521D01*
X114181403Y-88528128D01*
X114390803Y-88356278D01*
X117783082Y-84964000D01*
X128254311Y-84964000D01*
X128007597Y-85095872D01*
X127929457Y-85160000D01*
X120686861Y-85160000D01*
X120417277Y-85186552D01*
X120071378Y-85291479D01*
X119752596Y-85461871D01*
X119473181Y-85691181D01*
X119243871Y-85970596D01*
X119073479Y-86289378D01*
X118968552Y-86635277D01*
X118933122Y-86995000D01*
X118968552Y-87354723D01*
X119073479Y-87700622D01*
X119243871Y-88019404D01*
X119473181Y-88298819D01*
X119752596Y-88528129D01*
X120071378Y-88698521D01*
X120417277Y-88803448D01*
X120686861Y-88830000D01*
X128575861Y-88830000D01*
X128666000Y-88838878D01*
X128756139Y-88830000D01*
X129025723Y-88803448D01*
X129371622Y-88698521D01*
X129690404Y-88528129D01*
X129969819Y-88298819D01*
X130027287Y-88228794D01*
X130393278Y-87862803D01*
X130565128Y-87653403D01*
X130735521Y-87334621D01*
X130840448Y-86988724D01*
X130875878Y-86629001D01*
X130840448Y-86269278D01*
X130735521Y-85923379D01*
X130565128Y-85604597D01*
X130335818Y-85325182D01*
X130056403Y-85095872D01*
X129737621Y-84925479D01*
X129584400Y-84879000D01*
X129737622Y-84832521D01*
X130056404Y-84662129D01*
X130335819Y-84432819D01*
X130565129Y-84153404D01*
X130735521Y-83834622D01*
X130840448Y-83488723D01*
X130875878Y-83129000D01*
X130840448Y-82769277D01*
X130735521Y-82423378D01*
X130565129Y-82104596D01*
X130335819Y-81825181D01*
X130056404Y-81595871D01*
X129737622Y-81425479D01*
X129584400Y-81379000D01*
X129737620Y-81332521D01*
X130056403Y-81162128D01*
X130335818Y-80932818D01*
X130565128Y-80653403D01*
X130735521Y-80334620D01*
X130840448Y-79988722D01*
X130875878Y-79628999D01*
X130840448Y-79269277D01*
X130735521Y-78923379D01*
X130565128Y-78604597D01*
X130393278Y-78395197D01*
X130139287Y-78141206D01*
X130081819Y-78071181D01*
X129802404Y-77841871D01*
X129483622Y-77671479D01*
X129137723Y-77566552D01*
X128868139Y-77540000D01*
X128778000Y-77531122D01*
X128687861Y-77540000D01*
X118146861Y-77540000D01*
X117877277Y-77566552D01*
X117531378Y-77671479D01*
X117212596Y-77841871D01*
X116933181Y-78071181D01*
X116703871Y-78350596D01*
X116533479Y-78669378D01*
X116428552Y-79015277D01*
X116393122Y-79375000D01*
X116428552Y-79734723D01*
X116533479Y-80080622D01*
X116703871Y-80399404D01*
X116933181Y-80678819D01*
X117212596Y-80908129D01*
X117531378Y-81078521D01*
X117877277Y-81183448D01*
X118146861Y-81210000D01*
X128097159Y-81210000D01*
X128254311Y-81294000D01*
X117113141Y-81294000D01*
X117023000Y-81285122D01*
X116663277Y-81320551D01*
X116397885Y-81401058D01*
X116317378Y-81425479D01*
X115998596Y-81595871D01*
X115719181Y-81825181D01*
X115661717Y-81895201D01*
X111795722Y-85761197D01*
X111623872Y-85970597D01*
X111453479Y-86289379D01*
X111348552Y-86635278D01*
X111313122Y-86995000D01*
X104785072Y-86995000D01*
X104785072Y-86281731D01*
X104983010Y-86083793D01*
X105012002Y-86060000D01*
X105035796Y-86031007D01*
X105035800Y-86031003D01*
X105106974Y-85944276D01*
X105106975Y-85944275D01*
X105177547Y-85812246D01*
X105221004Y-85668985D01*
X105232001Y-85557332D01*
X105232001Y-85557323D01*
X105235677Y-85520000D01*
X105232001Y-85482677D01*
X105232001Y-78704332D01*
X105235678Y-78666999D01*
X105221004Y-78518013D01*
X105177547Y-78374752D01*
X105106975Y-78242723D01*
X105035800Y-78155996D01*
X105012002Y-78126998D01*
X104983004Y-78103200D01*
X103216875Y-76337072D01*
X104147000Y-76337072D01*
X104271482Y-76324812D01*
X104391180Y-76288502D01*
X104501494Y-76229537D01*
X104598185Y-76150185D01*
X104677537Y-76053494D01*
X104736502Y-75943180D01*
X104772812Y-75823482D01*
X104785072Y-75699000D01*
X104785072Y-74549000D01*
X111313122Y-74549000D01*
X111348552Y-74908722D01*
X111453479Y-75254621D01*
X111623872Y-75573403D01*
X111853182Y-75852818D01*
X112132597Y-76082128D01*
X112451379Y-76252521D01*
X112797278Y-76357448D01*
X113157000Y-76392878D01*
X113516722Y-76357448D01*
X113862621Y-76252521D01*
X114181403Y-76082128D01*
X114390803Y-75910278D01*
X117529082Y-72772000D01*
X120313607Y-72772000D01*
X120071378Y-72845479D01*
X119752596Y-73015871D01*
X119473181Y-73245181D01*
X119243871Y-73524596D01*
X119073479Y-73843378D01*
X118968552Y-74189277D01*
X118933122Y-74549000D01*
X118968552Y-74908723D01*
X119073479Y-75254622D01*
X119243871Y-75573404D01*
X119473181Y-75852819D01*
X119752596Y-76082129D01*
X120071378Y-76252521D01*
X120417277Y-76357448D01*
X120686861Y-76384000D01*
X128829861Y-76384000D01*
X128920000Y-76392878D01*
X129010139Y-76384000D01*
X129279723Y-76357448D01*
X129625622Y-76252521D01*
X129944404Y-76082129D01*
X130223819Y-75852819D01*
X130281290Y-75782791D01*
X130393278Y-75670802D01*
X130565128Y-75461403D01*
X130735521Y-75142621D01*
X130840448Y-74796722D01*
X130875878Y-74437000D01*
X130840448Y-74077278D01*
X130735521Y-73731379D01*
X130565128Y-73412597D01*
X130335818Y-73133182D01*
X130056403Y-72903872D01*
X129737621Y-72733479D01*
X129584400Y-72687000D01*
X129737622Y-72640521D01*
X130056404Y-72470129D01*
X130335819Y-72240819D01*
X130565129Y-71961404D01*
X130735521Y-71642622D01*
X130840448Y-71296723D01*
X130875878Y-70937000D01*
X130840448Y-70577277D01*
X130735521Y-70231378D01*
X130565129Y-69912596D01*
X130335819Y-69633181D01*
X130056404Y-69403871D01*
X129737622Y-69233479D01*
X129584400Y-69187000D01*
X129737620Y-69140521D01*
X130056402Y-68970128D01*
X130335818Y-68740818D01*
X130565128Y-68461402D01*
X130735521Y-68142620D01*
X130840448Y-67796722D01*
X130875878Y-67436999D01*
X130840448Y-67077276D01*
X130735521Y-66731379D01*
X130565128Y-66412597D01*
X130393278Y-66203197D01*
X129885287Y-65695206D01*
X129827819Y-65625181D01*
X129548404Y-65395871D01*
X129229622Y-65225479D01*
X128883723Y-65120552D01*
X128614139Y-65094000D01*
X128524000Y-65085122D01*
X128433861Y-65094000D01*
X118146861Y-65094000D01*
X117877277Y-65120552D01*
X117531378Y-65225479D01*
X117212596Y-65395871D01*
X116933181Y-65625181D01*
X116703871Y-65904596D01*
X116533479Y-66223378D01*
X116428552Y-66569277D01*
X116393122Y-66929000D01*
X116428552Y-67288723D01*
X116533479Y-67634622D01*
X116703871Y-67953404D01*
X116933181Y-68232819D01*
X117212596Y-68462129D01*
X117531378Y-68632521D01*
X117877277Y-68737448D01*
X118146861Y-68764000D01*
X127763919Y-68764000D01*
X127798197Y-68798278D01*
X128007597Y-68970128D01*
X128254311Y-69102000D01*
X116859138Y-69102000D01*
X116768999Y-69093122D01*
X116409276Y-69128552D01*
X116130888Y-69213000D01*
X116063378Y-69233479D01*
X115744596Y-69403871D01*
X115465181Y-69633181D01*
X115407717Y-69703201D01*
X111795722Y-73315197D01*
X111623872Y-73524597D01*
X111453479Y-73843379D01*
X111348552Y-74189278D01*
X111313122Y-74549000D01*
X104785072Y-74549000D01*
X104785072Y-73399000D01*
X104772812Y-73274518D01*
X104736502Y-73154820D01*
X104677537Y-73044506D01*
X104598185Y-72947815D01*
X104501494Y-72868463D01*
X104391180Y-72809498D01*
X104271482Y-72773188D01*
X104147000Y-72760928D01*
X101847000Y-72760928D01*
X101722518Y-72773188D01*
X101602820Y-72809498D01*
X101492506Y-72868463D01*
X101395815Y-72947815D01*
X101316463Y-73044506D01*
X101257498Y-73154820D01*
X101221188Y-73274518D01*
X101208928Y-73399000D01*
X101208928Y-75699000D01*
X101221188Y-75823482D01*
X101245916Y-75904999D01*
X98348361Y-75904999D01*
X98382000Y-75735883D01*
X98382000Y-75394117D01*
X98315325Y-75058919D01*
X98184537Y-74743169D01*
X97994663Y-74459002D01*
X97752998Y-74217337D01*
X97468831Y-74027463D01*
X97153081Y-73896675D01*
X96817883Y-73830000D01*
X96476117Y-73830000D01*
X96140919Y-73896675D01*
X95825169Y-74027463D01*
X95541002Y-74217337D01*
X95299337Y-74459002D01*
X95109463Y-74743169D01*
X94978675Y-75058919D01*
X94912000Y-75394117D01*
X94912000Y-75735883D01*
X94978675Y-76071081D01*
X95109463Y-76386831D01*
X95299337Y-76670998D01*
X95541002Y-76912663D01*
X95825169Y-77102537D01*
X96140919Y-77233325D01*
X96476117Y-77300000D01*
X96817883Y-77300000D01*
X97153081Y-77233325D01*
X97211850Y-77208982D01*
X97235996Y-77228798D01*
X97322723Y-77299973D01*
X97454752Y-77370545D01*
X97598013Y-77414002D01*
X97746999Y-77428676D01*
X97784332Y-77424999D01*
X102155200Y-77424999D01*
X102414436Y-77684235D01*
X102151485Y-77793153D01*
X101859129Y-77988500D01*
X101610500Y-78237129D01*
X101442873Y-78488000D01*
X98258072Y-78488000D01*
X98258072Y-78148000D01*
X98245812Y-78023518D01*
X98209502Y-77903820D01*
X98150537Y-77793506D01*
X98071185Y-77696815D01*
X97974494Y-77617463D01*
X97864180Y-77558498D01*
X97744482Y-77522188D01*
X97620000Y-77509928D01*
X95856730Y-77509928D01*
X94105000Y-75758199D01*
X94105000Y-69021801D01*
X95983730Y-67143072D01*
X97747000Y-67143072D01*
X97871482Y-67130812D01*
X97991180Y-67094502D01*
X98101494Y-67035537D01*
X98198185Y-66956185D01*
X98277537Y-66859494D01*
X98336502Y-66749180D01*
X98372812Y-66629482D01*
X98385072Y-66505000D01*
X98385072Y-66165000D01*
X101158199Y-66165000D01*
X101316018Y-66322819D01*
X101280596Y-66408335D01*
X101212000Y-66753193D01*
X101212000Y-67104807D01*
X101280596Y-67449665D01*
X101415153Y-67774515D01*
X101610500Y-68066871D01*
X101859129Y-68315500D01*
X102151485Y-68510847D01*
X102476335Y-68645404D01*
X102821193Y-68714000D01*
X103172807Y-68714000D01*
X103517665Y-68645404D01*
X103842515Y-68510847D01*
X104134871Y-68315500D01*
X104383500Y-68066871D01*
X104578847Y-67774515D01*
X104713404Y-67449665D01*
X104782000Y-67104807D01*
X104782000Y-66753193D01*
X104713404Y-66408335D01*
X104578847Y-66083485D01*
X104383500Y-65791129D01*
X104134871Y-65542500D01*
X103842515Y-65347153D01*
X103517665Y-65212596D01*
X103172807Y-65144000D01*
X102821193Y-65144000D01*
X102476335Y-65212596D01*
X102390819Y-65248018D01*
X102036803Y-64894002D01*
X102013001Y-64864999D01*
X101897276Y-64770026D01*
X101765247Y-64699454D01*
X101621986Y-64655997D01*
X101510333Y-64645000D01*
X101510322Y-64645000D01*
X101473000Y-64641324D01*
X101435678Y-64645000D01*
X98385072Y-64645000D01*
X98385072Y-64305000D01*
X98372812Y-64180518D01*
X98336502Y-64060820D01*
X98277537Y-63950506D01*
X98198185Y-63853815D01*
X98101494Y-63774463D01*
X97991180Y-63715498D01*
X97871482Y-63679188D01*
X97747000Y-63666928D01*
X95547000Y-63666928D01*
X95422518Y-63679188D01*
X95302820Y-63715498D01*
X95192506Y-63774463D01*
X95095815Y-63853815D01*
X95016463Y-63950506D01*
X94957498Y-64060820D01*
X94921188Y-64180518D01*
X94908928Y-64305000D01*
X94908928Y-66068270D01*
X92833998Y-68143201D01*
X92805000Y-68166999D01*
X92781202Y-68195997D01*
X92781201Y-68195998D01*
X92710026Y-68282724D01*
X92639454Y-68414754D01*
X92595998Y-68558015D01*
X92581324Y-68707000D01*
X92585001Y-68744332D01*
X92585000Y-75313000D01*
X91896043Y-75313000D01*
X91792637Y-75158241D01*
X91592759Y-74958363D01*
X91357727Y-74801320D01*
X91096574Y-74693147D01*
X90819335Y-74638000D01*
X90536665Y-74638000D01*
X90259426Y-74693147D01*
X89998273Y-74801320D01*
X89937038Y-74842236D01*
X89132804Y-74038002D01*
X89109001Y-74008999D01*
X88993276Y-73914026D01*
X88861247Y-73843454D01*
X88717986Y-73799997D01*
X88606333Y-73789000D01*
X88606322Y-73789000D01*
X88569000Y-73785324D01*
X88531678Y-73789000D01*
X88034320Y-73789000D01*
X87996997Y-73785324D01*
X87959674Y-73789000D01*
X87959665Y-73789000D01*
X87848012Y-73799997D01*
X87704751Y-73843454D01*
X87572722Y-73914026D01*
X87456997Y-74008999D01*
X87433199Y-74037997D01*
X86483998Y-74987199D01*
X86455000Y-75010997D01*
X86431202Y-75039995D01*
X86431201Y-75039996D01*
X86360026Y-75126722D01*
X86289454Y-75258752D01*
X86285207Y-75272754D01*
X86256408Y-75367696D01*
X86245998Y-75402013D01*
X86231324Y-75550998D01*
X86235001Y-75588330D01*
X86235000Y-77769225D01*
X86143987Y-77830038D01*
X86104000Y-77870025D01*
X86104000Y-71561801D01*
X87814114Y-69851688D01*
X87996665Y-69888000D01*
X88279335Y-69888000D01*
X88556574Y-69832853D01*
X88817727Y-69724680D01*
X89052759Y-69567637D01*
X89251357Y-69369039D01*
X89252188Y-69377482D01*
X89288498Y-69497180D01*
X89347463Y-69607494D01*
X89426815Y-69704185D01*
X89523506Y-69783537D01*
X89633820Y-69842502D01*
X89753518Y-69878812D01*
X89878000Y-69891072D01*
X91478000Y-69891072D01*
X91602482Y-69878812D01*
X91722180Y-69842502D01*
X91832494Y-69783537D01*
X91929185Y-69704185D01*
X92008537Y-69607494D01*
X92067502Y-69497180D01*
X92103812Y-69377482D01*
X92116072Y-69253000D01*
X92116072Y-67653000D01*
X92103812Y-67528518D01*
X92067502Y-67408820D01*
X92008537Y-67298506D01*
X91929185Y-67201815D01*
X91832494Y-67122463D01*
X91722180Y-67063498D01*
X91602482Y-67027188D01*
X91478000Y-67014928D01*
X89933730Y-67014928D01*
X88562645Y-65643844D01*
X88584000Y-65536486D01*
X88584000Y-65273514D01*
X90994000Y-65273514D01*
X90994000Y-65536486D01*
X91045304Y-65794405D01*
X91145939Y-66037359D01*
X91292038Y-66256013D01*
X91477987Y-66441962D01*
X91696641Y-66588061D01*
X91939595Y-66688696D01*
X92197514Y-66740000D01*
X92460486Y-66740000D01*
X92718405Y-66688696D01*
X92961359Y-66588061D01*
X93180013Y-66441962D01*
X93365962Y-66256013D01*
X93512061Y-66037359D01*
X93612696Y-65794405D01*
X93664000Y-65536486D01*
X93664000Y-65273514D01*
X93612696Y-65015595D01*
X93512061Y-64772641D01*
X93365962Y-64553987D01*
X93180013Y-64368038D01*
X92961359Y-64221939D01*
X92718405Y-64121304D01*
X92460486Y-64070000D01*
X92197514Y-64070000D01*
X91939595Y-64121304D01*
X91696641Y-64221939D01*
X91477987Y-64368038D01*
X91292038Y-64553987D01*
X91145939Y-64772641D01*
X91045304Y-65015595D01*
X90994000Y-65273514D01*
X88584000Y-65273514D01*
X88532696Y-65015595D01*
X88432061Y-64772641D01*
X88285962Y-64553987D01*
X88100013Y-64368038D01*
X87881359Y-64221939D01*
X87638405Y-64121304D01*
X87380486Y-64070000D01*
X87117514Y-64070000D01*
X86859595Y-64121304D01*
X86616641Y-64221939D01*
X86397987Y-64368038D01*
X86212038Y-64553987D01*
X86065939Y-64772641D01*
X85965304Y-65015595D01*
X85914000Y-65273514D01*
X85914000Y-65536486D01*
X85965304Y-65794405D01*
X86065939Y-66037359D01*
X86212038Y-66256013D01*
X86397987Y-66441962D01*
X86616641Y-66588061D01*
X86859595Y-66688696D01*
X87117514Y-66740000D01*
X87380486Y-66740000D01*
X87487844Y-66718645D01*
X87821952Y-67052753D01*
X87719426Y-67073147D01*
X87458273Y-67181320D01*
X87223241Y-67338363D01*
X87023363Y-67538241D01*
X86866320Y-67773273D01*
X86758147Y-68034426D01*
X86703000Y-68311665D01*
X86703000Y-68594335D01*
X86739312Y-68776886D01*
X84832998Y-70683201D01*
X84804000Y-70706999D01*
X84780202Y-70735997D01*
X84780201Y-70735998D01*
X84709026Y-70822724D01*
X84638454Y-70954754D01*
X84594998Y-71098015D01*
X84580324Y-71247000D01*
X83660000Y-71247000D01*
X83660000Y-59660000D01*
X84207348Y-59660000D01*
X84019369Y-59941331D01*
%TA.AperFunction,Conductor*%
D30*
G36*
X84019369Y-59941331D02*
G01*
X83850890Y-60348075D01*
X83765000Y-60779872D01*
X83765000Y-61220128D01*
X83850890Y-61651925D01*
X84019369Y-62058669D01*
X84263962Y-62424729D01*
X84575271Y-62736038D01*
X84941331Y-62980631D01*
X85348075Y-63149110D01*
X85779872Y-63235000D01*
X86220128Y-63235000D01*
X86651925Y-63149110D01*
X87058669Y-62980631D01*
X87424729Y-62736038D01*
X87736038Y-62424729D01*
X87980631Y-62058669D01*
X88149110Y-61651925D01*
X88235000Y-61220128D01*
X88235000Y-60779872D01*
X88149110Y-60348075D01*
X87980631Y-59941331D01*
X87792652Y-59660000D01*
X128207348Y-59660000D01*
X128019369Y-59941331D01*
X127850890Y-60348075D01*
X127765000Y-60779872D01*
X127765000Y-61220128D01*
X127850890Y-61651925D01*
X128019369Y-62058669D01*
X128263962Y-62424729D01*
X128575271Y-62736038D01*
X128941331Y-62980631D01*
X129348075Y-63149110D01*
X129779872Y-63235000D01*
X130220128Y-63235000D01*
X130651925Y-63149110D01*
X131058669Y-62980631D01*
X131340000Y-62792652D01*
X131340001Y-115443000D01*
X121920000Y-115443000D01*
X121895224Y-115445440D01*
X121871399Y-115452667D01*
X121849443Y-115464403D01*
X121830197Y-115480197D01*
X121814403Y-115499443D01*
X121802667Y-115521399D01*
X121795440Y-115545224D01*
X121793000Y-115570000D01*
X121793000Y-130175000D01*
X121795440Y-130199776D01*
X121802667Y-130223601D01*
X121814403Y-130245557D01*
X121830197Y-130264803D01*
X121849443Y-130280597D01*
X121871399Y-130292333D01*
X121895224Y-130299560D01*
X121920000Y-130302000D01*
X131340001Y-130302000D01*
X131340001Y-136207349D01*
X131058669Y-136019369D01*
X130651925Y-135850890D01*
X130220128Y-135765000D01*
X129779872Y-135765000D01*
X129348075Y-135850890D01*
X128941331Y-136019369D01*
X128575271Y-136263962D01*
X128263962Y-136575271D01*
X128019369Y-136941331D01*
X127850890Y-137348075D01*
X127765000Y-137779872D01*
X127765000Y-138220128D01*
X127850890Y-138651925D01*
X128019369Y-139058669D01*
X128207348Y-139340000D01*
X87792652Y-139340000D01*
X87980631Y-139058669D01*
X88149110Y-138651925D01*
X88235000Y-138220128D01*
X88235000Y-137779872D01*
X88149110Y-137348075D01*
X87980631Y-136941331D01*
X87736038Y-136575271D01*
X87424729Y-136263962D01*
X87058669Y-136019369D01*
X86651925Y-135850890D01*
X86220128Y-135765000D01*
X85779872Y-135765000D01*
X85348075Y-135850890D01*
X84941331Y-136019369D01*
X84575271Y-136263962D01*
X84263962Y-136575271D01*
X84019369Y-136941331D01*
X83850890Y-137348075D01*
X83765000Y-137779872D01*
X83765000Y-138220128D01*
X83850890Y-138651925D01*
X84019369Y-139058669D01*
X84207348Y-139340000D01*
X83660000Y-139340000D01*
X83660000Y-134355408D01*
X88011000Y-134355408D01*
X88011000Y-134630592D01*
X88064686Y-134900490D01*
X88169995Y-135154727D01*
X88322880Y-135383535D01*
X88517465Y-135578120D01*
X88746273Y-135731005D01*
X89000510Y-135836314D01*
X89270408Y-135890000D01*
X89545592Y-135890000D01*
X89815490Y-135836314D01*
X90069727Y-135731005D01*
X90298535Y-135578120D01*
X90418090Y-135458565D01*
X91162040Y-135458565D01*
X91229020Y-135698656D01*
X91478048Y-135815756D01*
X91745135Y-135882023D01*
X92020017Y-135894910D01*
X92292133Y-135853922D01*
X92551023Y-135760636D01*
X92666980Y-135698656D01*
X92733960Y-135458565D01*
X91948000Y-134672605D01*
X91162040Y-135458565D01*
X90418090Y-135458565D01*
X90493120Y-135383535D01*
X90646005Y-135154727D01*
X90675692Y-135083057D01*
X90680364Y-135096023D01*
X90742344Y-135211980D01*
X90982435Y-135278960D01*
X91768395Y-134493000D01*
X92127605Y-134493000D01*
X92913565Y-135278960D01*
X93153656Y-135211980D01*
X93217485Y-135076240D01*
X93249995Y-135154727D01*
X93402880Y-135383535D01*
X93597465Y-135578120D01*
X93826273Y-135731005D01*
X94080510Y-135836314D01*
X94350408Y-135890000D01*
X94625592Y-135890000D01*
X94895490Y-135836314D01*
X95149727Y-135731005D01*
X95378535Y-135578120D01*
X95573120Y-135383535D01*
X95726005Y-135154727D01*
X95758000Y-135077485D01*
X95789995Y-135154727D01*
X95942880Y-135383535D01*
X96137465Y-135578120D01*
X96366273Y-135731005D01*
X96620510Y-135836314D01*
X96890408Y-135890000D01*
X97165592Y-135890000D01*
X97435490Y-135836314D01*
X97689727Y-135731005D01*
X97918535Y-135578120D01*
X98113120Y-135383535D01*
X98266005Y-135154727D01*
X98298000Y-135077485D01*
X98329995Y-135154727D01*
X98482880Y-135383535D01*
X98677465Y-135578120D01*
X98906273Y-135731005D01*
X99160510Y-135836314D01*
X99430408Y-135890000D01*
X99705592Y-135890000D01*
X99975490Y-135836314D01*
X100229727Y-135731005D01*
X100458535Y-135578120D01*
X100653120Y-135383535D01*
X100806005Y-135154727D01*
X100838000Y-135077485D01*
X100869995Y-135154727D01*
X101022880Y-135383535D01*
X101217465Y-135578120D01*
X101446273Y-135731005D01*
X101700510Y-135836314D01*
X101970408Y-135890000D01*
X102245592Y-135890000D01*
X102515490Y-135836314D01*
X102769727Y-135731005D01*
X102998535Y-135578120D01*
X103193120Y-135383535D01*
X103346005Y-135154727D01*
X103378000Y-135077485D01*
X103409995Y-135154727D01*
X103562880Y-135383535D01*
X103757465Y-135578120D01*
X103986273Y-135731005D01*
X104240510Y-135836314D01*
X104510408Y-135890000D01*
X104785592Y-135890000D01*
X105055490Y-135836314D01*
X105309727Y-135731005D01*
X105538535Y-135578120D01*
X105733120Y-135383535D01*
X105886005Y-135154727D01*
X105918000Y-135077485D01*
X105949995Y-135154727D01*
X106102880Y-135383535D01*
X106297465Y-135578120D01*
X106526273Y-135731005D01*
X106780510Y-135836314D01*
X107050408Y-135890000D01*
X107325592Y-135890000D01*
X107595490Y-135836314D01*
X107849727Y-135731005D01*
X108078535Y-135578120D01*
X108198090Y-135458565D01*
X108942040Y-135458565D01*
X109009020Y-135698656D01*
X109258048Y-135815756D01*
X109525135Y-135882023D01*
X109800017Y-135894910D01*
X110072133Y-135853922D01*
X110331023Y-135760636D01*
X110446980Y-135698656D01*
X110513960Y-135458565D01*
X109728000Y-134672605D01*
X108942040Y-135458565D01*
X108198090Y-135458565D01*
X108273120Y-135383535D01*
X108426005Y-135154727D01*
X108455692Y-135083057D01*
X108460364Y-135096023D01*
X108522344Y-135211980D01*
X108762435Y-135278960D01*
X109548395Y-134493000D01*
X108762435Y-133707040D01*
X108522344Y-133774020D01*
X108458515Y-133909760D01*
X108426005Y-133831273D01*
X108273120Y-133602465D01*
X108198090Y-133527435D01*
X108942040Y-133527435D01*
X109728000Y-134313395D01*
X110513960Y-133527435D01*
X110446980Y-133287344D01*
X110197952Y-133170244D01*
X109930865Y-133103977D01*
X109655983Y-133091090D01*
X109383867Y-133132078D01*
X109124977Y-133225364D01*
X109009020Y-133287344D01*
X108942040Y-133527435D01*
X108198090Y-133527435D01*
X108078535Y-133407880D01*
X107849727Y-133254995D01*
X107595490Y-133149686D01*
X107325592Y-133096000D01*
X107050408Y-133096000D01*
X106780510Y-133149686D01*
X106526273Y-133254995D01*
X106297465Y-133407880D01*
X106102880Y-133602465D01*
X105949995Y-133831273D01*
X105918000Y-133908515D01*
X105886005Y-133831273D01*
X105733120Y-133602465D01*
X105538535Y-133407880D01*
X105309727Y-133254995D01*
X105055490Y-133149686D01*
X104785592Y-133096000D01*
X104510408Y-133096000D01*
X104240510Y-133149686D01*
X103986273Y-133254995D01*
X103757465Y-133407880D01*
X103562880Y-133602465D01*
X103409995Y-133831273D01*
X103378000Y-133908515D01*
X103346005Y-133831273D01*
X103193120Y-133602465D01*
X102998535Y-133407880D01*
X102769727Y-133254995D01*
X102515490Y-133149686D01*
X102245592Y-133096000D01*
X101970408Y-133096000D01*
X101700510Y-133149686D01*
X101446273Y-133254995D01*
X101217465Y-133407880D01*
X101022880Y-133602465D01*
X100869995Y-133831273D01*
X100838000Y-133908515D01*
X100806005Y-133831273D01*
X100653120Y-133602465D01*
X100458535Y-133407880D01*
X100229727Y-133254995D01*
X99975490Y-133149686D01*
X99705592Y-133096000D01*
X99430408Y-133096000D01*
X99160510Y-133149686D01*
X98906273Y-133254995D01*
X98677465Y-133407880D01*
X98482880Y-133602465D01*
X98329995Y-133831273D01*
X98298000Y-133908515D01*
X98266005Y-133831273D01*
X98113120Y-133602465D01*
X97918535Y-133407880D01*
X97689727Y-133254995D01*
X97435490Y-133149686D01*
X97165592Y-133096000D01*
X96890408Y-133096000D01*
X96620510Y-133149686D01*
X96366273Y-133254995D01*
X96137465Y-133407880D01*
X95942880Y-133602465D01*
X95789995Y-133831273D01*
X95758000Y-133908515D01*
X95726005Y-133831273D01*
X95573120Y-133602465D01*
X95378535Y-133407880D01*
X95149727Y-133254995D01*
X94895490Y-133149686D01*
X94625592Y-133096000D01*
X94350408Y-133096000D01*
X94080510Y-133149686D01*
X93826273Y-133254995D01*
X93597465Y-133407880D01*
X93402880Y-133602465D01*
X93249995Y-133831273D01*
X93220308Y-133902943D01*
X93215636Y-133889977D01*
X93153656Y-133774020D01*
X92913565Y-133707040D01*
X92127605Y-134493000D01*
X91768395Y-134493000D01*
X90982435Y-133707040D01*
X90742344Y-133774020D01*
X90678515Y-133909760D01*
X90646005Y-133831273D01*
X90493120Y-133602465D01*
X90418090Y-133527435D01*
X91162040Y-133527435D01*
X91948000Y-134313395D01*
X92733960Y-133527435D01*
X92666980Y-133287344D01*
X92417952Y-133170244D01*
X92150865Y-133103977D01*
X91875983Y-133091090D01*
X91603867Y-133132078D01*
X91344977Y-133225364D01*
X91229020Y-133287344D01*
X91162040Y-133527435D01*
X90418090Y-133527435D01*
X90298535Y-133407880D01*
X90069727Y-133254995D01*
X89815490Y-133149686D01*
X89545592Y-133096000D01*
X89270408Y-133096000D01*
X89000510Y-133149686D01*
X88746273Y-133254995D01*
X88517465Y-133407880D01*
X88322880Y-133602465D01*
X88169995Y-133831273D01*
X88064686Y-134085510D01*
X88011000Y-134355408D01*
X83660000Y-134355408D01*
X83660000Y-110860408D01*
X88011000Y-110860408D01*
X88011000Y-111135592D01*
X88064686Y-111405490D01*
X88169995Y-111659727D01*
X88322880Y-111888535D01*
X88517465Y-112083120D01*
X88746273Y-112236005D01*
X89000510Y-112341314D01*
X89270408Y-112395000D01*
X89545592Y-112395000D01*
X89815490Y-112341314D01*
X90069727Y-112236005D01*
X90298535Y-112083120D01*
X90418090Y-111963565D01*
X91162040Y-111963565D01*
X91229020Y-112203656D01*
X91478048Y-112320756D01*
X91745135Y-112387023D01*
X92020017Y-112399910D01*
X92292133Y-112358922D01*
X92551023Y-112265636D01*
X92666980Y-112203656D01*
X92733960Y-111963565D01*
X91948000Y-111177605D01*
X91162040Y-111963565D01*
X90418090Y-111963565D01*
X90493120Y-111888535D01*
X90646005Y-111659727D01*
X90675692Y-111588057D01*
X90680364Y-111601023D01*
X90742344Y-111716980D01*
X90982435Y-111783960D01*
X91768395Y-110998000D01*
X92127605Y-110998000D01*
X92913565Y-111783960D01*
X93153656Y-111716980D01*
X93217485Y-111581240D01*
X93249995Y-111659727D01*
X93402880Y-111888535D01*
X93597465Y-112083120D01*
X93826273Y-112236005D01*
X94080510Y-112341314D01*
X94350408Y-112395000D01*
X94625592Y-112395000D01*
X94895490Y-112341314D01*
X95149727Y-112236005D01*
X95378535Y-112083120D01*
X95573120Y-111888535D01*
X95726005Y-111659727D01*
X95758000Y-111582485D01*
X95789995Y-111659727D01*
X95942880Y-111888535D01*
X96137465Y-112083120D01*
X96366273Y-112236005D01*
X96620510Y-112341314D01*
X96890408Y-112395000D01*
X97165592Y-112395000D01*
X97435490Y-112341314D01*
X97689727Y-112236005D01*
X97918535Y-112083120D01*
X98113120Y-111888535D01*
X98266005Y-111659727D01*
X98298000Y-111582485D01*
X98329995Y-111659727D01*
X98482880Y-111888535D01*
X98677465Y-112083120D01*
X98906273Y-112236005D01*
X99160510Y-112341314D01*
X99430408Y-112395000D01*
X99705592Y-112395000D01*
X99975490Y-112341314D01*
X100229727Y-112236005D01*
X100458535Y-112083120D01*
X100578090Y-111963565D01*
X101322040Y-111963565D01*
X101389020Y-112203656D01*
X101638048Y-112320756D01*
X101905135Y-112387023D01*
X102180017Y-112399910D01*
X102452133Y-112358922D01*
X102711023Y-112265636D01*
X102826980Y-112203656D01*
X102893960Y-111963565D01*
X102108000Y-111177605D01*
X101322040Y-111963565D01*
X100578090Y-111963565D01*
X100653120Y-111888535D01*
X100806005Y-111659727D01*
X100835692Y-111588057D01*
X100840364Y-111601023D01*
X100902344Y-111716980D01*
X101142435Y-111783960D01*
X101928395Y-110998000D01*
X101142435Y-110212040D01*
X100902344Y-110279020D01*
X100838515Y-110414760D01*
X100806005Y-110336273D01*
X100653120Y-110107465D01*
X100578090Y-110032435D01*
X101322040Y-110032435D01*
X102108000Y-110818395D01*
X102893960Y-110032435D01*
X102826980Y-109792344D01*
X102577952Y-109675244D01*
X102310865Y-109608977D01*
X102035983Y-109596090D01*
X101763867Y-109637078D01*
X101504977Y-109730364D01*
X101389020Y-109792344D01*
X101322040Y-110032435D01*
X100578090Y-110032435D01*
X100458535Y-109912880D01*
X100229727Y-109759995D01*
X99975490Y-109654686D01*
X99705592Y-109601000D01*
X99430408Y-109601000D01*
X99160510Y-109654686D01*
X98906273Y-109759995D01*
X98677465Y-109912880D01*
X98482880Y-110107465D01*
X98329995Y-110336273D01*
X98298000Y-110413515D01*
X98266005Y-110336273D01*
X98113120Y-110107465D01*
X97918535Y-109912880D01*
X97689727Y-109759995D01*
X97435490Y-109654686D01*
X97165592Y-109601000D01*
X96890408Y-109601000D01*
X96620510Y-109654686D01*
X96366273Y-109759995D01*
X96137465Y-109912880D01*
X95942880Y-110107465D01*
X95789995Y-110336273D01*
X95758000Y-110413515D01*
X95726005Y-110336273D01*
X95573120Y-110107465D01*
X95378535Y-109912880D01*
X95149727Y-109759995D01*
X94895490Y-109654686D01*
X94625592Y-109601000D01*
X94350408Y-109601000D01*
X94080510Y-109654686D01*
X93826273Y-109759995D01*
X93597465Y-109912880D01*
X93402880Y-110107465D01*
X93249995Y-110336273D01*
X93220308Y-110407943D01*
X93215636Y-110394977D01*
X93153656Y-110279020D01*
X92913565Y-110212040D01*
X92127605Y-110998000D01*
X91768395Y-110998000D01*
X90982435Y-110212040D01*
X90742344Y-110279020D01*
X90678515Y-110414760D01*
X90646005Y-110336273D01*
X90493120Y-110107465D01*
X90418090Y-110032435D01*
X91162040Y-110032435D01*
X91948000Y-110818395D01*
X92733960Y-110032435D01*
X92666980Y-109792344D01*
X92417952Y-109675244D01*
X92150865Y-109608977D01*
X91875983Y-109596090D01*
X91603867Y-109637078D01*
X91344977Y-109730364D01*
X91229020Y-109792344D01*
X91162040Y-110032435D01*
X90418090Y-110032435D01*
X90298535Y-109912880D01*
X90069727Y-109759995D01*
X89815490Y-109654686D01*
X89545592Y-109601000D01*
X89270408Y-109601000D01*
X89000510Y-109654686D01*
X88746273Y-109759995D01*
X88517465Y-109912880D01*
X88322880Y-110107465D01*
X88169995Y-110336273D01*
X88064686Y-110590510D01*
X88011000Y-110860408D01*
X83660000Y-110860408D01*
X83660000Y-71247000D01*
X84580324Y-71247000D01*
X84584001Y-71284333D01*
X84584000Y-100033090D01*
X84580324Y-100070412D01*
X84584000Y-100107734D01*
X84584000Y-100107744D01*
X84594997Y-100219397D01*
X84635217Y-100351986D01*
X84638454Y-100362658D01*
X84709026Y-100494688D01*
X84748871Y-100543238D01*
X84803999Y-100610413D01*
X84833003Y-100634216D01*
X91594803Y-107396017D01*
X91618597Y-107425010D01*
X91647590Y-107448804D01*
X91647595Y-107448809D01*
X91734321Y-107519984D01*
X91866351Y-107590556D01*
X92009612Y-107634012D01*
X92158598Y-107648686D01*
X92195931Y-107645009D01*
X101232076Y-107645011D01*
X101269399Y-107648687D01*
X101306721Y-107645011D01*
X101306731Y-107645011D01*
X101418384Y-107634014D01*
X101561645Y-107590557D01*
X101561649Y-107590555D01*
X101693675Y-107519985D01*
X101780401Y-107448810D01*
X101780402Y-107448809D01*
X101809399Y-107425012D01*
X101833197Y-107396014D01*
X108163213Y-101065999D01*
X108661928Y-101065999D01*
X108661928Y-102431000D01*
X108674188Y-102555482D01*
X108710498Y-102675180D01*
X108769463Y-102785494D01*
X108848815Y-102882185D01*
X108945506Y-102961537D01*
X109055820Y-103020502D01*
X109175518Y-103056812D01*
X109300000Y-103069072D01*
X110663271Y-103069072D01*
X113642200Y-106048002D01*
X113665999Y-106077001D01*
X113746119Y-106142754D01*
X113781724Y-106171974D01*
X113913753Y-106242546D01*
X114057014Y-106286003D01*
X114206000Y-106300677D01*
X114243333Y-106297000D01*
X115128199Y-106297000D01*
X117675002Y-108843805D01*
X117675002Y-109638676D01*
X117485592Y-109601000D01*
X117210408Y-109601000D01*
X116940510Y-109654686D01*
X116686273Y-109759995D01*
X116457465Y-109912880D01*
X116262880Y-110107465D01*
X116109995Y-110336273D01*
X116078000Y-110413515D01*
X116046005Y-110336273D01*
X115893120Y-110107465D01*
X115698535Y-109912880D01*
X115469727Y-109759995D01*
X115215490Y-109654686D01*
X114945592Y-109601000D01*
X114670408Y-109601000D01*
X114400510Y-109654686D01*
X114146273Y-109759995D01*
X113917465Y-109912880D01*
X113722880Y-110107465D01*
X113569995Y-110336273D01*
X113538000Y-110413515D01*
X113506005Y-110336273D01*
X113353120Y-110107465D01*
X113158535Y-109912880D01*
X112929727Y-109759995D01*
X112675490Y-109654686D01*
X112405592Y-109601000D01*
X112130408Y-109601000D01*
X111860510Y-109654686D01*
X111606273Y-109759995D01*
X111377465Y-109912880D01*
X111182880Y-110107465D01*
X111029995Y-110336273D01*
X110998000Y-110413515D01*
X110966005Y-110336273D01*
X110813120Y-110107465D01*
X110618535Y-109912880D01*
X110389727Y-109759995D01*
X110135490Y-109654686D01*
X109865592Y-109601000D01*
X109590408Y-109601000D01*
X109320510Y-109654686D01*
X109066273Y-109759995D01*
X108837465Y-109912880D01*
X108642880Y-110107465D01*
X108489995Y-110336273D01*
X108458000Y-110413515D01*
X108426005Y-110336273D01*
X108273120Y-110107465D01*
X108078535Y-109912880D01*
X107849727Y-109759995D01*
X107595490Y-109654686D01*
X107325592Y-109601000D01*
X107050408Y-109601000D01*
X106780510Y-109654686D01*
X106526273Y-109759995D01*
X106297465Y-109912880D01*
X106102880Y-110107465D01*
X105949995Y-110336273D01*
X105918000Y-110413515D01*
X105886005Y-110336273D01*
X105733120Y-110107465D01*
X105538535Y-109912880D01*
X105309727Y-109759995D01*
X105055490Y-109654686D01*
X104785592Y-109601000D01*
X104510408Y-109601000D01*
X104240510Y-109654686D01*
X103986273Y-109759995D01*
X103757465Y-109912880D01*
X103562880Y-110107465D01*
X103409995Y-110336273D01*
X103380308Y-110407943D01*
X103375636Y-110394977D01*
X103313656Y-110279020D01*
X103073565Y-110212040D01*
X102287605Y-110998000D01*
X103073565Y-111783960D01*
X103313656Y-111716980D01*
X103377485Y-111581240D01*
X103409995Y-111659727D01*
X103562880Y-111888535D01*
X103757465Y-112083120D01*
X103986273Y-112236005D01*
X104240510Y-112341314D01*
X104510408Y-112395000D01*
X104785592Y-112395000D01*
X105055490Y-112341314D01*
X105309727Y-112236005D01*
X105538535Y-112083120D01*
X105733120Y-111888535D01*
X105886005Y-111659727D01*
X105918000Y-111582485D01*
X105949995Y-111659727D01*
X106102880Y-111888535D01*
X106297465Y-112083120D01*
X106526273Y-112236005D01*
X106780510Y-112341314D01*
X107050408Y-112395000D01*
X107325592Y-112395000D01*
X107595490Y-112341314D01*
X107849727Y-112236005D01*
X108078535Y-112083120D01*
X108273120Y-111888535D01*
X108426005Y-111659727D01*
X108458000Y-111582485D01*
X108489995Y-111659727D01*
X108642880Y-111888535D01*
X108837465Y-112083120D01*
X109066273Y-112236005D01*
X109320510Y-112341314D01*
X109590408Y-112395000D01*
X109865592Y-112395000D01*
X110135490Y-112341314D01*
X110389727Y-112236005D01*
X110618535Y-112083120D01*
X110813120Y-111888535D01*
X110966005Y-111659727D01*
X110998000Y-111582485D01*
X111029995Y-111659727D01*
X111182880Y-111888535D01*
X111377465Y-112083120D01*
X111606273Y-112236005D01*
X111860510Y-112341314D01*
X112130408Y-112395000D01*
X112405592Y-112395000D01*
X112675490Y-112341314D01*
X112929727Y-112236005D01*
X113158535Y-112083120D01*
X113353120Y-111888535D01*
X113506005Y-111659727D01*
X113538000Y-111582485D01*
X113569995Y-111659727D01*
X113722880Y-111888535D01*
X113917465Y-112083120D01*
X114146273Y-112236005D01*
X114400510Y-112341314D01*
X114670408Y-112395000D01*
X114945592Y-112395000D01*
X115215490Y-112341314D01*
X115469727Y-112236005D01*
X115698535Y-112083120D01*
X115893120Y-111888535D01*
X116046005Y-111659727D01*
X116078000Y-111582485D01*
X116109995Y-111659727D01*
X116262880Y-111888535D01*
X116457465Y-112083120D01*
X116686273Y-112236005D01*
X116940510Y-112341314D01*
X117210408Y-112395000D01*
X117485592Y-112395000D01*
X117675002Y-112357324D01*
X117675001Y-131099089D01*
X117671325Y-131136411D01*
X117675001Y-131173733D01*
X117675001Y-131173743D01*
X117685998Y-131285396D01*
X117721285Y-131401724D01*
X117729455Y-131428657D01*
X117800027Y-131560687D01*
X117839872Y-131609237D01*
X117895000Y-131676412D01*
X117924004Y-131700215D01*
X119404824Y-133181036D01*
X119226273Y-133254995D01*
X118997465Y-133407880D01*
X118802880Y-133602465D01*
X118649995Y-133831273D01*
X118618000Y-133908515D01*
X118586005Y-133831273D01*
X118433120Y-133602465D01*
X118238535Y-133407880D01*
X118009727Y-133254995D01*
X117755490Y-133149686D01*
X117485592Y-133096000D01*
X117210408Y-133096000D01*
X116940510Y-133149686D01*
X116686273Y-133254995D01*
X116457465Y-133407880D01*
X116262880Y-133602465D01*
X116109995Y-133831273D01*
X116078000Y-133908515D01*
X116046005Y-133831273D01*
X115893120Y-133602465D01*
X115698535Y-133407880D01*
X115469727Y-133254995D01*
X115215490Y-133149686D01*
X114945592Y-133096000D01*
X114670408Y-133096000D01*
X114400510Y-133149686D01*
X114146273Y-133254995D01*
X113917465Y-133407880D01*
X113722880Y-133602465D01*
X113569995Y-133831273D01*
X113538000Y-133908515D01*
X113506005Y-133831273D01*
X113353120Y-133602465D01*
X113158535Y-133407880D01*
X112929727Y-133254995D01*
X112675490Y-133149686D01*
X112405592Y-133096000D01*
X112130408Y-133096000D01*
X111860510Y-133149686D01*
X111606273Y-133254995D01*
X111377465Y-133407880D01*
X111182880Y-133602465D01*
X111029995Y-133831273D01*
X111000308Y-133902943D01*
X110995636Y-133889977D01*
X110933656Y-133774020D01*
X110693565Y-133707040D01*
X109907605Y-134493000D01*
X110693565Y-135278960D01*
X110933656Y-135211980D01*
X110997485Y-135076240D01*
X111029995Y-135154727D01*
X111182880Y-135383535D01*
X111377465Y-135578120D01*
X111606273Y-135731005D01*
X111860510Y-135836314D01*
X112130408Y-135890000D01*
X112405592Y-135890000D01*
X112675490Y-135836314D01*
X112929727Y-135731005D01*
X113158535Y-135578120D01*
X113353120Y-135383535D01*
X113506005Y-135154727D01*
X113538000Y-135077485D01*
X113569995Y-135154727D01*
X113722880Y-135383535D01*
X113917465Y-135578120D01*
X114146273Y-135731005D01*
X114400510Y-135836314D01*
X114670408Y-135890000D01*
X114945592Y-135890000D01*
X115215490Y-135836314D01*
X115469727Y-135731005D01*
X115698535Y-135578120D01*
X115893120Y-135383535D01*
X116046005Y-135154727D01*
X116078000Y-135077485D01*
X116109995Y-135154727D01*
X116262880Y-135383535D01*
X116457465Y-135578120D01*
X116686273Y-135731005D01*
X116940510Y-135836314D01*
X117210408Y-135890000D01*
X117485592Y-135890000D01*
X117755490Y-135836314D01*
X118009727Y-135731005D01*
X118238535Y-135578120D01*
X118433120Y-135383535D01*
X118586005Y-135154727D01*
X118618000Y-135077485D01*
X118649995Y-135154727D01*
X118802880Y-135383535D01*
X118997465Y-135578120D01*
X119226273Y-135731005D01*
X119480510Y-135836314D01*
X119750408Y-135890000D01*
X120025592Y-135890000D01*
X120295490Y-135836314D01*
X120549727Y-135731005D01*
X120631539Y-135676340D01*
X121864201Y-136909003D01*
X121887999Y-136938001D01*
X121916997Y-136961799D01*
X122003723Y-137032974D01*
X122135753Y-137103546D01*
X122279014Y-137147003D01*
X122390667Y-137158000D01*
X122390677Y-137158000D01*
X122428000Y-137161676D01*
X122465323Y-137158000D01*
X123025678Y-137158000D01*
X123063000Y-137161676D01*
X123100322Y-137158000D01*
X123100333Y-137158000D01*
X123211986Y-137147003D01*
X123355247Y-137103546D01*
X123487276Y-137032974D01*
X123603001Y-136938001D01*
X123626804Y-136908997D01*
X124676430Y-135859372D01*
X124830408Y-135890000D01*
X125105592Y-135890000D01*
X125375490Y-135836314D01*
X125629727Y-135731005D01*
X125858535Y-135578120D01*
X126053120Y-135383535D01*
X126206005Y-135154727D01*
X126311314Y-134900490D01*
X126365000Y-134630592D01*
X126365000Y-134355408D01*
X126311314Y-134085510D01*
X126206005Y-133831273D01*
X126053120Y-133602465D01*
X125858535Y-133407880D01*
X125629727Y-133254995D01*
X125375490Y-133149686D01*
X125105592Y-133096000D01*
X124830408Y-133096000D01*
X124560510Y-133149686D01*
X124306273Y-133254995D01*
X124077465Y-133407880D01*
X123882880Y-133602465D01*
X123729995Y-133831273D01*
X123698000Y-133908515D01*
X123666005Y-133831273D01*
X123513120Y-133602465D01*
X123318535Y-133407880D01*
X123089727Y-133254995D01*
X122835490Y-133149686D01*
X122565592Y-133096000D01*
X122290408Y-133096000D01*
X122136430Y-133126628D01*
X120521000Y-131511199D01*
X120521000Y-114360801D01*
X121486005Y-113395797D01*
X121515002Y-113372000D01*
X121609975Y-113256275D01*
X121680547Y-113124246D01*
X121724004Y-112980985D01*
X121735001Y-112869332D01*
X121735001Y-112869324D01*
X121738677Y-112831999D01*
X121735001Y-112794674D01*
X121735001Y-112215110D01*
X121766273Y-112236005D01*
X122020510Y-112341314D01*
X122290408Y-112395000D01*
X122565592Y-112395000D01*
X122835490Y-112341314D01*
X123089727Y-112236005D01*
X123318535Y-112083120D01*
X123513120Y-111888535D01*
X123666005Y-111659727D01*
X123698000Y-111582485D01*
X123729995Y-111659727D01*
X123882880Y-111888535D01*
X124077465Y-112083120D01*
X124306273Y-112236005D01*
X124560510Y-112341314D01*
X124830408Y-112395000D01*
X125105592Y-112395000D01*
X125375490Y-112341314D01*
X125629727Y-112236005D01*
X125858535Y-112083120D01*
X126053120Y-111888535D01*
X126206005Y-111659727D01*
X126311314Y-111405490D01*
X126365000Y-111135592D01*
X126365000Y-110860408D01*
X126311314Y-110590510D01*
X126206005Y-110336273D01*
X126053120Y-110107465D01*
X125858535Y-109912880D01*
X125629727Y-109759995D01*
X125375490Y-109654686D01*
X125105592Y-109601000D01*
X124830408Y-109601000D01*
X124560510Y-109654686D01*
X124306273Y-109759995D01*
X124077465Y-109912880D01*
X123882880Y-110107465D01*
X123729995Y-110336273D01*
X123698000Y-110413515D01*
X123666005Y-110336273D01*
X123513120Y-110107465D01*
X123318535Y-109912880D01*
X123089727Y-109759995D01*
X122835490Y-109654686D01*
X122565592Y-109601000D01*
X122290408Y-109601000D01*
X122020510Y-109654686D01*
X121766273Y-109759995D01*
X121735001Y-109780890D01*
X121735001Y-107169323D01*
X121738677Y-107132000D01*
X121735001Y-107094677D01*
X121735001Y-107094668D01*
X121724004Y-106983015D01*
X121680547Y-106839754D01*
X121609975Y-106707725D01*
X121515002Y-106592000D01*
X121486004Y-106568202D01*
X119886000Y-104968199D01*
X119886000Y-103069072D01*
X120026000Y-103069072D01*
X120150482Y-103056812D01*
X120270180Y-103020502D01*
X120380494Y-102961537D01*
X120477185Y-102882185D01*
X120556537Y-102785494D01*
X120615502Y-102675180D01*
X120621056Y-102656873D01*
X120687495Y-102723312D01*
X120938905Y-102891299D01*
X121218257Y-103007011D01*
X121514816Y-103066000D01*
X121817184Y-103066000D01*
X122113743Y-103007011D01*
X122393095Y-102891299D01*
X122644505Y-102723312D01*
X122858312Y-102509505D01*
X123026299Y-102258095D01*
X123142011Y-101978743D01*
X123201000Y-101682184D01*
X123201000Y-101379816D01*
X123142011Y-101083257D01*
X123026299Y-100803905D01*
X122858312Y-100552495D01*
X122855817Y-100550000D01*
X127470928Y-100550000D01*
X127470928Y-102650000D01*
X127483188Y-102774482D01*
X127519498Y-102894180D01*
X127578463Y-103004494D01*
X127657815Y-103101185D01*
X127754506Y-103180537D01*
X127768546Y-103188042D01*
X127665772Y-103341853D01*
X127538754Y-103648504D01*
X127474000Y-103974042D01*
X127474000Y-104305958D01*
X127538754Y-104631496D01*
X127665772Y-104938147D01*
X127850175Y-105214125D01*
X128046050Y-105410000D01*
X127850175Y-105605875D01*
X127665772Y-105881853D01*
X127538754Y-106188504D01*
X127474000Y-106514042D01*
X127474000Y-106845958D01*
X127538754Y-107171496D01*
X127665772Y-107478147D01*
X127850175Y-107754125D01*
X128084875Y-107988825D01*
X128360853Y-108173228D01*
X128667504Y-108300246D01*
X128993042Y-108365000D01*
X129324958Y-108365000D01*
X129650496Y-108300246D01*
X129957147Y-108173228D01*
X130233125Y-107988825D01*
X130467825Y-107754125D01*
X130652228Y-107478147D01*
X130779246Y-107171496D01*
X130844000Y-106845958D01*
X130844000Y-106514042D01*
X130779246Y-106188504D01*
X130652228Y-105881853D01*
X130467825Y-105605875D01*
X130271950Y-105410000D01*
X130467825Y-105214125D01*
X130652228Y-104938147D01*
X130779246Y-104631496D01*
X130844000Y-104305958D01*
X130844000Y-103974042D01*
X130779246Y-103648504D01*
X130652228Y-103341853D01*
X130549454Y-103188042D01*
X130563494Y-103180537D01*
X130660185Y-103101185D01*
X130739537Y-103004494D01*
X130798502Y-102894180D01*
X130834812Y-102774482D01*
X130847072Y-102650000D01*
X130847072Y-100550000D01*
X130834812Y-100425518D01*
X130798502Y-100305820D01*
X130739537Y-100195506D01*
X130660185Y-100098815D01*
X130563494Y-100019463D01*
X130453180Y-99960498D01*
X130333482Y-99924188D01*
X130209000Y-99911928D01*
X128109000Y-99911928D01*
X127984518Y-99924188D01*
X127864820Y-99960498D01*
X127754506Y-100019463D01*
X127657815Y-100098815D01*
X127578463Y-100195506D01*
X127519498Y-100305820D01*
X127483188Y-100425518D01*
X127470928Y-100550000D01*
X122855817Y-100550000D01*
X122644505Y-100338688D01*
X122393095Y-100170701D01*
X122113743Y-100054989D01*
X121817184Y-99996000D01*
X121514816Y-99996000D01*
X121257071Y-100047268D01*
X118996804Y-97787003D01*
X118973001Y-97757999D01*
X118857276Y-97663026D01*
X118725247Y-97592454D01*
X118581986Y-97548997D01*
X118470333Y-97538000D01*
X118470322Y-97538000D01*
X118433000Y-97534324D01*
X118395678Y-97538000D01*
X109257322Y-97538000D01*
X109219999Y-97534324D01*
X109182676Y-97538000D01*
X109182667Y-97538000D01*
X109071014Y-97548997D01*
X108927753Y-97592454D01*
X108795724Y-97663026D01*
X108679999Y-97757999D01*
X108656201Y-97786997D01*
X101264204Y-105178995D01*
X101232696Y-105020595D01*
X101132061Y-104777641D01*
X100985962Y-104558987D01*
X100800013Y-104373038D01*
X100709000Y-104312225D01*
X100709000Y-102145322D01*
X100712676Y-102107999D01*
X100709000Y-102070676D01*
X100709000Y-102070667D01*
X100698003Y-101959014D01*
X100654546Y-101815753D01*
X100583974Y-101683724D01*
X100489001Y-101567999D01*
X100475492Y-101556913D01*
X100581359Y-101513061D01*
X100800013Y-101366962D01*
X100985962Y-101181013D01*
X101132061Y-100962359D01*
X101232696Y-100719405D01*
X101284000Y-100461486D01*
X101284000Y-100198514D01*
X101232696Y-99940595D01*
X101132061Y-99697641D01*
X100985962Y-99478987D01*
X100800013Y-99293038D01*
X100709000Y-99232225D01*
X100709000Y-96001249D01*
X100806250Y-96000000D01*
X100965000Y-95841250D01*
X100965000Y-95068109D01*
X100965215Y-95067400D01*
X100982000Y-94896979D01*
X100982000Y-94742000D01*
X101219000Y-94742000D01*
X101219000Y-95841250D01*
X101377750Y-96000000D01*
X101617000Y-96003072D01*
X101741482Y-95990812D01*
X101861180Y-95954502D01*
X101971494Y-95895537D01*
X102068185Y-95816185D01*
X102147537Y-95719494D01*
X102206502Y-95609180D01*
X102242812Y-95489482D01*
X102255072Y-95365000D01*
X102252000Y-94900750D01*
X102093250Y-94742000D01*
X101219000Y-94742000D01*
X100982000Y-94742000D01*
X100982000Y-94333022D01*
X100965215Y-94162601D01*
X100965000Y-94161892D01*
X100965000Y-93388750D01*
X101219000Y-93388750D01*
X101219000Y-94488000D01*
X102093250Y-94488000D01*
X102252000Y-94329250D01*
X102255072Y-93865000D01*
X102242812Y-93740518D01*
X102206502Y-93620820D01*
X102147537Y-93510506D01*
X102068185Y-93413815D01*
X101971494Y-93334463D01*
X101861180Y-93275498D01*
X101741482Y-93239188D01*
X101617000Y-93226928D01*
X101377750Y-93230000D01*
X101219000Y-93388750D01*
X100965000Y-93388750D01*
X100806250Y-93230000D01*
X100567000Y-93226928D01*
X100442518Y-93239188D01*
X100322820Y-93275498D01*
X100258098Y-93310093D01*
X100049400Y-93246785D01*
X99822000Y-93224388D01*
X99594601Y-93246785D01*
X99375941Y-93313115D01*
X99312000Y-93347292D01*
X99312000Y-91754801D01*
X99914801Y-91152000D01*
X127470928Y-91152000D01*
X127470928Y-93252000D01*
X127483188Y-93376482D01*
X127519498Y-93496180D01*
X127578463Y-93606494D01*
X127657815Y-93703185D01*
X127754506Y-93782537D01*
X127768546Y-93790042D01*
X127665772Y-93943853D01*
X127538754Y-94250504D01*
X127474000Y-94576042D01*
X127474000Y-94907958D01*
X127538754Y-95233496D01*
X127665772Y-95540147D01*
X127850175Y-95816125D01*
X128046050Y-96012000D01*
X127850175Y-96207875D01*
X127665772Y-96483853D01*
X127538754Y-96790504D01*
X127474000Y-97116042D01*
X127474000Y-97447958D01*
X127538754Y-97773496D01*
X127665772Y-98080147D01*
X127850175Y-98356125D01*
X128084875Y-98590825D01*
X128360853Y-98775228D01*
X128667504Y-98902246D01*
X128993042Y-98967000D01*
X129324958Y-98967000D01*
X129650496Y-98902246D01*
X129957147Y-98775228D01*
X130233125Y-98590825D01*
X130467825Y-98356125D01*
X130652228Y-98080147D01*
X130779246Y-97773496D01*
X130844000Y-97447958D01*
X130844000Y-97116042D01*
X130779246Y-96790504D01*
X130652228Y-96483853D01*
X130467825Y-96207875D01*
X130271950Y-96012000D01*
X130467825Y-95816125D01*
X130652228Y-95540147D01*
X130779246Y-95233496D01*
X130844000Y-94907958D01*
X130844000Y-94576042D01*
X130779246Y-94250504D01*
X130652228Y-93943853D01*
X130549454Y-93790042D01*
X130563494Y-93782537D01*
X130660185Y-93703185D01*
X130739537Y-93606494D01*
X130798502Y-93496180D01*
X130834812Y-93376482D01*
X130847072Y-93252000D01*
X130847072Y-91152000D01*
X130834812Y-91027518D01*
X130798502Y-90907820D01*
X130739537Y-90797506D01*
X130660185Y-90700815D01*
X130563494Y-90621463D01*
X130453180Y-90562498D01*
X130333482Y-90526188D01*
X130209000Y-90513928D01*
X128109000Y-90513928D01*
X127984518Y-90526188D01*
X127864820Y-90562498D01*
X127754506Y-90621463D01*
X127657815Y-90700815D01*
X127578463Y-90797506D01*
X127519498Y-90907820D01*
X127483188Y-91027518D01*
X127470928Y-91152000D01*
X99914801Y-91152000D01*
X102283730Y-88783072D01*
X104147000Y-88783072D01*
X104271482Y-88770812D01*
X104391180Y-88734502D01*
X104501494Y-88675537D01*
X104598185Y-88596185D01*
X104677537Y-88499494D01*
X104736502Y-88389180D01*
X104772812Y-88269482D01*
X104785072Y-88145000D01*
X104785072Y-86995000D01*
X111313122Y-86995000D01*
X111348552Y-87354722D01*
X111453479Y-87700621D01*
X111623872Y-88019403D01*
X111853182Y-88298818D01*
X112132597Y-88528128D01*
X112451379Y-88698521D01*
X112797278Y-88803448D01*
X113157000Y-88838878D01*
X113516722Y-88803448D01*
X113862621Y-88698521D01*
X114181403Y-88528128D01*
X114390803Y-88356278D01*
X117783082Y-84964000D01*
X128254311Y-84964000D01*
X128007597Y-85095872D01*
X127929457Y-85160000D01*
X120686861Y-85160000D01*
X120417277Y-85186552D01*
X120071378Y-85291479D01*
X119752596Y-85461871D01*
X119473181Y-85691181D01*
X119243871Y-85970596D01*
X119073479Y-86289378D01*
X118968552Y-86635277D01*
X118933122Y-86995000D01*
X118968552Y-87354723D01*
X119073479Y-87700622D01*
X119243871Y-88019404D01*
X119473181Y-88298819D01*
X119752596Y-88528129D01*
X120071378Y-88698521D01*
X120417277Y-88803448D01*
X120686861Y-88830000D01*
X128575861Y-88830000D01*
X128666000Y-88838878D01*
X128756139Y-88830000D01*
X129025723Y-88803448D01*
X129371622Y-88698521D01*
X129690404Y-88528129D01*
X129969819Y-88298819D01*
X130027287Y-88228794D01*
X130393278Y-87862803D01*
X130565128Y-87653403D01*
X130735521Y-87334621D01*
X130840448Y-86988724D01*
X130875878Y-86629001D01*
X130840448Y-86269278D01*
X130735521Y-85923379D01*
X130565128Y-85604597D01*
X130335818Y-85325182D01*
X130056403Y-85095872D01*
X129737621Y-84925479D01*
X129584400Y-84879000D01*
X129737622Y-84832521D01*
X130056404Y-84662129D01*
X130335819Y-84432819D01*
X130565129Y-84153404D01*
X130735521Y-83834622D01*
X130840448Y-83488723D01*
X130875878Y-83129000D01*
X130840448Y-82769277D01*
X130735521Y-82423378D01*
X130565129Y-82104596D01*
X130335819Y-81825181D01*
X130056404Y-81595871D01*
X129737622Y-81425479D01*
X129584400Y-81379000D01*
X129737620Y-81332521D01*
X130056403Y-81162128D01*
X130335818Y-80932818D01*
X130565128Y-80653403D01*
X130735521Y-80334620D01*
X130840448Y-79988722D01*
X130875878Y-79628999D01*
X130840448Y-79269277D01*
X130735521Y-78923379D01*
X130565128Y-78604597D01*
X130393278Y-78395197D01*
X130139287Y-78141206D01*
X130081819Y-78071181D01*
X129802404Y-77841871D01*
X129483622Y-77671479D01*
X129137723Y-77566552D01*
X128868139Y-77540000D01*
X128778000Y-77531122D01*
X128687861Y-77540000D01*
X118146861Y-77540000D01*
X117877277Y-77566552D01*
X117531378Y-77671479D01*
X117212596Y-77841871D01*
X116933181Y-78071181D01*
X116703871Y-78350596D01*
X116533479Y-78669378D01*
X116428552Y-79015277D01*
X116393122Y-79375000D01*
X116428552Y-79734723D01*
X116533479Y-80080622D01*
X116703871Y-80399404D01*
X116933181Y-80678819D01*
X117212596Y-80908129D01*
X117531378Y-81078521D01*
X117877277Y-81183448D01*
X118146861Y-81210000D01*
X128097159Y-81210000D01*
X128254311Y-81294000D01*
X117113141Y-81294000D01*
X117023000Y-81285122D01*
X116663277Y-81320551D01*
X116397885Y-81401058D01*
X116317378Y-81425479D01*
X115998596Y-81595871D01*
X115719181Y-81825181D01*
X115661717Y-81895201D01*
X111795722Y-85761197D01*
X111623872Y-85970597D01*
X111453479Y-86289379D01*
X111348552Y-86635278D01*
X111313122Y-86995000D01*
X104785072Y-86995000D01*
X104785072Y-86281731D01*
X104983010Y-86083793D01*
X105012002Y-86060000D01*
X105035796Y-86031007D01*
X105035800Y-86031003D01*
X105106974Y-85944276D01*
X105106975Y-85944275D01*
X105177547Y-85812246D01*
X105221004Y-85668985D01*
X105232001Y-85557332D01*
X105232001Y-85557323D01*
X105235677Y-85520000D01*
X105232001Y-85482677D01*
X105232001Y-78704332D01*
X105235678Y-78666999D01*
X105221004Y-78518013D01*
X105177547Y-78374752D01*
X105106975Y-78242723D01*
X105035800Y-78155996D01*
X105012002Y-78126998D01*
X104983004Y-78103200D01*
X103216875Y-76337072D01*
X104147000Y-76337072D01*
X104271482Y-76324812D01*
X104391180Y-76288502D01*
X104501494Y-76229537D01*
X104598185Y-76150185D01*
X104677537Y-76053494D01*
X104736502Y-75943180D01*
X104772812Y-75823482D01*
X104785072Y-75699000D01*
X104785072Y-74549000D01*
X111313122Y-74549000D01*
X111348552Y-74908722D01*
X111453479Y-75254621D01*
X111623872Y-75573403D01*
X111853182Y-75852818D01*
X112132597Y-76082128D01*
X112451379Y-76252521D01*
X112797278Y-76357448D01*
X113157000Y-76392878D01*
X113516722Y-76357448D01*
X113862621Y-76252521D01*
X114181403Y-76082128D01*
X114390803Y-75910278D01*
X117529082Y-72772000D01*
X120313607Y-72772000D01*
X120071378Y-72845479D01*
X119752596Y-73015871D01*
X119473181Y-73245181D01*
X119243871Y-73524596D01*
X119073479Y-73843378D01*
X118968552Y-74189277D01*
X118933122Y-74549000D01*
X118968552Y-74908723D01*
X119073479Y-75254622D01*
X119243871Y-75573404D01*
X119473181Y-75852819D01*
X119752596Y-76082129D01*
X120071378Y-76252521D01*
X120417277Y-76357448D01*
X120686861Y-76384000D01*
X128829861Y-76384000D01*
X128920000Y-76392878D01*
X129010139Y-76384000D01*
X129279723Y-76357448D01*
X129625622Y-76252521D01*
X129944404Y-76082129D01*
X130223819Y-75852819D01*
X130281290Y-75782791D01*
X130393278Y-75670802D01*
X130565128Y-75461403D01*
X130735521Y-75142621D01*
X130840448Y-74796722D01*
X130875878Y-74437000D01*
X130840448Y-74077278D01*
X130735521Y-73731379D01*
X130565128Y-73412597D01*
X130335818Y-73133182D01*
X130056403Y-72903872D01*
X129737621Y-72733479D01*
X129584400Y-72687000D01*
X129737622Y-72640521D01*
X130056404Y-72470129D01*
X130335819Y-72240819D01*
X130565129Y-71961404D01*
X130735521Y-71642622D01*
X130840448Y-71296723D01*
X130875878Y-70937000D01*
X130840448Y-70577277D01*
X130735521Y-70231378D01*
X130565129Y-69912596D01*
X130335819Y-69633181D01*
X130056404Y-69403871D01*
X129737622Y-69233479D01*
X129584400Y-69187000D01*
X129737620Y-69140521D01*
X130056402Y-68970128D01*
X130335818Y-68740818D01*
X130565128Y-68461402D01*
X130735521Y-68142620D01*
X130840448Y-67796722D01*
X130875878Y-67436999D01*
X130840448Y-67077276D01*
X130735521Y-66731379D01*
X130565128Y-66412597D01*
X130393278Y-66203197D01*
X129885287Y-65695206D01*
X129827819Y-65625181D01*
X129548404Y-65395871D01*
X129229622Y-65225479D01*
X128883723Y-65120552D01*
X128614139Y-65094000D01*
X128524000Y-65085122D01*
X128433861Y-65094000D01*
X118146861Y-65094000D01*
X117877277Y-65120552D01*
X117531378Y-65225479D01*
X117212596Y-65395871D01*
X116933181Y-65625181D01*
X116703871Y-65904596D01*
X116533479Y-66223378D01*
X116428552Y-66569277D01*
X116393122Y-66929000D01*
X116428552Y-67288723D01*
X116533479Y-67634622D01*
X116703871Y-67953404D01*
X116933181Y-68232819D01*
X117212596Y-68462129D01*
X117531378Y-68632521D01*
X117877277Y-68737448D01*
X118146861Y-68764000D01*
X127763919Y-68764000D01*
X127798197Y-68798278D01*
X128007597Y-68970128D01*
X128254311Y-69102000D01*
X116859138Y-69102000D01*
X116768999Y-69093122D01*
X116409276Y-69128552D01*
X116130888Y-69213000D01*
X116063378Y-69233479D01*
X115744596Y-69403871D01*
X115465181Y-69633181D01*
X115407717Y-69703201D01*
X111795722Y-73315197D01*
X111623872Y-73524597D01*
X111453479Y-73843379D01*
X111348552Y-74189278D01*
X111313122Y-74549000D01*
X104785072Y-74549000D01*
X104785072Y-73399000D01*
X104772812Y-73274518D01*
X104736502Y-73154820D01*
X104677537Y-73044506D01*
X104598185Y-72947815D01*
X104501494Y-72868463D01*
X104391180Y-72809498D01*
X104271482Y-72773188D01*
X104147000Y-72760928D01*
X101847000Y-72760928D01*
X101722518Y-72773188D01*
X101602820Y-72809498D01*
X101492506Y-72868463D01*
X101395815Y-72947815D01*
X101316463Y-73044506D01*
X101257498Y-73154820D01*
X101221188Y-73274518D01*
X101208928Y-73399000D01*
X101208928Y-75699000D01*
X101221188Y-75823482D01*
X101245916Y-75904999D01*
X98348361Y-75904999D01*
X98382000Y-75735883D01*
X98382000Y-75394117D01*
X98315325Y-75058919D01*
X98184537Y-74743169D01*
X97994663Y-74459002D01*
X97752998Y-74217337D01*
X97468831Y-74027463D01*
X97153081Y-73896675D01*
X96817883Y-73830000D01*
X96476117Y-73830000D01*
X96140919Y-73896675D01*
X95825169Y-74027463D01*
X95541002Y-74217337D01*
X95299337Y-74459002D01*
X95109463Y-74743169D01*
X94978675Y-75058919D01*
X94912000Y-75394117D01*
X94912000Y-75735883D01*
X94978675Y-76071081D01*
X95109463Y-76386831D01*
X95299337Y-76670998D01*
X95541002Y-76912663D01*
X95825169Y-77102537D01*
X96140919Y-77233325D01*
X96476117Y-77300000D01*
X96817883Y-77300000D01*
X97153081Y-77233325D01*
X97211850Y-77208982D01*
X97235996Y-77228798D01*
X97322723Y-77299973D01*
X97454752Y-77370545D01*
X97598013Y-77414002D01*
X97746999Y-77428676D01*
X97784332Y-77424999D01*
X102155200Y-77424999D01*
X102414436Y-77684235D01*
X102151485Y-77793153D01*
X101859129Y-77988500D01*
X101610500Y-78237129D01*
X101442873Y-78488000D01*
X98258072Y-78488000D01*
X98258072Y-78148000D01*
X98245812Y-78023518D01*
X98209502Y-77903820D01*
X98150537Y-77793506D01*
X98071185Y-77696815D01*
X97974494Y-77617463D01*
X97864180Y-77558498D01*
X97744482Y-77522188D01*
X97620000Y-77509928D01*
X95856730Y-77509928D01*
X94105000Y-75758199D01*
X94105000Y-69021801D01*
X95983730Y-67143072D01*
X97747000Y-67143072D01*
X97871482Y-67130812D01*
X97991180Y-67094502D01*
X98101494Y-67035537D01*
X98198185Y-66956185D01*
X98277537Y-66859494D01*
X98336502Y-66749180D01*
X98372812Y-66629482D01*
X98385072Y-66505000D01*
X98385072Y-66165000D01*
X101158199Y-66165000D01*
X101316018Y-66322819D01*
X101280596Y-66408335D01*
X101212000Y-66753193D01*
X101212000Y-67104807D01*
X101280596Y-67449665D01*
X101415153Y-67774515D01*
X101610500Y-68066871D01*
X101859129Y-68315500D01*
X102151485Y-68510847D01*
X102476335Y-68645404D01*
X102821193Y-68714000D01*
X103172807Y-68714000D01*
X103517665Y-68645404D01*
X103842515Y-68510847D01*
X104134871Y-68315500D01*
X104383500Y-68066871D01*
X104578847Y-67774515D01*
X104713404Y-67449665D01*
X104782000Y-67104807D01*
X104782000Y-66753193D01*
X104713404Y-66408335D01*
X104578847Y-66083485D01*
X104383500Y-65791129D01*
X104134871Y-65542500D01*
X103842515Y-65347153D01*
X103517665Y-65212596D01*
X103172807Y-65144000D01*
X102821193Y-65144000D01*
X102476335Y-65212596D01*
X102390819Y-65248018D01*
X102036803Y-64894002D01*
X102013001Y-64864999D01*
X101897276Y-64770026D01*
X101765247Y-64699454D01*
X101621986Y-64655997D01*
X101510333Y-64645000D01*
X101510322Y-64645000D01*
X101473000Y-64641324D01*
X101435678Y-64645000D01*
X98385072Y-64645000D01*
X98385072Y-64305000D01*
X98372812Y-64180518D01*
X98336502Y-64060820D01*
X98277537Y-63950506D01*
X98198185Y-63853815D01*
X98101494Y-63774463D01*
X97991180Y-63715498D01*
X97871482Y-63679188D01*
X97747000Y-63666928D01*
X95547000Y-63666928D01*
X95422518Y-63679188D01*
X95302820Y-63715498D01*
X95192506Y-63774463D01*
X95095815Y-63853815D01*
X95016463Y-63950506D01*
X94957498Y-64060820D01*
X94921188Y-64180518D01*
X94908928Y-64305000D01*
X94908928Y-66068270D01*
X92833998Y-68143201D01*
X92805000Y-68166999D01*
X92781202Y-68195997D01*
X92781201Y-68195998D01*
X92710026Y-68282724D01*
X92639454Y-68414754D01*
X92595998Y-68558015D01*
X92581324Y-68707000D01*
X92585001Y-68744332D01*
X92585000Y-75313000D01*
X91896043Y-75313000D01*
X91792637Y-75158241D01*
X91592759Y-74958363D01*
X91357727Y-74801320D01*
X91096574Y-74693147D01*
X90819335Y-74638000D01*
X90536665Y-74638000D01*
X90259426Y-74693147D01*
X89998273Y-74801320D01*
X89937038Y-74842236D01*
X89132804Y-74038002D01*
X89109001Y-74008999D01*
X88993276Y-73914026D01*
X88861247Y-73843454D01*
X88717986Y-73799997D01*
X88606333Y-73789000D01*
X88606322Y-73789000D01*
X88569000Y-73785324D01*
X88531678Y-73789000D01*
X88034320Y-73789000D01*
X87996997Y-73785324D01*
X87959674Y-73789000D01*
X87959665Y-73789000D01*
X87848012Y-73799997D01*
X87704751Y-73843454D01*
X87572722Y-73914026D01*
X87456997Y-74008999D01*
X87433199Y-74037997D01*
X86483998Y-74987199D01*
X86455000Y-75010997D01*
X86431202Y-75039995D01*
X86431201Y-75039996D01*
X86360026Y-75126722D01*
X86289454Y-75258752D01*
X86285207Y-75272754D01*
X86256408Y-75367696D01*
X86245998Y-75402013D01*
X86231324Y-75550998D01*
X86235001Y-75588330D01*
X86235000Y-77769225D01*
X86143987Y-77830038D01*
X86104000Y-77870025D01*
X86104000Y-71561801D01*
X87814114Y-69851688D01*
X87996665Y-69888000D01*
X88279335Y-69888000D01*
X88556574Y-69832853D01*
X88817727Y-69724680D01*
X89052759Y-69567637D01*
X89251357Y-69369039D01*
X89252188Y-69377482D01*
X89288498Y-69497180D01*
X89347463Y-69607494D01*
X89426815Y-69704185D01*
X89523506Y-69783537D01*
X89633820Y-69842502D01*
X89753518Y-69878812D01*
X89878000Y-69891072D01*
X91478000Y-69891072D01*
X91602482Y-69878812D01*
X91722180Y-69842502D01*
X91832494Y-69783537D01*
X91929185Y-69704185D01*
X92008537Y-69607494D01*
X92067502Y-69497180D01*
X92103812Y-69377482D01*
X92116072Y-69253000D01*
X92116072Y-67653000D01*
X92103812Y-67528518D01*
X92067502Y-67408820D01*
X92008537Y-67298506D01*
X91929185Y-67201815D01*
X91832494Y-67122463D01*
X91722180Y-67063498D01*
X91602482Y-67027188D01*
X91478000Y-67014928D01*
X89933730Y-67014928D01*
X88562645Y-65643844D01*
X88584000Y-65536486D01*
X88584000Y-65273514D01*
X90994000Y-65273514D01*
X90994000Y-65536486D01*
X91045304Y-65794405D01*
X91145939Y-66037359D01*
X91292038Y-66256013D01*
X91477987Y-66441962D01*
X91696641Y-66588061D01*
X91939595Y-66688696D01*
X92197514Y-66740000D01*
X92460486Y-66740000D01*
X92718405Y-66688696D01*
X92961359Y-66588061D01*
X93180013Y-66441962D01*
X93365962Y-66256013D01*
X93512061Y-66037359D01*
X93612696Y-65794405D01*
X93664000Y-65536486D01*
X93664000Y-65273514D01*
X93612696Y-65015595D01*
X93512061Y-64772641D01*
X93365962Y-64553987D01*
X93180013Y-64368038D01*
X92961359Y-64221939D01*
X92718405Y-64121304D01*
X92460486Y-64070000D01*
X92197514Y-64070000D01*
X91939595Y-64121304D01*
X91696641Y-64221939D01*
X91477987Y-64368038D01*
X91292038Y-64553987D01*
X91145939Y-64772641D01*
X91045304Y-65015595D01*
X90994000Y-65273514D01*
X88584000Y-65273514D01*
X88532696Y-65015595D01*
X88432061Y-64772641D01*
X88285962Y-64553987D01*
X88100013Y-64368038D01*
X87881359Y-64221939D01*
X87638405Y-64121304D01*
X87380486Y-64070000D01*
X87117514Y-64070000D01*
X86859595Y-64121304D01*
X86616641Y-64221939D01*
X86397987Y-64368038D01*
X86212038Y-64553987D01*
X86065939Y-64772641D01*
X85965304Y-65015595D01*
X85914000Y-65273514D01*
X85914000Y-65536486D01*
X85965304Y-65794405D01*
X86065939Y-66037359D01*
X86212038Y-66256013D01*
X86397987Y-66441962D01*
X86616641Y-66588061D01*
X86859595Y-66688696D01*
X87117514Y-66740000D01*
X87380486Y-66740000D01*
X87487844Y-66718645D01*
X87821952Y-67052753D01*
X87719426Y-67073147D01*
X87458273Y-67181320D01*
X87223241Y-67338363D01*
X87023363Y-67538241D01*
X86866320Y-67773273D01*
X86758147Y-68034426D01*
X86703000Y-68311665D01*
X86703000Y-68594335D01*
X86739312Y-68776886D01*
X84832998Y-70683201D01*
X84804000Y-70706999D01*
X84780202Y-70735997D01*
X84780201Y-70735998D01*
X84709026Y-70822724D01*
X84638454Y-70954754D01*
X84594998Y-71098015D01*
X84580324Y-71247000D01*
X83660000Y-71247000D01*
X83660000Y-59660000D01*
X84207348Y-59660000D01*
X84019369Y-59941331D01*
G37*
%TD.AperFunction*%
D29*
X101415153Y-80220515D02*
X101610500Y-80512871D01*
X101859129Y-80761500D01*
X102151485Y-80956847D01*
X102476335Y-81091404D01*
X102821193Y-81160000D01*
X103172807Y-81160000D01*
X103517665Y-81091404D01*
X103712002Y-81010907D01*
X103712001Y-85205196D01*
X103710269Y-85206928D01*
X101847000Y-85206928D01*
X101722518Y-85219188D01*
X101602820Y-85255498D01*
X101492506Y-85314463D01*
X101395815Y-85393815D01*
X101316463Y-85490506D01*
X101257498Y-85600820D01*
X101221188Y-85720518D01*
X101208928Y-85845000D01*
X101208928Y-87708270D01*
X98040998Y-90876201D01*
X98012000Y-90899999D01*
X97988202Y-90928997D01*
X97988201Y-90928998D01*
X97917026Y-91015724D01*
X97846454Y-91147754D01*
X97802998Y-91291015D01*
X97788324Y-91440000D01*
X97792001Y-91477332D01*
X97792000Y-93513091D01*
X97727789Y-93565788D01*
X97582830Y-93742421D01*
X97475115Y-93943940D01*
X97408785Y-94162600D01*
X97392000Y-94333021D01*
X97392000Y-94896978D01*
X97408785Y-95067399D01*
X97475115Y-95286059D01*
X97582829Y-95487578D01*
X97727788Y-95664212D01*
X97904421Y-95809171D01*
X98105940Y-95916885D01*
X98324600Y-95983215D01*
X98552000Y-96005612D01*
X98779399Y-95983215D01*
X98998059Y-95916885D01*
X99187000Y-95815894D01*
X99189001Y-95816964D01*
X99189000Y-99232225D01*
X99097987Y-99293038D01*
X98912038Y-99478987D01*
X98765939Y-99697641D01*
X98665304Y-99940595D01*
X98614000Y-100198514D01*
X98614000Y-100461486D01*
X98665304Y-100719405D01*
X98715256Y-100840000D01*
X94070744Y-100840000D01*
X94120696Y-100719405D01*
X94172000Y-100461486D01*
X94172000Y-100198514D01*
X94120696Y-99940595D01*
X94020061Y-99697641D01*
X93873962Y-99478987D01*
X93688013Y-99293038D01*
X93597000Y-99232225D01*
X93597000Y-95992041D01*
X93709000Y-96003072D01*
X93948250Y-96000000D01*
X94107000Y-95841250D01*
X94107000Y-95068109D01*
X94107215Y-95067400D01*
X94124000Y-94896979D01*
X94124000Y-94742000D01*
X94361000Y-94742000D01*
X94361000Y-95841250D01*
X94519750Y-96000000D01*
X94759000Y-96003072D01*
X94883482Y-95990812D01*
X95003180Y-95954502D01*
X95113494Y-95895537D01*
X95210185Y-95816185D01*
X95289537Y-95719494D01*
X95348502Y-95609180D01*
X95384812Y-95489482D01*
X95397072Y-95365000D01*
X95394000Y-94900750D01*
X95235250Y-94742000D01*
X94361000Y-94742000D01*
X94124000Y-94742000D01*
X94124000Y-94333022D01*
X94107215Y-94162601D01*
X94107000Y-94161892D01*
X94107000Y-93388750D01*
X94361000Y-93388750D01*
X94361000Y-94488000D01*
X95235250Y-94488000D01*
X95394000Y-94329250D01*
X95397072Y-93865000D01*
X95384812Y-93740518D01*
X95348502Y-93620820D01*
X95289537Y-93510506D01*
X95210185Y-93413815D01*
X95113494Y-93334463D01*
X95003180Y-93275498D01*
X94883482Y-93239188D01*
X94759000Y-93226928D01*
X94519750Y-93230000D01*
X94361000Y-93388750D01*
X94107000Y-93388750D01*
X93948250Y-93230000D01*
X93709000Y-93226928D01*
X93584518Y-93239188D01*
X93464820Y-93275498D01*
X93400098Y-93310093D01*
X93191400Y-93246785D01*
X93141893Y-93241909D01*
X95542368Y-90841434D01*
X95698169Y-90945537D01*
X96013919Y-91076325D01*
X96349117Y-91143000D01*
X96690883Y-91143000D01*
X97026081Y-91076325D01*
X97341831Y-90945537D01*
X97625998Y-90755663D01*
X97867663Y-90513998D01*
X98057537Y-90229831D01*
X98188325Y-89914081D01*
X98255000Y-89578883D01*
X98255000Y-89237117D01*
X98188325Y-88901919D01*
X98057537Y-88586169D01*
X97867663Y-88302002D01*
X97625998Y-88060337D01*
X97341831Y-87870463D01*
X97026081Y-87739675D01*
X96690883Y-87673000D01*
X96349117Y-87673000D01*
X96013919Y-87739675D01*
X95698169Y-87870463D01*
X95414002Y-88060337D01*
X95172337Y-88302002D01*
X94982463Y-88586169D01*
X94851675Y-88901919D01*
X94785000Y-89237117D01*
X94785000Y-89449197D01*
X92062165Y-92172034D01*
X91986247Y-92131454D01*
X91842986Y-92087997D01*
X91694000Y-92073323D01*
X91545015Y-92087997D01*
X91401754Y-92131454D01*
X91269725Y-92202026D01*
X91154000Y-92296999D01*
X91059027Y-92412724D01*
X90988455Y-92544753D01*
X90944998Y-92688014D01*
X90934001Y-92799667D01*
X90934001Y-93513091D01*
X90869789Y-93565788D01*
X90724830Y-93742421D01*
X90617115Y-93943940D01*
X90550785Y-94162600D01*
X90534000Y-94333021D01*
X90534000Y-94896978D01*
X90550785Y-95067399D01*
X90617115Y-95286059D01*
X90724829Y-95487578D01*
X90869788Y-95664212D01*
X91046421Y-95809171D01*
X91247940Y-95916885D01*
X91466600Y-95983215D01*
X91694000Y-96005612D01*
X91921399Y-95983215D01*
X92077001Y-95936014D01*
X92077000Y-99232225D01*
X91985987Y-99293038D01*
X91800038Y-99478987D01*
X91653939Y-99697641D01*
X91553304Y-99940595D01*
X91502000Y-100198514D01*
X91502000Y-100461486D01*
X91553304Y-100719405D01*
X91603256Y-100840000D01*
X90484802Y-100840000D01*
X89804999Y-100160198D01*
X89804999Y-90925509D01*
X90028665Y-90970000D01*
X90311335Y-90970000D01*
X90588574Y-90914853D01*
X90849727Y-90806680D01*
X91084759Y-90649637D01*
X91284637Y-90449759D01*
X91441680Y-90214727D01*
X91549853Y-89953574D01*
X91605000Y-89676335D01*
X91605000Y-89393665D01*
X91549853Y-89116426D01*
X91441680Y-88855273D01*
X91284637Y-88620241D01*
X91084759Y-88420363D01*
X90930000Y-88316957D01*
X90930000Y-85912801D01*
X95856730Y-80986072D01*
X97620000Y-80986072D01*
X97744482Y-80973812D01*
X97864180Y-80937502D01*
X97974494Y-80878537D01*
X98071185Y-80799185D01*
X98150537Y-80702494D01*
X98209502Y-80592180D01*
X98245812Y-80472482D01*
X98258072Y-80348000D01*
X98258072Y-80008000D01*
X101327127Y-80008000D01*
X101415153Y-80220515D01*
%TA.AperFunction,Conductor*%
D30*
G36*
X101415153Y-80220515D02*
G01*
X101610500Y-80512871D01*
X101859129Y-80761500D01*
X102151485Y-80956847D01*
X102476335Y-81091404D01*
X102821193Y-81160000D01*
X103172807Y-81160000D01*
X103517665Y-81091404D01*
X103712002Y-81010907D01*
X103712001Y-85205196D01*
X103710269Y-85206928D01*
X101847000Y-85206928D01*
X101722518Y-85219188D01*
X101602820Y-85255498D01*
X101492506Y-85314463D01*
X101395815Y-85393815D01*
X101316463Y-85490506D01*
X101257498Y-85600820D01*
X101221188Y-85720518D01*
X101208928Y-85845000D01*
X101208928Y-87708270D01*
X98040998Y-90876201D01*
X98012000Y-90899999D01*
X97988202Y-90928997D01*
X97988201Y-90928998D01*
X97917026Y-91015724D01*
X97846454Y-91147754D01*
X97802998Y-91291015D01*
X97788324Y-91440000D01*
X97792001Y-91477332D01*
X97792000Y-93513091D01*
X97727789Y-93565788D01*
X97582830Y-93742421D01*
X97475115Y-93943940D01*
X97408785Y-94162600D01*
X97392000Y-94333021D01*
X97392000Y-94896978D01*
X97408785Y-95067399D01*
X97475115Y-95286059D01*
X97582829Y-95487578D01*
X97727788Y-95664212D01*
X97904421Y-95809171D01*
X98105940Y-95916885D01*
X98324600Y-95983215D01*
X98552000Y-96005612D01*
X98779399Y-95983215D01*
X98998059Y-95916885D01*
X99187000Y-95815894D01*
X99189001Y-95816964D01*
X99189000Y-99232225D01*
X99097987Y-99293038D01*
X98912038Y-99478987D01*
X98765939Y-99697641D01*
X98665304Y-99940595D01*
X98614000Y-100198514D01*
X98614000Y-100461486D01*
X98665304Y-100719405D01*
X98715256Y-100840000D01*
X94070744Y-100840000D01*
X94120696Y-100719405D01*
X94172000Y-100461486D01*
X94172000Y-100198514D01*
X94120696Y-99940595D01*
X94020061Y-99697641D01*
X93873962Y-99478987D01*
X93688013Y-99293038D01*
X93597000Y-99232225D01*
X93597000Y-95992041D01*
X93709000Y-96003072D01*
X93948250Y-96000000D01*
X94107000Y-95841250D01*
X94107000Y-95068109D01*
X94107215Y-95067400D01*
X94124000Y-94896979D01*
X94124000Y-94742000D01*
X94361000Y-94742000D01*
X94361000Y-95841250D01*
X94519750Y-96000000D01*
X94759000Y-96003072D01*
X94883482Y-95990812D01*
X95003180Y-95954502D01*
X95113494Y-95895537D01*
X95210185Y-95816185D01*
X95289537Y-95719494D01*
X95348502Y-95609180D01*
X95384812Y-95489482D01*
X95397072Y-95365000D01*
X95394000Y-94900750D01*
X95235250Y-94742000D01*
X94361000Y-94742000D01*
X94124000Y-94742000D01*
X94124000Y-94333022D01*
X94107215Y-94162601D01*
X94107000Y-94161892D01*
X94107000Y-93388750D01*
X94361000Y-93388750D01*
X94361000Y-94488000D01*
X95235250Y-94488000D01*
X95394000Y-94329250D01*
X95397072Y-93865000D01*
X95384812Y-93740518D01*
X95348502Y-93620820D01*
X95289537Y-93510506D01*
X95210185Y-93413815D01*
X95113494Y-93334463D01*
X95003180Y-93275498D01*
X94883482Y-93239188D01*
X94759000Y-93226928D01*
X94519750Y-93230000D01*
X94361000Y-93388750D01*
X94107000Y-93388750D01*
X93948250Y-93230000D01*
X93709000Y-93226928D01*
X93584518Y-93239188D01*
X93464820Y-93275498D01*
X93400098Y-93310093D01*
X93191400Y-93246785D01*
X93141893Y-93241909D01*
X95542368Y-90841434D01*
X95698169Y-90945537D01*
X96013919Y-91076325D01*
X96349117Y-91143000D01*
X96690883Y-91143000D01*
X97026081Y-91076325D01*
X97341831Y-90945537D01*
X97625998Y-90755663D01*
X97867663Y-90513998D01*
X98057537Y-90229831D01*
X98188325Y-89914081D01*
X98255000Y-89578883D01*
X98255000Y-89237117D01*
X98188325Y-88901919D01*
X98057537Y-88586169D01*
X97867663Y-88302002D01*
X97625998Y-88060337D01*
X97341831Y-87870463D01*
X97026081Y-87739675D01*
X96690883Y-87673000D01*
X96349117Y-87673000D01*
X96013919Y-87739675D01*
X95698169Y-87870463D01*
X95414002Y-88060337D01*
X95172337Y-88302002D01*
X94982463Y-88586169D01*
X94851675Y-88901919D01*
X94785000Y-89237117D01*
X94785000Y-89449197D01*
X92062165Y-92172034D01*
X91986247Y-92131454D01*
X91842986Y-92087997D01*
X91694000Y-92073323D01*
X91545015Y-92087997D01*
X91401754Y-92131454D01*
X91269725Y-92202026D01*
X91154000Y-92296999D01*
X91059027Y-92412724D01*
X90988455Y-92544753D01*
X90944998Y-92688014D01*
X90934001Y-92799667D01*
X90934001Y-93513091D01*
X90869789Y-93565788D01*
X90724830Y-93742421D01*
X90617115Y-93943940D01*
X90550785Y-94162600D01*
X90534000Y-94333021D01*
X90534000Y-94896978D01*
X90550785Y-95067399D01*
X90617115Y-95286059D01*
X90724829Y-95487578D01*
X90869788Y-95664212D01*
X91046421Y-95809171D01*
X91247940Y-95916885D01*
X91466600Y-95983215D01*
X91694000Y-96005612D01*
X91921399Y-95983215D01*
X92077001Y-95936014D01*
X92077000Y-99232225D01*
X91985987Y-99293038D01*
X91800038Y-99478987D01*
X91653939Y-99697641D01*
X91553304Y-99940595D01*
X91502000Y-100198514D01*
X91502000Y-100461486D01*
X91553304Y-100719405D01*
X91603256Y-100840000D01*
X90484802Y-100840000D01*
X89804999Y-100160198D01*
X89804999Y-90925509D01*
X90028665Y-90970000D01*
X90311335Y-90970000D01*
X90588574Y-90914853D01*
X90849727Y-90806680D01*
X91084759Y-90649637D01*
X91284637Y-90449759D01*
X91441680Y-90214727D01*
X91549853Y-89953574D01*
X91605000Y-89676335D01*
X91605000Y-89393665D01*
X91549853Y-89116426D01*
X91441680Y-88855273D01*
X91284637Y-88620241D01*
X91084759Y-88420363D01*
X90930000Y-88316957D01*
X90930000Y-85912801D01*
X95856730Y-80986072D01*
X97620000Y-80986072D01*
X97744482Y-80973812D01*
X97864180Y-80937502D01*
X97974494Y-80878537D01*
X98071185Y-80799185D01*
X98150537Y-80702494D01*
X98209502Y-80592180D01*
X98245812Y-80472482D01*
X98258072Y-80348000D01*
X98258072Y-80008000D01*
X101327127Y-80008000D01*
X101415153Y-80220515D01*
G37*
%TD.AperFunction*%
%TD*%
M02*
